<?xml version="1.0" encoding="UTF-8" standalone="no"?>
<svg
   xmlns:dc="http://purl.org/dc/elements/1.1/"
   xmlns:cc="http://creativecommons.org/ns#"
   xmlns:rdf="http://www.w3.org/1999/02/22-rdf-syntax-ns#"
   xmlns:svg="http://www.w3.org/2000/svg"
   xmlns="http://www.w3.org/2000/svg"
   xmlns:sodipodi="http://sodipodi.sourceforge.net/DTD/sodipodi-0.dtd"
   xmlns:inkscape="http://www.inkscape.org/namespaces/inkscape"
   version="1.1"
   id="svg815"
   width="216.32988"
   height="736.27814"
   viewBox="0 0 216.32988 736.27814"
   sodipodi:docname="cerke_online_index - コピー.svg"
   inkscape:version="1.0.1 (3bc2e813f5, 2020-09-07)">
  <metadata
     id="metadata821">
    <rdf:RDF>
      <cc:Work
         rdf:about="">
        <dc:format>image/svg+xml</dc:format>
        <dc:type
           rdf:resource="http://purl.org/dc/dcmitype/StillImage" />
        <dc:title></dc:title>
      </cc:Work>
    </rdf:RDF>
  </metadata>
  <defs
     id="defs819" />
  <sodipodi:namedview
     pagecolor="#ffffff"
     bordercolor="#666666"
     borderopacity="1"
     objecttolerance="10"
     gridtolerance="10"
     guidetolerance="10"
     inkscape:pageopacity="0"
     inkscape:pageshadow="2"
     inkscape:window-width="1920"
     inkscape:window-height="1001"
     id="namedview817"
     showgrid="false"
     inkscape:snap-global="false"
     inkscape:zoom="0.56236225"
     inkscape:cx="15.86731"
     inkscape:cy="92.932793"
     inkscape:window-x="-9"
     inkscape:window-y="-9"
     inkscape:window-maximized="1"
     inkscape:current-layer="svg815"
     inkscape:pagecheckerboard="0"
     inkscape:blackoutopacity="0.0"
     showguides="true"
     inkscape:document-rotation="0"
     fit-margin-top="0"
     fit-margin-left="0"
     fit-margin-right="0"
     fit-margin-bottom="0">
    <sodipodi:guide
       position="-239.81774,-115.9904"
       orientation="0,-1"
       id="guide215519" />
    <sodipodi:guide
       position="1562.4014,-748.2774"
       orientation="1,0"
       id="guide232174" />
  </sodipodi:namedview>
  <flowRoot
     xml:space="preserve"
     id="flowRoot909"
     style="font-style:normal;font-variant:normal;font-weight:normal;font-stretch:normal;font-size:26.6667px;line-height:1.25;font-family:pek_tak;-inkscape-font-specification:pek_tak;letter-spacing:0px;word-spacing:0px;fill:#000000;fill-opacity:1;stroke:none"
     transform="translate(-984,-1339.2472)"><flowRegion
       id="flowRegion911"><rect
         id="rect913"
         width="149.85365"
         height="107.39512"
         x="477.03415"
         y="662.90729" /></flowRegion><flowPara
       id="flowPara915" /></flowRoot>
  <flowRoot
     xml:space="preserve"
     id="flowRoot1735"
     style="font-style:normal;font-variant:normal;font-weight:normal;font-stretch:normal;font-size:26.6667px;line-height:1.25;font-family:pek_tak;-inkscape-font-specification:pek_tak;letter-spacing:0px;word-spacing:0px;fill:#000000;fill-opacity:1;stroke:none"
     transform="translate(-984,-1339.2472)"><flowRegion
       id="flowRegion1737"><rect
         id="rect1739"
         width="2332.7219"
         height="549.46344"
         x="-1038.9854"
         y="-1062.9073" /></flowRegion><flowPara
       id="flowPara1741" /></flowRoot>
  <flowRoot
     xml:space="preserve"
     id="flowRoot1931"
     style="font-style:normal;font-variant:normal;font-weight:normal;font-stretch:normal;font-size:26.6667px;line-height:1.25;font-family:pek_tak;-inkscape-font-specification:pek_tak;letter-spacing:0px;word-spacing:0px;fill:#000000;fill-opacity:1;stroke:none"
     transform="translate(-984,-1339.2472)"><flowRegion
       id="flowRegion1933"><rect
         id="rect1935"
         width="214.57414"
         height="210.15903"
         x="1710.412"
         y="491.9079" /></flowRegion><flowPara
       id="flowPara1937" /></flowRoot>
  <flowRoot
     xml:space="preserve"
     id="flowRoot1939"
     style="font-style:normal;font-variant:normal;font-weight:normal;font-stretch:normal;font-size:26.6667px;line-height:1.25;font-family:pek_tak;-inkscape-font-specification:pek_tak;letter-spacing:0px;word-spacing:0px;fill:#000000;fill-opacity:1;stroke:none"
     transform="translate(-984,-1339.2472)"><flowRegion
       id="flowRegion1941"><rect
         id="rect1943"
         width="386.76328"
         height="191.61559"
         x="1323.6487"
         y="300.29233" /></flowRegion><flowPara
       id="flowPara1945" /></flowRoot>
  <rect
     y="260.90836"
     x="1.8684087"
     height="214.46147"
     width="214.46147"
     id="rect53062"
     style="fill:#ffbe0e;fill-opacity:1;stroke:#000000;stroke-width:0;stroke-linecap:square;stroke-linejoin:miter;stroke-miterlimit:4;stroke-dasharray:none;stroke-dashoffset:0;stroke-opacity:1;paint-order:stroke markers fill"
     inkscape:export-xdpi="300"
     inkscape:export-ydpi="300"
     inkscape:export-filename="C:\Users\yasus\OneDrive\ドキュメント\文字・言語\悠里\机戦\cerke_online_picture\random.png" />
  <path
     id="rect14789"
     style="fill:#d42000;fill-opacity:1;stroke-width:1.35685;paint-order:fill markers stroke"
     d="m 1.8684005,260.90864 v 214.461 H 216.3294 v -214.461 z M 16.8079,275.84814 h 184.582 v 184.582 H 150.1054 16.8079 Z"
     sodipodi:nodetypes="ccccccccccc" />
  <path
     style="fill:#d42000;fill-opacity:1;stroke:none;stroke-width:1px;stroke-linecap:butt;stroke-linejoin:miter;stroke-opacity:1"
     d="m 101.0799,340.69694 11.1742,-9.0038 17.7456,22.6861 c 0,0 -4.8124,75.6723 -67.1204,120.9904 l -8.8186,-10.6843 c 0,0 60.1455,-31.974 47.0192,-123.9884 z"
     id="path25494"
     sodipodi:nodetypes="cccccc" />
  <path
     style="fill:#d42000;fill-opacity:1;stroke:none;stroke-width:1px;stroke-linecap:butt;stroke-linejoin:miter;stroke-opacity:1"
     d="M 28.563,348.70754 5.0527005,324.75304 c 0,0 40.1917995,11.6713 181.1576995,-15.9475 l 30.119,18.8599 z"
     id="path19771"
     sodipodi:nodetypes="ccccc" />
  <path
     style="fill:#d42000;fill-opacity:1;stroke:none;stroke-width:1px;stroke-linecap:butt;stroke-linejoin:miter;stroke-opacity:1"
     d="m 46.5542,349.60484 -4.2199,6.5878 c 0,0 8.2323,24.1497 4.5501,49.6352 11.1545,13.6441 17.2729,20.8835 17.2729,20.8835 l 5.2468,-5.8974 -0.5143,-8.0773 90.5175,-12.9851 -0.466,7.537 12.4337,9.6102 12.7087,-57.1795 6.964,-9.5115 -19.4803,-11.158 -5.6472,5.7335 -5.3859,36.7669 -3.5399,-2.6131 c 0,0 -80.1162,16.5231 -89.2593,15.7156 -2.016,-18.0301 -4.1493,-29.5576 -4.1493,-29.5576 z"
     id="path19883"
     sodipodi:nodetypes="cccccccccccccccccc" />
  <path
     style="fill:#d42000;fill-opacity:1;stroke:none;stroke-width:1px;stroke-linecap:butt;stroke-linejoin:miter;stroke-opacity:1"
     d="m 75.6178,313.83594 -13.8757,29.4415 -22.1375,-58.4982 z"
     id="path38696"
     sodipodi:nodetypes="cccc"
     inkscape:transform-center-x="-2.82912"
     inkscape:transform-center-y="-6.60128" />
  <path
     style="fill:#d42000;fill-opacity:1;stroke:none;stroke-width:1px;stroke-linecap:butt;stroke-linejoin:miter;stroke-opacity:1"
     d="m 161.4298,260.90864 19.1902,29.2918 -58.0375,44.2807 -2.2641,-1.4786 c 0,0 32.5236,-25.1638 38.2829,-68.9656 z"
     id="path38698"
     sodipodi:nodetypes="cccccc" />
  <path
     style="fill:#d42000;fill-opacity:1;stroke:none;stroke-width:1px;stroke-linecap:butt;stroke-linejoin:miter;stroke-opacity:1"
     d="M 117.6731,304.93994 103.7974,334.38144 81.66,275.88324 Z"
     id="path42242"
     sodipodi:nodetypes="cccc" />
  <rect
     y="521.81671"
     x="4.9999994e-07"
     height="214.46147"
     width="214.46147"
     id="rect73975"
     style="fill:#ffffff;fill-opacity:1;stroke:#000000;stroke-width:0;stroke-linecap:square;stroke-linejoin:miter;stroke-miterlimit:4;stroke-dasharray:none;stroke-dashoffset:0;stroke-opacity:1;paint-order:stroke markers fill"
     inkscape:export-xdpi="300"
     inkscape:export-ydpi="300"
     inkscape:export-filename="C:\Users\yasus\OneDrive\ドキュメント\文字・言語\悠里\机戦\cerke_online_picture\random.png" />
  <path
     id="path73977"
     style="fill:#005242;fill-opacity:1;stroke-width:1.35685;paint-order:fill markers stroke"
     d="m 4.9999994e-7,521.81704 v 214.461 H 214.4609 v -214.461 z M 14.9394,536.75654 h 184.5821 v 184.582 H 148.237 14.9394 Z"
     sodipodi:nodetypes="ccccccccccc" />
  <path
     style="fill:#005242;fill-opacity:1;stroke:none;stroke-width:1px;stroke-linecap:butt;stroke-linejoin:miter;stroke-opacity:1"
     d="m 42.4712,610.72364 -21.5103,-17.9546 c 0,0 29.619,-0.6207 59.2176,-17.3238 l 22.9849,12.8665 z"
     id="path73983"
     sodipodi:nodetypes="ccccc" />
  <path
     style="fill:#005242;fill-opacity:1;stroke:none;stroke-width:1px;stroke-linecap:butt;stroke-linejoin:miter;stroke-opacity:1"
     d="m 68.085701,547.62594 -20.1558,-12.8665 -5.595601,6.4259 c 7.939801,19.057 8.6457,107.5676 5.1662,168.2703 l 19.2516,19.3206 z"
     id="path77149"
     sodipodi:nodetypes="cccccc" />
  <path
     style="fill:#005242;fill-opacity:1;stroke:none;stroke-width:1px;stroke-linecap:butt;stroke-linejoin:miter;stroke-opacity:1"
     d="m 103.1634,588.31174 -20.5399,-9.7546 c 0,0 3.9755,11.8893 -0.3797,87.8699 l 18.6969,-14.7116 z"
     id="path79012"
     sodipodi:nodetypes="ccccc" />
  <path
     style="fill:#005242;fill-opacity:1;stroke:none;stroke-width:1px;stroke-linecap:butt;stroke-linejoin:miter;stroke-opacity:1"
     d="m 87.0842,670.11644 -37.772899,-35.2628 51.629399,16.8618 z"
     id="path79014"
     sodipodi:nodetypes="cccc" />
  <path
     style="fill:#005242;fill-opacity:1;stroke:none;stroke-width:1px;stroke-linecap:butt;stroke-linejoin:miter;stroke-opacity:1"
     d="m 36.2064,589.03294 -18.317199,-12.6442 -3.051001,4.5704 c 2.8471,12.8405 7.2922,31.9494 4.5013,80.6399 l 12.784701,17.0372 4.578499,-3.7419 z"
     id="path82003"
     sodipodi:nodetypes="ccccccc"
     inkscape:transform-center-x="-43.121672"
     inkscape:transform-center-y="-4.0009799" />
  <path
     style="fill:#005242;fill-opacity:1;stroke:none;stroke-width:1px;stroke-linecap:butt;stroke-linejoin:miter;stroke-opacity:1"
     d="m 110.5983,582.19454 8.7291,-8.1147 15.2309,22.6861 c 0,0 6.0755,82.0713 -51.786199,123.833 l -8.8186,-10.6843 c 0,0 49.770999,-35.7057 36.644799,-127.7201 z"
     id="path63571-8"
     sodipodi:nodetypes="cccccc" />
  <path
     style="fill:#005242;fill-opacity:1;stroke:none;stroke-width:1px;stroke-linecap:butt;stroke-linejoin:miter;stroke-opacity:1"
     d="m 136.7071,606.82604 -18.1356,-17.9209 c 0,0 24.0179,-1.9073 40.3999,-13.3109 l 24.3397,14.6371 z"
     id="path65630-3"
     sodipodi:nodetypes="ccccc" />
  <path
     style="fill:#005242;fill-opacity:1;stroke:none;stroke-width:1px;stroke-linecap:butt;stroke-linejoin:miter;stroke-opacity:1"
     d="m 183.3111,590.23134 -22.9849,-12.8665 c 0,0 3.9258,73.2535 -0.4294,149.2341 l 22.0807,-18.401 z"
     id="path66149-4"
     sodipodi:nodetypes="ccccc" />
  <path
     style="fill:#005242;fill-opacity:1;stroke:none;stroke-width:1px;stroke-linecap:butt;stroke-linejoin:miter;stroke-opacity:1"
     d="m 167.2319,726.59894 -37.7729,-35.2628 52.5185,16.8618 z"
     id="path67539-4"
     sodipodi:nodetypes="cccc" />
  <path
     style="fill:#005242;fill-opacity:1;stroke:none;stroke-width:1px;stroke-linecap:butt;stroke-linejoin:miter;stroke-opacity:1"
     d="m 99.539,656.89734 -22.1767,-18.3981 c 0,0 40.7453,4.4105 109.1401,-16.0648 l 28.7853,13.3035 z"
     id="path103691-8"
     sodipodi:nodetypes="ccccc" />
  <path
     style="fill:#005242;fill-opacity:1;stroke:none;stroke-width:1px;stroke-linecap:butt;stroke-linejoin:miter;stroke-opacity:1"
     d="M 108.4147,574.07984 86.238,555.68174 c 0,0 40.2313,-0.1354 85.6822,-13.8644 l 28.7852,13.3035 z"
     id="path104318-1"
     sodipodi:nodetypes="ccccc" />
  <rect
     y="5e-07"
     x="1.8679204"
     height="214.46147"
     width="214.46147"
     id="rect54640"
     style="fill:#ffffff;fill-opacity:1;stroke:#000000;stroke-width:0;stroke-linecap:square;stroke-linejoin:miter;stroke-miterlimit:4;stroke-dasharray:none;stroke-dashoffset:0;stroke-opacity:1;paint-order:stroke markers fill"
     inkscape:export-xdpi="300"
     inkscape:export-ydpi="300"
     inkscape:export-filename="C:\Users\yasus\OneDrive\ドキュメント\文字・言語\悠里\机戦\cerke_online_picture\random.png" />
  <path
     style="fill:#222222;fill-opacity:1;stroke:none;stroke-width:1px;stroke-linecap:butt;stroke-linejoin:miter;stroke-opacity:1"
     d="M 47.0864,87.632835 33.2106,117.07434 11.07323,58.576135 Z"
     id="path55380"
     sodipodi:nodetypes="cccc"
     inkscape:transform-center-x="-2.82912"
     inkscape:transform-center-y="-6.60128" />
  <path
     style="fill:#222222;fill-opacity:1;stroke:none;stroke-width:1px;stroke-linecap:butt;stroke-linejoin:miter;stroke-opacity:1"
     d="m 86.322,42.196335 20.5607,22.8823 -34.9403,49.582105 -2.5696,-0.8423 c 0,0 20.8004,-24.068505 15.0267,-67.868405 z"
     id="path55910"
     sodipodi:nodetypes="cccccc" />
  <path
     style="fill:#222222;fill-opacity:1;stroke:none;stroke-width:1px;stroke-linecap:butt;stroke-linejoin:miter;stroke-opacity:1"
     d="M 25.6259,126.26224 3.4493005,107.86414 c 0,0 21.6294995,5.6189 90.0242995,-14.856405 l 28.7853,13.303505 z"
     id="path56760"
     sodipodi:nodetypes="ccccc" />
  <path
     style="fill:#222222;fill-opacity:1;stroke:none;stroke-width:1px;stroke-linecap:butt;stroke-linejoin:miter;stroke-opacity:1"
     d="m 49.126501,36.957535 7.174199,-6.8856 17.7456,22.686 c 0,0 -0.8125,93.672305 -63.12047,138.990505 l -8.8186095,-10.6843 c 0,0 62.6602795,-42.7485 47.0192805,-144.106605 z"
     id="path58416"
     sodipodi:nodetypes="cccccc" />
  <path
     style="fill:#222222;fill-opacity:1;stroke:none;stroke-width:1px;stroke-linecap:butt;stroke-linejoin:miter;stroke-opacity:1"
     d="m 96.0528,140.81754 -13.8757,29.4414 -22.1374,-58.4981 z"
     id="path60854"
     sodipodi:nodetypes="cccc"
     inkscape:transform-center-x="-2.82912"
     inkscape:transform-center-y="-6.60128" />
  <path
     style="fill:#222222;fill-opacity:1;stroke:none;stroke-width:1px;stroke-linecap:butt;stroke-linejoin:miter;stroke-opacity:1"
     d="m 111.2822,61.117335 8.7292,-8.1147 15.2308,22.6861 c 0,0 6.0755,82.071305 -51.786099,123.833005 L 74.6375,188.83744 c 0,0 49.771,-35.7057 36.6447,-127.720105 z"
     id="path63571"
     sodipodi:nodetypes="cccccc" />
  <path
     style="fill:#222222;fill-opacity:1;stroke:none;stroke-width:1px;stroke-linecap:butt;stroke-linejoin:miter;stroke-opacity:1"
     d="m 137.3911,85.748835 -18.1357,-17.9209 c 0,0 24.0179,-1.9073 40.4,-13.3109 l 24.3397,14.6371 z"
     id="path65630"
     sodipodi:nodetypes="ccccc" />
  <path
     style="fill:#222222;fill-opacity:1;stroke:none;stroke-width:1px;stroke-linecap:butt;stroke-linejoin:miter;stroke-opacity:1"
     d="m 183.9951,69.154135 -22.9849,-12.8665 c 0,0 3.9257,73.253505 -0.4294,149.234105 l 22.0806,-18.401 z"
     id="path66149"
     sodipodi:nodetypes="ccccc" />
  <path
     style="fill:#222222;fill-opacity:1;stroke:none;stroke-width:1px;stroke-linecap:butt;stroke-linejoin:miter;stroke-opacity:1"
     d="m 167.9159,205.52174 -37.773,-35.2628 52.5186,16.8618 z"
     id="path67539"
     sodipodi:nodetypes="cccc" />
  <path
     style="fill:#222222;fill-opacity:1;stroke:none;stroke-width:1px;stroke-linecap:butt;stroke-linejoin:miter;stroke-opacity:1"
     d="m 100.2229,135.82014 -22.1766,-18.3981 c 0,0 40.7453,4.4105 109.1401,-16.0648 l 28.7852,13.3035 z"
     id="path103691"
     sodipodi:nodetypes="ccccc" />
  <path
     style="fill:#222222;fill-opacity:1;stroke:none;stroke-width:1px;stroke-linecap:butt;stroke-linejoin:miter;stroke-opacity:1"
     d="M 109.0986,53.002635 86.922,34.604535 c 0,0 40.2313,-0.1354 85.6821,-13.8644 l 28.7853,13.3035 z"
     id="path104318"
     sodipodi:nodetypes="ccccc" />
  <path
     id="path54642"
     style="fill:#222222;fill-opacity:1;stroke-width:1.35685;paint-order:fill markers stroke"
     d="M 1.8678705,2.3511914e-4 V 214.46124 H 216.3288 V 2.3511914e-4 Z M 16.8073,14.939735 H 201.3894 V 199.52174 H 150.1048 16.8073 Z"
     sodipodi:nodetypes="ccccccccccc" />
</svg>
