<?xml version="1.0" encoding="UTF-8" standalone="no"?>
<svg
   xmlns:dc="http://purl.org/dc/elements/1.1/"
   xmlns:cc="http://creativecommons.org/ns#"
   xmlns:rdf="http://www.w3.org/1999/02/22-rdf-syntax-ns#"
   xmlns:svg="http://www.w3.org/2000/svg"
   xmlns="http://www.w3.org/2000/svg"
   xmlns:sodipodi="http://sodipodi.sourceforge.net/DTD/sodipodi-0.dtd"
   xmlns:inkscape="http://www.inkscape.org/namespaces/inkscape"
   width="73.446892mm"
   height="12.83136mm"
   viewBox="0 0 73.446892 12.83136"
   version="1.1"
   id="svg8"
   inkscape:version="1.0.1 (3bc2e813f5, 2020-09-07)"
   sodipodi:docname="cerke_online_liparxe.svg"
   inkscape:export-filename="D:\cetkaik\cerke_online\media_drafts\cerke_online_liparxe.png"
   inkscape:export-xdpi="457.88"
   inkscape:export-ydpi="457.88">
  <defs
     id="defs2">
    <rect
       x="51.850288"
       y="88.198944"
       width="80.715401"
       height="118.66767"
       id="rect835" />
    <rect
       x="51.850288"
       y="88.198944"
       width="80.715401"
       height="118.66767"
       id="rect843" />
  </defs>
  <sodipodi:namedview
     id="base"
     pagecolor="#ffffff"
     bordercolor="#666666"
     borderopacity="1.0"
     inkscape:pageopacity="0.0"
     inkscape:pageshadow="2"
     inkscape:zoom="1.979899"
     inkscape:cx="202.70655"
     inkscape:cy="137.98778"
     inkscape:document-units="mm"
     inkscape:current-layer="layer1"
     inkscape:document-rotation="0"
     showgrid="false"
     inkscape:window-width="1902"
     inkscape:window-height="1030"
     inkscape:window-x="0"
     inkscape:window-y="0"
     inkscape:window-maximized="0"
     fit-margin-top="0"
     fit-margin-left="0"
     fit-margin-right="0"
     fit-margin-bottom="-45" />
  <metadata
     id="metadata5">
    <rdf:RDF>
      <cc:Work
         rdf:about="">
        <dc:format>image/svg+xml</dc:format>
        <dc:type
           rdf:resource="http://purl.org/dc/dcmitype/StillImage" />
        <dc:title></dc:title>
      </cc:Work>
    </rdf:RDF>
  </metadata>
  <g
     inkscape:label="レイヤー 1"
     inkscape:groupmode="layer"
     id="layer1"
     transform="translate(-50.151865,-58.052124)">
    <text
       xml:space="preserve"
       id="text833"
       style="font-style:normal;font-weight:normal;font-size:11.2889px;line-height:1.45;font-family:sans-serif;white-space:pre;shape-inside:url(#rect835);fill:#000000;fill-opacity:1;stroke:none;"><tspan
         x="51.849609"
         y="99.31614"><tspan
           style="font-style:italic;font-variant:normal;font-weight:normal;font-stretch:normal;font-size:11.2889px;font-family:Cirlxarli_liparxe;-inkscape-font-specification:'Cirlxarli_liparxe Italic'">cerke firmenj
</tspan></tspan><tspan
         x="51.849609"
         y="115.79529"><tspan
           style="font-style:italic;font-variant:normal;font-weight:normal;font-stretch:normal;font-size:11.2889px;font-family:Cirlxarli_liparxe;-inkscape-font-specification:'Cirlxarli_liparxe Italic'">.</tspan></tspan></text>
    <g
       aria-label="cerke firmenj
."
       transform="translate(0,-32.808348)"
       id="text841"
       style="font-style:normal;font-weight:normal;font-size:11.2889px;line-height:1.45;font-family:sans-serif;white-space:pre;shape-inside:url(#rect843);fill:#000000;fill-opacity:1;stroke:none">
      <path
         d="m 54.715932,93.660666 q -0.56224,0 -0.881946,0.06614 -0.30868,0.06615 -0.529167,0.17639 -0.220486,0.110243 -0.418924,0.15434 h -0.01102 q -0.143316,-0.06615 -0.132292,-0.242535 h -0.198438 l -0.48507,1.830037 h 0.176389 q 0.341754,-0.760678 0.837849,-1.157554 0.518142,-0.385851 1.025261,-0.385851 0.496094,0 0.826824,0.33073 0.341754,0.330729 0.341754,0.837848 0,0.15434 -0.05512,0.374827 -0.308681,0.760677 -1.212675,1.245747 -0.903994,0.48507 -1.554429,0.496095 v 0.132291 0.275608 q 0.220487,-0.02205 0.319706,-0.02205 0.804775,0 1.190626,0.396875 0.396875,0.396876 0.396875,1.014237 0,0.859889 -0.617361,1.631599 -0.606338,0.78272 -1.422137,0.78272 h -0.03307 q -0.617362,0 -1.124481,-0.33073 -0.507118,-0.33073 -0.782726,-0.78272 l -0.220486,0.24253 q 0.23151,0.66146 0.782726,1.02526 0.540192,0.36381 1.190626,0.36381 1.025262,0 1.951304,-0.69454 0.937067,-0.69453 1.201651,-1.631591 0.06615,-0.308681 0.06615,-0.584289 0,-1.223699 -1.344967,-1.620575 1.896183,-0.848872 2.204864,-2.006425 0.05512,-0.242535 0.05512,-0.4079 0,-0.617362 -0.463021,-1.058334 -0.451997,-0.440973 -1.080383,-0.451997 z"
         style="font-style:italic;font-variant:normal;font-weight:normal;font-stretch:normal;font-size:11.2889px;font-family:Cirlxarli_liparxe;-inkscape-font-specification:'Cirlxarli_liparxe Italic'"
         id="path845" />
      <path
         d="m 61.132084,93.715787 -0.815799,3.042712 q -1.521356,1.995401 -2.315107,1.995401 -0.374827,0 -0.374827,-0.440973 0,-0.121267 0.03307,-0.253559 l 0.837848,-3.152955 q 0.08819,-0.407899 0.08819,-0.584288 0,-0.606338 -0.463021,-0.606338 -0.418924,0 -0.793751,0.275608 -0.363803,0.264584 -0.915018,1.146529 l 0.121267,0.08819 q 0.198438,-0.33073 0.440973,-0.540192 0.242535,-0.220486 0.396875,-0.220486 0.154341,0 0.154341,0.23151 0,0.143316 -0.0441,0.319706 l -0.815799,3.042711 q -0.03307,0.176389 -0.03307,0.396875 0,0.727605 0.396875,0.859897 0.06615,0.03307 0.264584,0.03307 1.267796,0 2.844274,-1.929255 l -0.154341,0.584288 q -0.121267,0.363803 -0.121267,0.73863 0,0.606337 0.463021,0.606337 0.418924,0 0.782727,-0.264584 0.374826,-0.275608 0.926042,-1.157553 l -0.132292,-0.08819 q -0.198437,0.330729 -0.440972,0.551215 -0.231511,0.209462 -0.385851,0.209462 -0.165365,0 -0.165365,-0.23151 0,-0.08819 0.03307,-0.220487 l 1.179602,-4.431775 z"
         style="font-style:italic;font-variant:normal;font-weight:normal;font-stretch:normal;font-size:11.2889px;font-family:Cirlxarli_liparxe;-inkscape-font-specification:'Cirlxarli_liparxe Italic'"
         id="path847" />
      <path
         d="m 65.211082,90.893562 -0.694532,0.110243 -1.411113,0.209462 v 0.110243 q 0.09922,-0.01102 0.264584,-0.01102 0.595313,0 0.595313,0.418924 0,0.132292 -0.02205,0.220486 l -1.631599,6.05235 q -0.121267,0.363803 -0.121267,0.73863 0,0.595313 0.463021,0.595313 0.418924,0 0.782727,-0.264584 0.374826,-0.275608 0.926042,-1.157553 l -0.121267,-0.08819 q -0.198438,0.33073 -0.440973,0.551216 -0.242535,0.209462 -0.396875,0.209462 -0.154341,0 -0.154341,-0.231511 0,-0.132291 0.02205,-0.220486 l 1.135504,-4.222313 z"
         style="font-style:italic;font-variant:normal;font-weight:normal;font-stretch:normal;font-size:11.2889px;font-family:Cirlxarli_liparxe;-inkscape-font-specification:'Cirlxarli_liparxe Italic'"
         id="path849" />
      <path
         d="m 65.630006,93.693738 v 0.440973 h 0.749653 l -1.400088,5.214502 h 0.992189 l 1.400088,-5.214502 h 2.315106 l -1.080383,4.023876 q -0.08819,0.4079 -0.08819,0.584289 0,0.606337 0.463021,0.606337 0.418924,0 0.782727,-0.264584 0.374826,-0.275608 0.926042,-1.157553 L 70.5689,97.838882 q -0.198438,0.330729 -0.440973,0.551215 -0.242535,0.209462 -0.396875,0.209462 -0.154341,0 -0.154341,-0.23151 0,-0.143316 0.0441,-0.319705 l 1.058334,-3.913633 h 0.727605 v -0.440973 z"
         style="font-style:italic;font-variant:normal;font-weight:normal;font-stretch:normal;font-size:11.2889px;font-family:Cirlxarli_liparxe;-inkscape-font-specification:'Cirlxarli_liparxe Italic'"
         id="path851" />
      <path
         d="m 76.169252,93.715787 -0.815799,3.042712 q -1.521356,1.995401 -2.315107,1.995401 -0.374827,0 -0.374827,-0.440973 0,-0.121267 0.03307,-0.253559 l 0.837848,-3.152955 q 0.08819,-0.407899 0.08819,-0.584288 0,-0.606338 -0.463021,-0.606338 -0.418924,0 -0.793751,0.275608 -0.363803,0.264584 -0.915018,1.146529 l 0.121267,0.08819 q 0.198438,-0.33073 0.440973,-0.540192 0.242535,-0.220486 0.396875,-0.220486 0.154341,0 0.154341,0.23151 0,0.143316 -0.0441,0.319706 l -0.815799,3.042711 q -0.03307,0.176389 -0.03307,0.396875 0,0.727605 0.396875,0.859897 0.06615,0.03307 0.264584,0.03307 1.267796,0 2.844274,-1.929255 l -0.154341,0.584288 q -0.121267,0.363803 -0.121267,0.73863 0,0.606337 0.463021,0.606337 0.418924,0 0.782727,-0.264584 0.374826,-0.275608 0.926042,-1.157553 l -0.132292,-0.08819 q -0.198437,0.330729 -0.440972,0.551215 -0.231511,0.209462 -0.385851,0.209462 -0.165365,0 -0.165365,-0.23151 0,-0.08819 0.03307,-0.220487 l 1.179602,-4.431775 z"
         style="font-style:italic;font-variant:normal;font-weight:normal;font-stretch:normal;font-size:11.2889px;font-family:Cirlxarli_liparxe;-inkscape-font-specification:'Cirlxarli_liparxe Italic'"
         id="path853" />
      <path
         d="m 84.393391,93.627593 q -0.352778,0 -0.705556,0.07717 -0.352778,0.07717 -0.749653,0.253559 -0.396876,0.165365 -0.705557,0.518143 -0.297656,0.341754 -0.429948,0.826824 l -1.058334,3.968754 h 0.992188 l 1.091407,-4.101046 h 0.01103 q 0.110243,-0.4079 0.56224,-0.826824 0.463021,-0.418924 0.915018,-0.429948 0.385851,0.01102 0.628386,0.330729 0.242535,0.319706 0.242535,0.694532 0,0.121268 -0.03307,0.231511 l -0.01102,0.06615 q 0,0.01102 -0.01102,0.03307 -0.01103,0.02205 -0.01103,0.03307 l -0.959115,3.593927 h 0.992188 l 0.959116,-3.593927 v -0.01103 l 0.0441,-0.121267 q 0.110243,-0.4079 0.56224,-0.826824 0.463022,-0.418924 0.915019,-0.429948 0.385851,0.01102 0.628386,0.330729 0.242535,0.319706 0.242535,0.694532 0,0.121268 -0.03307,0.231511 h 0.01102 l -0.981164,3.649049 -5.677523,1.378041 v 0.011 q -1.036286,0.26458 -1.94028,1.79696 l 0.286632,-0.011 q 0.429948,-0.55122 0.903994,-0.83785 0.396875,-0.23151 0.749654,-0.25356 h 0.06615 q 0.341753,0 0.837848,0.17639 0.451997,0.14332 0.870921,0.3638 0.429948,0.20947 1.025261,0.4079 0.628386,0.19844 1.234724,0.23151 0.705556,-0.0331 1.234723,-0.45199 0.584289,-0.452 1.135505,-1.40009 l -0.275608,0.011 q -0.48507,0.58429 -1.003213,0.8599 -0.429948,0.20946 -0.771702,0.22049 -0.02205,0 -0.07717,-0.011 -0.05512,0 -0.08819,0 -0.451997,-0.0331 -0.926043,-0.20946 -0.529167,-0.19844 -0.915018,-0.4079 -0.374827,-0.20946 -0.937067,-0.38585 l 5.225526,-1.267795 -0.01102,-0.0441 0.981164,-3.693146 q 0.02205,-0.154341 0.02205,-0.220487 0,-0.650434 -0.551216,-1.04731 -0.540192,-0.407899 -1.168578,-0.407899 h -0.01102 Q 86.53214,93.649643 85.815559,94.23393 85.562,93.947298 85.176149,93.792957 84.801322,93.627593 84.43752,93.627593 Z"
         style="font-style:italic;font-variant:normal;font-weight:normal;font-stretch:normal;font-size:11.2889px;font-family:Cirlxarli_liparxe;-inkscape-font-specification:'Cirlxarli_liparxe Italic'"
         id="path855" />
      <path
         d="m 92.011197,93.715787 -0.705557,0.110243 -1.400088,0.220487 -0.01102,0.110243 q 0.09922,-0.01103 0.275608,-0.01103 0.595313,0 0.595313,0.418925 0,0.09922 -0.03307,0.23151 l -1.223699,4.553043 h 0.992188 l 0.8158,-3.053736 q 1.53238,-1.984377 2.315106,-1.984377 0.374827,0 0.374827,0.440973 0,0.132292 -0.03307,0.264584 l -0.837848,3.14193 q -0.08819,0.4079 -0.08819,0.584289 0,0.606337 0.463022,0.606337 0.418924,0 0.782726,-0.264584 0.374827,-0.275608 0.926043,-1.157553 l -0.121268,-0.08819 q -0.198437,0.330729 -0.440972,0.551215 -0.242535,0.209462 -0.396876,0.209462 -0.15434,0 -0.15434,-0.23151 0,-0.143316 0.0441,-0.319705 l 0.8158,-3.042712 q 0.03307,-0.176389 0.03307,-0.396875 0,-0.727605 -0.396876,-0.859897 -0.06615,-0.03307 -0.264583,-0.03307 -1.267797,0 -2.844274,1.918231 z"
         style="font-style:italic;font-variant:normal;font-weight:normal;font-stretch:normal;font-size:11.2889px;font-family:Cirlxarli_liparxe;-inkscape-font-specification:'Cirlxarli_liparxe Italic'"
         id="path857" />
      <path
         d="m 98.361201,90.893562 -0.694532,0.110243 -1.411113,0.209462 v 0.110243 q 0.09922,-0.01102 0.264584,-0.01102 0.595313,0 0.595313,0.418924 0,0.132292 -0.02205,0.220486 l -1.631599,6.05235 q -0.121267,0.363803 -0.121267,0.73863 0,0.595313 0.463021,0.595313 0.418924,0 0.782727,-0.264584 0.374826,-0.275608 0.926042,-1.157553 l -0.121267,-0.08819 q -0.198438,0.33073 -0.440973,0.551216 -0.242535,0.209462 -0.396875,0.209462 -0.154341,0 -0.154341,-0.231511 0,-0.132291 0.02205,-0.220486 l 1.135504,-4.222313 z"
         style="font-style:italic;font-variant:normal;font-weight:normal;font-stretch:normal;font-size:11.2889px;font-family:Cirlxarli_liparxe;-inkscape-font-specification:'Cirlxarli_liparxe Italic'"
         id="path859" />
      <path
         d="m 100.06192,91.720386 q -0.0331,0 -0.0992,-0.02205 -0.0441,-0.0441 -0.0551,-0.06615 l -0.011,-0.03307 -0.20947,0.01102 -0.440968,1.631599 v 0.01102 l -0.01102,0.01102 h 0.209462 q 0.628386,-1.058334 1.311896,-1.543404 0.69453,-0.496094 1.31187,-0.496094 0.56224,0 0.88194,0.352778 0.23152,0.253559 0.23152,0.573264 0,0.110243 -0.0331,0.242535 -0.0992,0.396876 -0.51814,0.727605 -0.37483,0.308681 -1.09139,0.529167 h -0.0441 q -0.88194,0 -1.74184,0.584289 -1.047308,0.716581 -1.510329,1.86311 -0.25356,0.63941 -0.25356,1.190626 0,0.496094 0.176389,0.892969 0.396876,0.926043 1.41111,1.069359 h 0.011 q 0.11025,0.02205 0.35278,0.02205 0.83785,0 1.71979,-0.595313 1.08037,-0.716581 1.54339,-1.86311 l 0.011,-0.02205 q 0.23151,-0.617362 0.23151,-1.146529 0,-0.507119 -0.18741,-0.915019 -0.27561,-0.63941 -0.88195,-0.903994 0.66146,-0.132292 1.10243,-0.429948 0.47405,-0.308681 0.66146,-1.003213 l 0.0331,-0.121267 v -0.09922 q 0,-0.628386 -0.45199,-0.948091 -0.4961,-0.363803 -1.28985,-0.363803 -1.34494,0 -2.37021,0.859897 z m 1.35599,2.282033 q 0.0882,0 0.13229,0.01103 0.51812,0.08819 0.70553,0.804775 0.0772,0.297656 0.0772,0.650434 0,0.48507 -0.14331,0.981165 v 0.01102 q -0.0662,0.242535 -0.16537,0.496094 -0.34173,0.826824 -0.90396,1.389064 -0.56225,0.540192 -1.06937,0.540192 h -0.011 -0.0662 q 0,0 -0.0331,0 l -0.0221,-0.01102 q -0.562243,-0.08819 -0.760681,-0.771702 -0.08819,-0.319705 -0.08819,-0.63941 0,-0.474046 0.165365,-1.025262 v -0.01102 q 0.06615,-0.220486 0.176389,-0.496094 0.352777,-0.848873 0.892967,-1.37804 0.57327,-0.551216 1.09142,-0.551216 h 0.011 z"
         style="font-style:italic;font-variant:normal;font-weight:normal;font-stretch:normal;font-size:11.2889px;font-family:Cirlxarli_liparxe;-inkscape-font-specification:'Cirlxarli_liparxe Italic'"
         id="path861" />
      <path
         d="m 108.09862,93.715787 -0.8158,3.042712 q -1.52135,1.995401 -2.31511,1.995401 -0.37482,0 -0.37482,-0.440973 0,-0.121267 0.0331,-0.253559 l 0.83785,-3.152955 q 0.0882,-0.407899 0.0882,-0.584288 0,-0.606338 -0.46302,-0.606338 -0.41892,0 -0.79375,0.275608 -0.3638,0.264584 -0.91502,1.146529 l 0.12127,0.08819 q 0.19844,-0.33073 0.44097,-0.540192 0.24254,-0.220486 0.39688,-0.220486 0.15434,0 0.15434,0.23151 0,0.143316 -0.0441,0.319706 l -0.8158,3.042711 q -0.0331,0.176389 -0.0331,0.396875 0,0.727605 0.39688,0.859897 0.0661,0.03307 0.26458,0.03307 1.2678,0 2.84427,-1.929255 l -0.15434,0.584288 q -0.12127,0.363803 -0.12127,0.73863 0,0.606337 0.46303,0.606337 0.41892,0 0.78272,-0.264584 0.37483,-0.275608 0.92604,-1.157553 l -0.13229,-0.08819 q -0.19843,0.330729 -0.44097,0.551215 -0.23151,0.209462 -0.38585,0.209462 -0.16537,0 -0.16537,-0.23151 0,-0.08819 0.0331,-0.220487 l 1.1796,-4.431775 z"
         style="font-style:italic;font-variant:normal;font-weight:normal;font-stretch:normal;font-size:11.2889px;font-family:Cirlxarli_liparxe;-inkscape-font-specification:'Cirlxarli_liparxe Italic'"
         id="path863" />
      <path
         d="m 111.75869,93.715787 -0.70555,0.110243 -1.40009,0.220487 -0.011,0.110243 q 0.0992,-0.01103 0.27561,-0.01103 0.59531,0 0.59531,0.418925 0,0.09922 -0.0331,0.23151 l -1.2237,4.553043 h 0.99219 l 0.70556,-2.65686 h 1.31189 q -0.0772,0.319705 -0.0772,0.672483 0,0.48507 0.17639,0.881945 0.39688,0.926043 1.41111,1.069359 h 0.011 q 0.11024,0.02205 0.34175,0.02205 0.87092,0 1.73082,-0.584289 1.08038,-0.716581 1.5434,-1.874134 v -0.02205 q 0.24254,-0.63941 0.24254,-1.146529 0,-0.507118 -0.18742,-0.915018 -0.39687,-0.892969 -1.42213,-1.04731 l -0.011,-0.01102 q -0.22048,-0.02205 -0.33073,-0.02205 -0.87092,0 -1.74184,0.595313 -1.04731,0.716581 -1.51033,1.86311 0,0.01102 -0.011,0.03307 l -0.022,0.0441 h -1.33394 z m 3.84749,0.352778 q 0.0992,0 0.14332,0.01102 0.51814,0.08819 0.70555,0.804775 0.0772,0.297656 0.0772,0.650434 0,0.48507 -0.14331,0.981165 v 0.01102 q -0.0662,0.253559 -0.16537,0.496094 -0.34175,0.826824 -0.90399,1.389064 -0.56224,0.540192 -1.06936,0.540192 h -0.011 -0.0772 -0.0441 q -0.56224,-0.07717 -0.76068,-0.782727 -0.0882,-0.319705 -0.0882,-0.63941 0,-0.518143 0.15434,-1.025262 l 0.011,-0.01102 q 0.0661,-0.220486 0.17639,-0.496094 0.35278,-0.848873 0.89297,-1.37804 0.57326,-0.551216 1.0914,-0.551216 z"
         style="font-style:italic;font-variant:normal;font-weight:normal;font-stretch:normal;font-size:11.2889px;font-family:Cirlxarli_liparxe;-inkscape-font-specification:'Cirlxarli_liparxe Italic'"
         id="path865" />
      <path
         d="m 122.60662,93.682714 -0.8158,3.042712 q -1.52135,1.995401 -2.3151,1.995401 -0.37483,0 -0.37483,-0.440973 0,-0.121267 0.0331,-0.253559 l 0.83785,-3.152955 q 0.0882,-0.407899 0.0882,-0.584288 0,-0.606338 -0.46302,-0.606338 -0.41893,0 -0.79376,0.275608 -0.3638,0.264584 -0.91501,1.146529 l 0.12126,0.08819 q 0.19844,-0.33073 0.44098,-0.540192 0.24253,-0.220486 0.39687,-0.220486 0.15434,0 0.15434,0.23151 0,0.143316 -0.0441,0.319706 l -0.8158,3.042711 q -0.0331,0.176389 -0.0331,0.396875 0,0.727605 0.39688,0.859897 0.0661,0.03307 0.26458,0.03307 1.2678,0 2.84428,-1.929255 l -0.91502,3.417533 q -0.12127,0.36381 -0.12127,0.72761 0,0.60634 0.46302,0.60634 0.41893,0 0.78273,-0.27561 0.37482,-0.26459 0.92604,-1.14653 l -0.12127,-0.0882 q -0.19843,0.33073 -0.44097,0.5402 -0.24253,0.22048 -0.39688,0.22048 -0.15434,0 -0.15434,-0.23151 0,-0.13229 0.022,-0.22049 l 1.94028,-7.253994 z"
         style="font-style:italic;font-variant:normal;font-weight:normal;font-stretch:normal;font-size:11.2889px;font-family:Cirlxarli_liparxe;-inkscape-font-specification:'Cirlxarli_liparxe Italic'"
         id="path867" />
    </g>
  </g>
</svg>
