<?xml version="1.0" encoding="utf-8"?>
<svg viewBox="0 0 500 500" xmlns="http://www.w3.org/2000/svg">
  <rect width="500" height="500" style="fill: rgb(255, 255, 255);"/>
  <rect x="24.935" y="41.156" width="410" height="410" style="stroke-width: 33px; fill: none; stroke: rgb(0,0, 0);" transform="matrix(1, 0, 0.005001, 1, 19.247021, 3.243634)"/>
  <path style="stroke: rgb(212, 55, 0); fill: rgb(212, 55, 0);" d="M 126.442 301.086 C 138.916 248.886 135.331 224.054 132.794 190.498 C 131.782 177.11 128.495 122.762 117.89 108.106 C 117.89 108.106 176.436 140.237 175.893 142.493 C 175.348 144.747 170.422 330.976 169.894 329.849 C 169.365 328.722 125.905 301.649 126.442 301.086 Z" transform="matrix(0.990977, -0.134035, 0.134035, 0.990977, -28.025496, 21.664786)"/>
  <path style="stroke: rgb(212, 55, 0); fill: rgb(212, 55, 0);" d="M 138.042 143.458 C 138.042 143.458 181.384 181.781 183.324 181.19 C 185.264 180.6 364.451 138.153 360.568 135.795 C 356.688 133.436 337.281 118.698 323.051 99.832 C 323.051 99.832 255.344 128.918 222.782 135.206 C 195.645 140.448 166.556 147.746 138.042 143.458 Z"/>
  <path style="stroke: rgb(212, 55, 0); fill: rgb(212, 55, 0);" d="M 309.987 281.362 C 310.584 281.362 319.973 211.627 317.647 174.908 C 315.32 138.19 308.201 133.384 307.605 132.794 C 307.009 132.206 360.631 136.371 360.631 136.371 C 360.631 136.371 354.674 318.502 353.483 314.375 C 352.291 310.25 327.862 291.384 309.987 281.362 Z"/>
  <path style="stroke: rgb(212, 55, 0); fill: rgb(212, 55, 0);" d="M 215.792 280.824 C 219.902 267.271 223.675 244.681 227.112 215.384 C 230.212 188.972 228.502 181.582 231.879 155.84 C 231.879 155.84 276.564 169.989 276.564 171.167 C 276.564 172.347 233.071 284.949 233.071 284.949 C 233.071 284.949 214.004 281.413 215.792 280.824 Z" transform="matrix(0.994335, -0.106292, 0.106292, 0.994335, -22.031899, 27.409007)"/>
  <path style="stroke: rgb(212, 55, 0); fill: rgb(212, 55, 0);" d="M 155.615 223.683 C 155.615 223.683 200.091 254.338 200.717 253.112 C 201.343 251.886 338.529 214.487 338.529 215.101 C 338.529 215.714 299.692 191.802 299.692 191.802 C 267.117 200.998 234.126 210.603 200.717 220.618 C 187.295 224.64 172.262 225.663 155.615 223.683 Z"/>
  <path style="stroke: rgb(212, 55, 0); fill: rgb(212, 55, 0);" d="M 155.615 279.663 C 155.615 279.663 200.091 310.318 200.717 309.091 C 201.343 307.866 338.529 270.467 338.529 271.079 C 338.529 271.695 299.692 247.781 299.692 247.781 C 267.117 256.977 234.126 266.583 200.717 276.597 C 187.295 280.62 172.262 281.642 155.615 279.663 Z"/>
  <path style="stroke: rgb(212, 55, 0); fill: rgb(212, 55, 0);" d="M 74.151 353.712 C 74.151 353.712 112.607 398.645 113.701 397.185 C 114.795 395.724 430.378 357.997 430.378 358.728 C 430.378 359.459 384.149 319.405 384.149 319.405 C 335.285 335.498 265.167 343.367 207.836 350.584 C 184.075 353.576 103.203 356.069 74.151 353.712 Z" transform="matrix(0.999754, -0.022199, 0.022199, 0.999754, -7.89201, 5.688316)"/>
</svg>