<?xml version="1.0" encoding="UTF-8" standalone="no"?>
<svg
   xmlns:dc="http://purl.org/dc/elements/1.1/"
   xmlns:cc="http://creativecommons.org/ns#"
   xmlns:rdf="http://www.w3.org/1999/02/22-rdf-syntax-ns#"
   xmlns:svg="http://www.w3.org/2000/svg"
   xmlns="http://www.w3.org/2000/svg"
   xmlns:sodipodi="http://sodipodi.sourceforge.net/DTD/sodipodi-0.dtd"
   xmlns:inkscape="http://www.inkscape.org/namespaces/inkscape"
   width="73.446892mm"
   height="12.83136mm"
   viewBox="0 0 73.446892 12.83136"
   version="1.1"
   id="svg8"
   inkscape:version="1.0.1 (3bc2e813f5, 2020-09-07)"
   sodipodi:docname="nystiper'tj.svg"
   inkscape:export-filename="D:\cetkaik\cerke_online\media_drafts\nystiper'tj.png"
   inkscape:export-xdpi="457.88"
   inkscape:export-ydpi="457.88">
  <defs
     id="defs2">
    <rect
       x="51.850288"
       y="88.198944"
       width="80.715401"
       height="118.66767"
       id="rect835" />
    <rect
       x="51.850288"
       y="88.198944"
       width="80.715401"
       height="118.66767"
       id="rect843" />
    <rect
       x="51.850288"
       y="88.198944"
       width="80.715401"
       height="118.66767"
       id="rect1455" />
    <rect
       x="51.850288"
       y="88.198944"
       width="80.715401"
       height="118.66767"
       id="rect890" />
  </defs>
  <sodipodi:namedview
     id="base"
     pagecolor="#ffffff"
     bordercolor="#666666"
     borderopacity="1.0"
     inkscape:pageopacity="0.0"
     inkscape:pageshadow="2"
     inkscape:zoom="2.8"
     inkscape:cx="114.0255"
     inkscape:cy="48.591305"
     inkscape:document-units="mm"
     inkscape:current-layer="layer1"
     inkscape:document-rotation="0"
     showgrid="false"
     inkscape:window-width="1902"
     inkscape:window-height="1028"
     inkscape:window-x="0"
     inkscape:window-y="0"
     inkscape:window-maximized="0"
     fit-margin-top="0"
     fit-margin-left="0"
     fit-margin-right="0"
     fit-margin-bottom="-45" />
  <metadata
     id="metadata5">
    <rdf:RDF>
      <cc:Work
         rdf:about="">
        <dc:format>image/svg+xml</dc:format>
        <dc:type
           rdf:resource="http://purl.org/dc/dcmitype/StillImage" />
        <dc:title />
      </cc:Work>
    </rdf:RDF>
  </metadata>
  <g
     inkscape:label="レイヤー 1"
     inkscape:groupmode="layer"
     id="layer1"
     transform="translate(-50.151865,-58.052124)">
    <text
       xml:space="preserve"
       id="text833"
       style="font-style:normal;font-weight:normal;font-size:11.2889px;line-height:1.45;font-family:sans-serif;white-space:pre;shape-inside:url(#rect835);fill:#000000;fill-opacity:1;stroke:none;"><tspan
         x="51.849609"
         y="99.31614"><tspan
           style="font-style:italic;font-variant:normal;font-weight:normal;font-stretch:normal;font-size:11.2889px;font-family:Cirlxarli_liparxe;-inkscape-font-specification:'Cirlxarli_liparxe Italic'">cerke firmenj
</tspan></tspan><tspan
         x="51.849609"
         y="115.79529"><tspan
           style="font-style:italic;font-variant:normal;font-weight:normal;font-stretch:normal;font-size:11.2889px;font-family:Cirlxarli_liparxe;-inkscape-font-specification:'Cirlxarli_liparxe Italic'">.</tspan></tspan></text>
    <text
       xml:space="preserve"
       id="text1453"
       style="font-style:normal;font-weight:normal;font-size:11.2889px;line-height:1.45;font-family:sans-serif;white-space:pre;shape-inside:url(#rect1455);fill:#000000;fill-opacity:1;stroke:none;"
       transform="translate(0,30.162513)"><tspan
         x="51.849609"
         y="99.31614"><tspan
           style="font-style:italic;font-variant:normal;font-weight:normal;font-stretch:normal;font-size:11.2889px;font-family:Cirlxarli_liparxe;-inkscape-font-specification:'Cirlxarli_liparxe Italic'">nystiper'tj
</tspan></tspan><tspan
         x="51.849609"
         y="115.79529"><tspan
           style="font-style:italic;font-variant:normal;font-weight:normal;font-stretch:normal;font-size:11.2889px;font-family:Cirlxarli_liparxe;-inkscape-font-specification:'Cirlxarli_liparxe Italic'">Fasfa'tj
</tspan></tspan><tspan
         x="51.849609"
         y="132.27444"><tspan
           style="font-style:italic;font-variant:normal;font-weight:normal;font-stretch:normal;font-size:11.2889px;font-family:Cirlxarli_liparxe;-inkscape-font-specification:'Cirlxarli_liparxe Italic'">mena'tj
</tspan></tspan><tspan
         x="51.849609"
         y="148.75358"><tspan
           style="font-style:italic;font-variant:normal;font-weight:normal;font-stretch:normal;font-size:11.2889px;font-family:Cirlxarli_liparxe;-inkscape-font-specification:'Cirlxarli_liparxe Italic'">.</tspan></tspan></text>
    <g
       id="g985"
       transform="translate(0,15.875004)">
      <path
         d="m 54.418275,45.032429 -0.705556,0.110243 -1.400088,0.220487 -0.01103,0.110243 q 0.09922,-0.01103 0.275608,-0.01103 0.595313,0 0.595313,0.418925 0,0.09922 -0.03307,0.23151 l -1.223699,4.553043 h 0.992189 l 0.705556,-2.65686 h 1.311894 q -0.07717,0.319705 -0.07717,0.672483 0,0.48507 0.176389,0.881945 0.396875,0.926043 1.411112,1.069359 h 0.01102 q 0.110244,0.02205 0.341754,0.02205 0.870921,0 1.730818,-0.584289 1.080383,-0.716581 1.543404,-1.874134 v -0.02205 q 0.242535,-0.63941 0.242535,-1.146529 0,-0.507118 -0.187413,-0.915018 -0.396875,-0.892969 -1.422137,-1.04731 l -0.01102,-0.01102 q -0.220487,-0.02205 -0.33073,-0.02205 -0.870921,0 -1.741842,0.595313 -1.04731,0.716581 -1.510331,1.86311 0,0.01102 -0.01102,0.03307 l -0.02205,0.0441 h -1.333942 z m 3.847487,0.352778 q 0.09922,0 0.143316,0.01102 0.518143,0.08819 0.705556,0.804775 0.07717,0.297656 0.07717,0.650434 0,0.48507 -0.143316,0.981165 v 0.01102 q -0.06615,0.253559 -0.165365,0.496094 -0.341753,0.826824 -0.903993,1.389064 -0.562241,0.540192 -1.069359,0.540192 h -0.01102 -0.07717 -0.0441 q -0.56224,-0.07717 -0.760678,-0.782727 -0.08819,-0.319705 -0.08819,-0.63941 0,-0.518143 0.15434,-1.025262 l 0.01102,-0.01102 q 0.06615,-0.220486 0.176389,-0.496094 0.352779,-0.848873 0.89297,-1.37804 0.573265,-0.551216 1.091407,-0.551216 z"
         style="font-style:italic;font-variant:normal;font-weight:normal;font-stretch:normal;font-size:11.2889px;line-height:1.45;font-family:Cirlxarli_liparxe;-inkscape-font-specification:'Cirlxarli_liparxe Italic';white-space:pre;fill:#646464;fill-opacity:1;stroke:none"
         id="path892" />
      <path
         d="m 63.381045,45.021405 q -0.25356,0 -0.683508,0.121267 -0.474046,0.132292 -0.595313,0.143316 -0.03307,0 -0.08819,-0.03307 -0.06615,-0.0441 -0.07717,-0.06615 l -0.02205,-0.03307 h -0.220486 l -0.440973,1.664671 h 0.220487 q 0.694532,-1.411112 1.53238,-1.411112 0.650434,0 0.992188,0.771702 0.220487,0.474046 0.220487,0.97014 0,0.330729 -0.09922,0.694532 l -0.02205,0.08819 q -0.110243,0.451997 -0.264583,0.793751 -0.143317,0.319705 -0.385852,0.694532 -0.23151,0.341754 -0.606337,0.584289 -0.363802,0.231511 -0.837848,0.297657 -0.0441,0.01102 -0.220486,0.01102 -0.496095,0 -0.870921,-0.242535 -0.396876,-0.253559 -0.507119,-0.705556 l -0.231511,0.121267 q 0.143316,0.573265 0.661459,0.870921 0.529168,0.297657 1.157554,0.297657 0.915018,0 1.852085,-0.793751 0.948091,-0.782727 1.234723,-1.819012 0.02205,-0.0441 0.02205,-0.09922 l 0.01102,-0.01102 v -0.01102 h 1.014237 l -0.374826,1.400088 q -0.132292,0.396876 -0.132292,0.73863 0,0.606337 0.463021,0.606337 0.418924,0 0.782727,-0.264584 0.374826,-0.275608 0.926042,-1.157553 l -0.121267,-0.08819 q -0.198438,0.330729 -0.440973,0.551215 -0.242535,0.209462 -0.396875,0.209462 -0.154341,0 -0.154341,-0.23151 0,-0.132292 0.02205,-0.220487 l 1.190626,-4.431775 h -0.992188 l -0.650435,2.447398 h -1.036286 q 0.06615,-0.297656 0.06615,-0.573264 0,-0.198438 -0.03307,-0.374827 -0.08819,-0.551216 -0.363802,-0.848872 -0.297657,-0.33073 -0.650435,-0.48507 -0.352778,-0.176389 -0.793751,-0.176389 z"
         style="font-style:italic;font-variant:normal;font-weight:normal;font-stretch:normal;font-size:11.2889px;line-height:1.45;font-family:Cirlxarli_liparxe;-inkscape-font-specification:'Cirlxarli_liparxe Italic';white-space:pre;fill:#646464;fill-opacity:1;stroke:none"
         id="path894" />
      <path
         d="m 72.00206,45.021405 q -0.25356,0 -0.683508,0.121267 -0.319705,0.132292 -0.915018,0.440973 l 0.15434,-0.551216 -0.705556,0.110243 -1.400088,0.220487 -0.01103,0.110243 q 0.02205,0 0.05512,0 0.03307,-0.01103 0.0441,-0.01103 h 0.176389 q 0.595313,0 0.595313,0.418925 0,0.09922 -0.03307,0.23151 l -1.223699,4.553043 h 0.992189 l 0.132291,-0.507119 q 0.09922,0.09922 0.275608,0.198438 0.529168,0.297657 1.168578,0.297657 0.903994,0 1.852085,-0.793751 0.948091,-0.782727 1.234724,-1.819012 0.01102,-0.02205 0.01102,-0.09922 0,-0.02205 0,-0.05512 0.01102,-0.03307 0.02205,-0.0441 l 0.03307,-0.121268 q 0.121267,-0.463021 0.121267,-0.815799 0,-0.198438 -0.03307,-0.374827 -0.08819,-0.551216 -0.363802,-0.848872 -0.297657,-0.33073 -0.650435,-0.48507 -0.352778,-0.176389 -0.793751,-0.176389 z m -0.374827,0.385851 q 0.650434,0 0.992188,0.771702 0.220487,0.474046 0.220487,0.97014 0,0.374827 -0.08819,0.694532 l -0.03307,0.08819 q -0.110243,0.451997 -0.264583,0.793751 -0.143317,0.319705 -0.385852,0.694532 -0.23151,0.341754 -0.606337,0.584289 -0.363802,0.231511 -0.837848,0.297657 -0.0441,0.01102 -0.220486,0.01102 -0.496095,0 -0.870921,-0.242535 -0.143317,-0.09922 -0.264584,-0.231511 l 0.804775,-3.020663 h 0.02205 q 0.694532,-1.411112 1.53238,-1.411112 z"
         style="font-style:italic;font-variant:normal;font-weight:normal;font-stretch:normal;font-size:11.2889px;line-height:1.45;font-family:Cirlxarli_liparxe;-inkscape-font-specification:'Cirlxarli_liparxe Italic';white-space:pre;fill:#646464;fill-opacity:1;stroke:none"
         id="path896" />
      <path
         d="m 78.815089,45.01038 -3.560855,4.619189 1.234724,-4.59714 -0.705557,0.110243 -1.400088,0.220487 -0.01102,0.110243 q 0.09922,-0.01103 0.275608,-0.01103 0.595313,0 0.595313,0.418925 0,0.09922 -0.03307,0.23151 l -1.223699,4.553043 h 0.97014 l 0.03307,0.03307 3.560854,-4.641237 -0.870921,3.263197 q -0.121268,0.363803 -0.121268,0.73863 0,0.606337 0.463022,0.606337 0.418924,0 0.782726,-0.264584 0.374827,-0.275608 0.926043,-1.157553 l -0.132292,-0.08819 q -0.198438,0.330729 -0.440973,0.551215 -0.23151,0.209462 -0.385851,0.209462 -0.165364,0 -0.165364,-0.23151 0,-0.08819 0.03307,-0.220487 l 1.179602,-4.431775 h -0.97014 z"
         style="font-style:italic;font-variant:normal;font-weight:normal;font-stretch:normal;font-size:11.2889px;line-height:1.45;font-family:Cirlxarli_liparxe;-inkscape-font-specification:'Cirlxarli_liparxe Italic';white-space:pre;fill:#646464;fill-opacity:1;stroke:none"
         id="path898" />
      <path
         d="m 82.486184,45.032429 -0.705556,0.110243 -1.400088,0.220487 -0.01102,0.110243 q 0.09922,-0.01103 0.275608,-0.01103 0.595313,0 0.595313,0.418925 0,0.09922 -0.03307,0.23151 l -1.223699,4.553043 h 0.992188 l 0.815799,-3.053736 q 1.53238,-1.984377 2.315107,-1.984377 0.374827,0 0.374827,0.440973 0,0.132292 -0.03307,0.264584 l -0.837848,3.14193 q -0.08819,0.4079 -0.08819,0.584289 0,0.606337 0.463022,0.606337 0.418924,0 0.782726,-0.264584 0.374827,-0.275608 0.926043,-1.157553 l -0.121268,-0.08819 Q 85.37457,49.486252 85.132035,49.706738 84.8895,49.9162 84.73516,49.9162 q -0.15434,0 -0.15434,-0.23151 0,-0.143316 0.0441,-0.319705 l 0.815799,-3.042712 q 0.03307,-0.176389 0.03307,-0.396875 0,-0.727605 -0.396875,-0.859897 -0.06615,-0.03307 -0.264584,-0.03307 -1.267796,0 -2.844273,1.918231 z"
         style="font-style:italic;font-variant:normal;font-weight:normal;font-stretch:normal;font-size:11.2889px;line-height:1.45;font-family:Cirlxarli_liparxe;-inkscape-font-specification:'Cirlxarli_liparxe Italic';white-space:pre;fill:#646464;fill-opacity:1;stroke:none"
         id="path900" />
      <path
         d="m 88.417268,45.021405 q -0.551216,0 -1.135505,0.617362 -0.606337,0.63941 -0.992188,1.576477 l 0.121267,0.07717 q 0.308681,-0.63941 0.694532,-0.992188 0.4079,-0.374827 0.826824,-0.374827 0.507119,0 0.727605,0.661459 0.08819,0.319705 0.08819,0.650434 0,0.33073 -0.06615,0.672484 l -0.06615,0.264583 q 0,0 0,0.01103 l -0.01103,0.02205 q -0.23151,0.859897 -0.694531,1.477259 -0.48507,0.650434 -0.915019,0.650434 -0.143316,0 -0.253559,-0.05512 -0.110243,-0.05512 -0.121268,-0.176389 -0.02205,-0.07717 -0.02205,-0.220486 0,-0.09922 0.03307,-0.33073 0.03307,-0.220486 0.03307,-0.330729 v -0.06615 q 0,-0.264584 -0.275608,-0.264584 -0.176389,0 -0.341754,0.132292 -0.165365,0.132292 -0.231511,0.352778 -0.03307,0.132292 -0.03307,0.264584 0,0.176389 0.06615,0.363802 0.110243,0.352778 0.319705,0.518143 0.231511,0.132292 0.760678,0.132292 0.672484,-0.01103 1.389064,-0.826824 0.143316,-0.154341 0.25356,-0.319705 0.0441,0.220486 0.07717,0.319705 0.264583,0.826824 0.959115,0.826824 0.56224,0 1.146529,-0.617362 0.584289,-0.617362 0.981164,-1.576477 l -0.110243,-0.07717 q -0.297656,0.617362 -0.705556,0.992189 -0.4079,0.374827 -0.815799,0.374827 -0.518143,0 -0.73863,-0.661459 -0.08819,-0.319705 -0.08819,-0.650435 0,-0.253559 0.07717,-0.661459 0.01102,-0.0441 0.02205,-0.132292 0.02205,-0.08819 0.03307,-0.132292 0,-0.01102 0,-0.02205 0.01102,-0.01103 0.01102,-0.02205 0.231511,-0.837848 0.705556,-1.477258 0.48507,-0.650435 0.903994,-0.650435 0.143316,0 0.253559,0.05512 0.110244,0.05512 0.121268,0.176389 0.03307,0.121267 0.03307,0.220486 0,0.02205 -0.0441,0.330729 -0.03307,0.209463 -0.03307,0.33073 v 0.06615 q 0,0.264583 0.286632,0.264583 0.176389,0 0.341754,-0.132291 0.143316,-0.121268 0.220486,-0.352778 0.03307,-0.132292 0.03307,-0.264584 0,-0.209462 -0.05512,-0.363802 -0.09922,-0.341754 -0.330729,-0.518143 -0.231511,-0.132292 -0.760678,-0.132292 -0.672483,0.01102 -1.389064,0.826824 -0.143316,0.15434 -0.253559,0.319705 -0.0441,-0.220487 -0.07717,-0.319705 -0.264584,-0.826824 -0.959116,-0.826824 z"
         style="font-style:italic;font-variant:normal;font-weight:normal;font-stretch:normal;font-size:11.2889px;line-height:1.45;font-family:Cirlxarli_liparxe;-inkscape-font-specification:'Cirlxarli_liparxe Italic';white-space:pre;fill:#646464;fill-opacity:1;stroke:none"
         id="path902" />
      <path
         d="m 97.115454,45.032429 -0.8158,3.042712 q -1.521356,1.995401 -2.315106,1.995401 -0.374827,0 -0.374827,-0.440973 0,-0.121267 0.03307,-0.253559 l 0.837848,-3.152955 q 0.08819,-0.407899 0.08819,-0.584288 0,-0.606338 -0.463021,-0.606338 -0.418924,0 -0.793751,0.275608 -0.363802,0.264584 -0.915018,1.146529 l 0.121267,0.08819 q 0.198438,-0.33073 0.440973,-0.540192 0.242535,-0.220486 0.396876,-0.220486 0.15434,0 0.15434,0.23151 0,0.143316 -0.0441,0.319706 l -0.8158,3.042711 q -0.03307,0.176389 -0.03307,0.396875 0,0.727605 0.396876,0.859897 0.06615,0.03307 0.264583,0.03307 1.267797,0 2.844274,-1.929255 l -0.15434,0.584288 q -0.121268,0.363803 -0.121268,0.73863 0,0.606337 0.463021,0.606337 0.418924,0 0.782727,-0.264584 0.374827,-0.275608 0.926042,-1.157553 l -0.132291,-0.08819 q -0.198438,0.330729 -0.440973,0.551215 -0.231511,0.209462 -0.385851,0.209462 -0.165365,0 -0.165365,-0.23151 0,-0.08819 0.03307,-0.220487 l 1.179602,-4.431775 z"
         style="font-style:italic;font-variant:normal;font-weight:normal;font-stretch:normal;font-size:11.2889px;line-height:1.45;font-family:Cirlxarli_liparxe;-inkscape-font-specification:'Cirlxarli_liparxe Italic';white-space:pre;fill:#646464;fill-opacity:1;stroke:none"
         id="path904" />
      <path
         d="m 101.19445,42.210204 -0.69453,0.110243 -1.411115,0.209462 v 0.110243 q 0.09922,-0.01102 0.264584,-0.01102 0.595313,0 0.595313,0.418924 0,0.132292 -0.02205,0.220486 l -1.631599,6.05235 q -0.121267,0.363803 -0.121267,0.73863 0,0.595313 0.463021,0.595313 0.418924,0 0.782726,-0.264584 0.374827,-0.275608 0.926047,-1.157553 l -0.12127,-0.08819 q -0.19844,0.33073 -0.440974,0.551216 -0.242535,0.209462 -0.396876,0.209462 -0.15434,0 -0.15434,-0.231511 0,-0.132291 0.02205,-0.220486 l 1.1355,-4.222313 z"
         style="font-style:italic;font-variant:normal;font-weight:normal;font-stretch:normal;font-size:11.2889px;line-height:1.45;font-family:Cirlxarli_liparxe;-inkscape-font-specification:'Cirlxarli_liparxe Italic';white-space:pre;fill:#646464;fill-opacity:1;stroke:none"
         id="path906" />
      <path
         d="m 103.74107,42.210204 -0.60634,0.110243 -1.2237,0.209462 v 0.110243 q 0.0772,-0.01102 0.24254,-0.01102 0.51814,0 0.51814,0.440973 0,0.0441 -0.0221,0.198437 l -0.67248,3.141931 -1.06936,0.981164 0.25356,0.352778 0.67248,-0.628386 -0.47404,2.204863 q -0.0992,0.451997 -0.0992,0.716581 0,0.617362 0.4079,0.617362 0.3638,0 0.67248,-0.264584 0.3197,-0.275608 0.78273,-1.157553 l -0.0992,-0.08819 q -0.16537,0.319705 -0.37483,0.540192 -0.20946,0.220486 -0.34175,0.220486 -0.14332,0 -0.14332,-0.242535 0,-0.05512 0.022,-0.209462 l 0.71658,-3.329344 0.94809,-0.881945 -0.23151,-0.352778 -0.57326,0.529167 0.0441,-0.187413 z"
         style="font-style:italic;font-variant:normal;font-weight:normal;font-stretch:normal;font-size:11.2889px;line-height:1.45;font-family:Cirlxarli_liparxe;-inkscape-font-specification:'Cirlxarli_liparxe Italic';white-space:pre;fill:#646464;fill-opacity:1;stroke:none"
         id="path908" />
      <path
         d="m 108.64689,45.01038 -3.56086,4.619189 1.23473,-4.59714 -0.70556,0.110243 -1.40009,0.220487 -0.011,0.110243 q 0.0992,-0.01103 0.27561,-0.01103 0.59531,0 0.59531,0.418925 0,0.09922 -0.0331,0.23151 l -1.2237,4.553043 h 0.97014 l 0.0331,0.03307 3.56085,-4.641237 -0.87092,3.263197 q -0.12127,0.363803 -0.12127,0.73863 0,0.606337 0.46303,0.606337 0.41892,0 0.78272,-0.264584 0.37483,-0.275608 0.92605,-1.157553 l -0.1323,-0.08819 q -0.19843,0.330729 -0.44097,0.551215 -0.23151,0.209462 -0.38585,0.209462 -0.16536,0 -0.16536,-0.23151 0,-0.08819 0.0331,-0.220487 l 1.1796,-4.431775 h -0.97014 z"
         style="font-style:italic;font-variant:normal;font-weight:normal;font-stretch:normal;font-size:11.2889px;line-height:1.45;font-family:Cirlxarli_liparxe;-inkscape-font-specification:'Cirlxarli_liparxe Italic';white-space:pre;fill:#646464;fill-opacity:1;stroke:none"
         id="path910" />
      <path
         d="m 114.67719,44.999356 -0.8158,3.042712 q -1.52135,1.995401 -2.31511,1.995401 -0.37482,0 -0.37482,-0.440973 0,-0.121267 0.0331,-0.253559 l 0.83785,-3.152955 q 0.0882,-0.407899 0.0882,-0.584288 0,-0.606338 -0.46302,-0.606338 -0.41892,0 -0.79375,0.275608 -0.3638,0.264584 -0.91502,1.146529 l 0.12127,0.08819 q 0.19844,-0.33073 0.44097,-0.540192 0.24254,-0.220486 0.39688,-0.220486 0.15434,0 0.15434,0.23151 0,0.143316 -0.0441,0.319706 l -0.8158,3.042711 q -0.0331,0.176389 -0.0331,0.396875 0,0.727605 0.39687,0.859897 0.0662,0.03307 0.26459,0.03307 1.26779,0 2.84427,-1.929255 l -0.91502,3.417533 q -0.12126,0.36381 -0.12126,0.72761 0,0.60634 0.46302,0.60634 0.41892,0 0.78272,-0.27561 0.37483,-0.26459 0.92605,-1.14653 l -0.12127,-0.0882 q -0.19844,0.33073 -0.44097,0.5402 -0.24254,0.22048 -0.39688,0.22048 -0.15434,0 -0.15434,-0.23151 0,-0.13229 0.0221,-0.22049 l 1.94028,-7.253994 z"
         style="font-style:italic;font-variant:normal;font-weight:normal;font-stretch:normal;font-size:11.2889px;line-height:1.45;font-family:Cirlxarli_liparxe;-inkscape-font-specification:'Cirlxarli_liparxe Italic';white-space:pre;fill:#646464;fill-opacity:1;stroke:none"
         id="path912" />
    </g>
    <g
       id="g995"
       transform="translate(0,15.875004)">
      <path
         d="m 57.207427,61.423382 h -0.03307 q -0.352778,0 -0.71658,0.0772 -0.352778,0.0772 -0.749654,0.25356 -0.385851,0.17639 -0.694532,0.52917 -0.308681,0.34175 -0.440972,0.82682 h 0.01102 l -1.069359,3.95773 h 0.992189 l 1.102431,-4.10104 q 0.110244,-0.4079 0.573265,-0.82683 0.463021,-0.41892 0.915018,-0.42995 0.385851,0.011 0.617362,0.33073 0.242535,0.31971 0.242535,0.69454 0,0.15434 -0.02205,0.23151 l -1.003213,3.75929 -3.682121,1.28984 0.01102,0.022 q -0.881945,0.31971 -1.664672,1.77492 l 0.242535,-0.011 q 0.4079,-0.57326 0.804775,-0.83785 0.363803,-0.25356 0.650435,-0.26458 0.05512,0 0.06615,0.011 0.319705,0 0.705556,0.16537 0.33073,0.13229 0.727605,0.37483 0.308681,0.18741 0.870921,0.4079 0.529167,0.19843 1.036286,0.23151 0.606337,-0.0331 1.080383,-0.46302 0.507118,-0.42995 1.025261,-1.40009 l -0.242535,0.011 q -0.451997,0.59531 -0.892969,0.8599 -0.374827,0.20946 -0.661459,0.22048 h -0.143316 q -0.385852,-0.0331 -0.782727,-0.20946 -0.440973,-0.18741 -0.760678,-0.4079 -0.352778,-0.23151 -0.804775,-0.39687 l -0.09922,-0.0331 3.516757,-1.23472 -0.02205,-0.0661 0.981164,-3.66008 q 0.01102,-0.0772 0.01102,-0.23151 0,-0.63941 -0.540191,-1.03628 -0.529168,-0.4079 -1.157554,-0.41893 z m 0.4079,-2.82222 -1.587502,2.48047 h 0.385852 l 2.8112,-2.48047 z"
         style="font-style:italic;font-variant:normal;font-weight:normal;font-stretch:normal;font-size:11.2889px;line-height:1.45;font-family:Cirlxarli_liparxe;-inkscape-font-specification:'Cirlxarli_liparxe Italic';white-space:pre;fill:#e1624c;fill-opacity:1;stroke:none"
         id="path914" />
      <path
         d="m 63.414118,61.412362 h -0.154341 q 0,0 -2.09462,0 -0.374826,0.0331 -0.694532,0.20946 -0.319705,0.17639 -0.518143,0.42995 -0.198437,0.25356 -0.341753,0.56224 -0.242535,0.52916 -0.308681,1.09141 l 0.165364,0.16536 q 0.02205,-0.0331 0.121268,-0.29766 0.09922,-0.26458 0.143316,-0.35277 0.0441,-0.0992 0.154341,-0.31971 0.110243,-0.23151 0.198437,-0.35278 0.231511,-0.33073 0.463022,-0.46302 l -1.367016,5.00504 h 0.992189 l 0.09922,-0.38585 q 0.573264,0.37483 1.466234,0.37483 0.903994,0 1.807988,-0.59532 0.903994,-0.59531 1.113456,-1.35599 0.165364,-0.7717 0.05512,-1.15755 -0.198437,-0.68351 -1.102431,-0.97014 -0.385851,-0.13229 -0.804776,-0.13229 h -0.05512 q -0.264584,0 -0.672483,0.0882 -0.308681,0.0992 -0.881946,0.33073 l 0.308681,-1.27882 q 0,0 1.896183,0 h 1.76389 q 0.07717,-0.15434 0.198438,-0.59531 z m -1.014237,1.74184 q 0.63941,0 1.04731,0.57326 0.551216,0.76068 0,1.90721 -0.507119,1.04731 -1.719794,1.1796 -0.573264,0.0661 -1.113456,-0.17639 -0.15434,-0.0661 -0.275607,-0.16536 l 0.606337,-2.25999 h 0.01102 q 0.606338,-1.05833 1.444186,-1.05833 z"
         style="font-style:italic;font-variant:normal;font-weight:normal;font-stretch:normal;font-size:11.2889px;line-height:1.45;font-family:Cirlxarli_liparxe;-inkscape-font-specification:'Cirlxarli_liparxe Italic';white-space:pre;fill:#e1624c;fill-opacity:1;stroke:none"
         id="path916" />
      <path
         d="m 69.212908,61.500552 q -0.253559,0 -0.683507,0.12127 -0.319705,0.13229 -0.915019,0.44097 l 0.154341,-0.55121 -0.705556,0.11024 -1.400089,0.22049 -0.01102,0.11024 q 0.02205,0 0.05512,0 0.03307,-0.011 0.0441,-0.011 h 0.176389 q 0.595313,0 0.595313,0.41893 0,0.0992 -0.03307,0.23151 l -1.223699,4.55304 h 0.992188 l 0.132292,-0.50712 q 0.09922,0.0992 0.275608,0.19844 0.529167,0.29766 1.168578,0.29766 0.903994,0 1.852085,-0.79375 0.948091,-0.78273 1.234723,-1.81902 0.01103,-0.022 0.01103,-0.0992 0,-0.0221 0,-0.0551 0.01102,-0.0331 0.02205,-0.0441 l 0.03307,-0.12127 q 0.121268,-0.46302 0.121268,-0.8158 0,-0.19844 -0.03307,-0.37483 -0.08819,-0.55121 -0.363803,-0.84887 -0.297656,-0.33073 -0.650434,-0.48507 -0.352778,-0.17639 -0.793751,-0.17639 z m -0.374826,0.38585 q 0.650434,0 0.992188,0.7717 0.220486,0.47405 0.220486,0.97014 0,0.37483 -0.08819,0.69454 l -0.03307,0.0882 q -0.110243,0.452 -0.264584,0.79375 -0.143316,0.31971 -0.385851,0.69453 -0.23151,0.34176 -0.606337,0.58429 -0.363803,0.23151 -0.837848,0.29766 -0.0441,0.011 -0.220487,0.011 -0.496094,0 -0.870921,-0.24253 -0.143316,-0.0992 -0.264583,-0.23151 l 0.804775,-3.02066 h 0.02205 q 0.694531,-1.41112 1.53238,-1.41112 z"
         style="font-style:italic;font-variant:normal;font-weight:normal;font-stretch:normal;font-size:11.2889px;line-height:1.45;font-family:Cirlxarli_liparxe;-inkscape-font-specification:'Cirlxarli_liparxe Italic';white-space:pre;fill:#e1624c;fill-opacity:1;stroke:none"
         id="path918" />
      <path
         d="m 74.747116,61.423382 q -0.352778,0 -0.705557,0.0772 -0.352778,0.0772 -0.749653,0.25356 -0.396876,0.16537 -0.705556,0.51814 -0.297657,0.34176 -0.429949,0.82683 l -1.058334,3.96875 h 0.992188 l 1.091408,-4.10104 h 0.01102 q 0.110243,-0.4079 0.56224,-0.82683 0.463021,-0.41892 0.915018,-0.42995 0.385852,0.011 0.628386,0.33073 0.242535,0.31971 0.242535,0.69454 0,0.12126 -0.03307,0.23151 l -0.01103,0.0661 q 0,0.011 -0.01102,0.0331 -0.01102,0.0221 -0.01102,0.0331 l -0.959116,3.59392 h 0.992189 l 0.959115,-3.59392 v -0.011 l 0.0441,-0.12126 q 0.110244,-0.4079 0.56224,-0.82683 0.463022,-0.41892 0.915019,-0.42995 0.385851,0.011 0.628386,0.33073 0.242535,0.31971 0.242535,0.69454 0,0.12126 -0.03307,0.23151 h 0.01102 l -0.981164,3.64904 -5.677523,1.37804 v 0.011 q -1.036286,0.26458 -1.94028,1.79696 l 0.286632,-0.011 q 0.429949,-0.55122 0.903994,-0.83785 0.396876,-0.23151 0.749654,-0.25356 h 0.06615 q 0.341754,0 0.837848,0.17639 0.451997,0.14332 0.870921,0.3638 0.429948,0.20946 1.025261,0.4079 0.628386,0.19844 1.234724,0.23151 0.705556,-0.0331 1.234723,-0.45199 0.584289,-0.452 1.135505,-1.40009 l -0.275608,0.011 q -0.48507,0.58429 -1.003213,0.8599 -0.429948,0.20946 -0.771702,0.22048 -0.02205,0 -0.07717,-0.011 -0.05512,0 -0.08819,0 -0.451997,-0.0331 -0.926042,-0.20946 -0.529168,-0.19844 -0.915019,-0.4079 -0.374826,-0.20946 -0.937067,-0.38585 l 5.225527,-1.2678 -0.01103,-0.0441 0.981164,-3.69314 q 0.02205,-0.15434 0.02205,-0.22049 0,-0.65043 -0.551216,-1.04731 -0.540191,-0.4079 -1.168577,-0.4079 h -0.01103 q -1.190626,0.022 -1.907206,0.60634 -0.25356,-0.28663 -0.639411,-0.44097 -0.374827,-0.16537 -0.738629,-0.16537 z"
         style="font-style:italic;font-variant:normal;font-weight:normal;font-stretch:normal;font-size:11.2889px;line-height:1.45;font-family:Cirlxarli_liparxe;-inkscape-font-specification:'Cirlxarli_liparxe Italic';white-space:pre;fill:#e1624c;fill-opacity:1;stroke:none"
         id="path920" />
      <path
         d="m 84.172907,61.412362 h -0.15434 q 0,0 -2.094621,0 -0.374826,0.0331 -0.694532,0.20946 -0.319705,0.17639 -0.518143,0.42995 -0.198437,0.25356 -0.341753,0.56224 -0.242535,0.52916 -0.308681,1.09141 l 0.165365,0.16536 q 0.02205,-0.0331 0.121267,-0.29766 0.09922,-0.26458 0.143316,-0.35277 0.0441,-0.0992 0.154341,-0.31971 0.110243,-0.23151 0.198437,-0.35278 0.231511,-0.33073 0.463022,-0.46302 l -1.367016,5.00504 h 0.992189 l 0.09922,-0.38585 q 0.573264,0.37483 1.466234,0.37483 0.903994,0 1.807988,-0.59532 0.903994,-0.59531 1.113456,-1.35599 0.165365,-0.7717 0.05512,-1.15755 -0.198437,-0.68351 -1.102431,-0.97014 -0.385851,-0.13229 -0.804775,-0.13229 h -0.05512 q -0.264584,0 -0.672483,0.0882 -0.308681,0.0992 -0.881946,0.33073 l 0.308681,-1.27882 q 0,0 1.896183,0 h 1.76389 q 0.07717,-0.15434 0.198438,-0.59531 z m -1.014237,1.74184 q 0.63941,0 1.04731,0.57326 0.551216,0.76068 0,1.90721 -0.507119,1.04731 -1.719794,1.1796 -0.573264,0.0661 -1.113455,-0.17639 -0.154341,-0.0661 -0.275608,-0.16536 l 0.606337,-2.25999 h 0.01102 q 0.606338,-1.05833 1.444186,-1.05833 z"
         style="font-style:italic;font-variant:normal;font-weight:normal;font-stretch:normal;font-size:11.2889px;line-height:1.45;font-family:Cirlxarli_liparxe;-inkscape-font-specification:'Cirlxarli_liparxe Italic';white-space:pre;fill:#e1624c;fill-opacity:1;stroke:none"
         id="path922" />
      <path
         d="m 88.747999,58.689352 -0.606337,0.11024 -1.223699,0.20947 v 0.11024 q 0.07717,-0.011 0.242535,-0.011 0.518142,0 0.518142,0.44098 0,0.0441 -0.02205,0.19844 l -0.672483,3.14193 -1.069359,0.98116 0.253559,0.35278 0.672483,-0.62839 -0.474045,2.20487 q -0.09922,0.45199 -0.09922,0.71658 0,0.61736 0.4079,0.61736 0.363802,0 0.672483,-0.26459 0.319705,-0.2756 0.782726,-1.15755 l -0.09922,-0.0882 q -0.165365,0.3197 -0.374827,0.54019 -0.209462,0.22048 -0.341754,0.22048 -0.143316,0 -0.143316,-0.24253 0,-0.0551 0.02205,-0.20946 l 0.71658,-3.32935 0.948091,-0.88194 -0.23151,-0.35278 -0.573265,0.52917 0.0441,-0.18742 z"
         style="font-style:italic;font-variant:normal;font-weight:normal;font-stretch:normal;font-size:11.2889px;line-height:1.45;font-family:Cirlxarli_liparxe;-inkscape-font-specification:'Cirlxarli_liparxe Italic';white-space:pre;fill:#e1624c;fill-opacity:1;stroke:none"
         id="path924" />
      <path
         d="m 93.653818,61.489532 -3.560854,4.61919 1.234724,-4.59714 -0.705557,0.11024 -1.400088,0.22049 -0.01102,0.11024 q 0.09922,-0.011 0.275608,-0.011 0.595313,0 0.595313,0.41893 0,0.0992 -0.03307,0.23151 l -1.223699,4.55304 h 0.97014 l 0.03307,0.0331 3.560855,-4.64123 -0.870921,3.2632 q -0.121268,0.3638 -0.121268,0.73862 0,0.60634 0.463022,0.60634 0.418924,0 0.782726,-0.26458 0.374827,-0.27561 0.926043,-1.15755 l -0.132292,-0.0882 q -0.198438,0.33073 -0.440973,0.55122 -0.23151,0.20946 -0.385851,0.20946 -0.165365,0 -0.165365,-0.23151 0,-0.0882 0.03307,-0.22049 l 1.179602,-4.43177 h -0.97014 z"
         style="font-style:italic;font-variant:normal;font-weight:normal;font-stretch:normal;font-size:11.2889px;line-height:1.45;font-family:Cirlxarli_liparxe;-inkscape-font-specification:'Cirlxarli_liparxe Italic';white-space:pre;fill:#e1624c;fill-opacity:1;stroke:none"
         id="path926" />
      <path
         d="m 99.684118,61.478502 -0.815799,3.04271 q -1.521356,1.99541 -2.315107,1.99541 -0.374827,0 -0.374827,-0.44098 0,-0.12126 0.03307,-0.25356 l 0.837848,-3.15295 q 0.08819,-0.4079 0.08819,-0.58429 0,-0.60634 -0.463021,-0.60634 -0.418924,0 -0.793751,0.27561 -0.363803,0.26458 -0.915019,1.14653 l 0.121268,0.0882 q 0.198438,-0.33073 0.440973,-0.54019 0.242535,-0.22048 0.396875,-0.22048 0.15434,0 0.15434,0.23151 0,0.14331 -0.0441,0.3197 l -0.815799,3.04271 q -0.03307,0.17639 -0.03307,0.39688 0,0.7276 0.396875,0.8599 0.06615,0.0331 0.264584,0.0331 1.267796,0 2.844274,-1.92926 l -0.915019,3.41754 q -0.121267,0.3638 -0.121267,0.72761 0,0.60633 0.463021,0.60633 0.418924,0 0.782727,-0.2756 0.374826,-0.26459 0.926042,-1.14653 l -0.121267,-0.0882 q -0.198438,0.33073 -0.440973,0.54019 -0.242535,0.22049 -0.396875,0.22049 -0.154341,0 -0.154341,-0.23151 0,-0.13229 0.02205,-0.22049 l 1.94028,-7.254 z"
         style="font-style:italic;font-variant:normal;font-weight:normal;font-stretch:normal;font-size:11.2889px;line-height:1.45;font-family:Cirlxarli_liparxe;-inkscape-font-specification:'Cirlxarli_liparxe Italic';white-space:pre;fill:#e1624c;fill-opacity:1;stroke:none"
         id="path928" />
    </g>
    <g
       id="g1004"
       transform="translate(0,15.875004)">
      <path
         d="m 54.594664,75.995322 q -0.03307,0 -0.09922,-0.022 -0.0441,-0.0441 -0.05512,-0.0661 l -0.01102,-0.0331 -0.209462,0.011 -0.440972,1.6316 v 0.011 l -0.01103,0.011 h 0.209463 q 0.628386,-1.05834 1.311893,-1.54341 0.694532,-0.49609 1.311894,-0.49609 0.56224,0 0.881945,0.35278 0.231511,0.25356 0.231511,0.57326 0,0.11025 -0.03307,0.24254 -0.09922,0.39687 -0.518143,0.7276 -0.374827,0.30868 -1.091407,0.52917 h -0.0441 q -0.881945,0 -1.741842,0.58429 -1.04731,0.71658 -1.510331,1.86311 -0.253559,0.63941 -0.253559,1.19062 0,0.4961 0.176389,0.89297 0.396875,0.92605 1.411112,1.06936 h 0.01102 q 0.110243,0.0221 0.352778,0.0221 0.837848,0 1.719793,-0.59531 1.080383,-0.71658 1.543405,-1.86311 l 0.01102,-0.0221 q 0.231511,-0.61736 0.231511,-1.14653 0,-0.50712 -0.187414,-0.91502 -0.275608,-0.63941 -0.881945,-0.90399 0.661459,-0.13229 1.102431,-0.42995 0.474046,-0.30868 0.661459,-1.00321 l 0.03307,-0.12127 v -0.0992 q 0,-0.62839 -0.451997,-0.94809 -0.496094,-0.3638 -1.289845,-0.3638 -1.344966,0 -2.370228,0.85989 z m 1.355991,2.28204 q 0.08819,0 0.132292,0.011 0.518143,0.0882 0.705556,0.80478 0.07717,0.29765 0.07717,0.65043 0,0.48507 -0.143317,0.98117 v 0.011 q -0.06615,0.24253 -0.165364,0.49609 -0.341754,0.82683 -0.903994,1.38907 -0.56224,0.54019 -1.069359,0.54019 h -0.01102 -0.06615 q 0,0 -0.03307,0 l -0.02205,-0.011 q -0.56224,-0.0882 -0.760678,-0.77171 -0.08819,-0.3197 -0.08819,-0.63941 0,-0.47404 0.165364,-1.02526 v -0.011 q 0.06615,-0.22049 0.17639,-0.4961 0.352778,-0.84887 0.892969,-1.37804 0.573265,-0.55121 1.091408,-0.55121 h 0.01102 z"
         style="font-style:italic;font-variant:normal;font-weight:normal;font-stretch:normal;font-size:11.2889px;line-height:1.45;font-family:Cirlxarli_liparxe;-inkscape-font-specification:'Cirlxarli_liparxe Italic';white-space:pre;fill:#4c867a;fill-opacity:1;stroke:none"
         id="path930" />
      <path
         d="m 62.631391,77.990722 -0.815799,3.04272 q -1.521356,1.9954 -2.315107,1.9954 -0.374826,0 -0.374826,-0.44098 0,-0.12126 0.03307,-0.25355 l 0.837848,-3.15296 q 0.08819,-0.4079 0.08819,-0.58429 0,-0.60634 -0.463021,-0.60634 -0.418924,0 -0.793751,0.27561 -0.363802,0.26459 -0.915018,1.14653 l 0.121267,0.0882 q 0.198438,-0.33073 0.440973,-0.5402 0.242535,-0.22048 0.396875,-0.22048 0.154341,0 0.154341,0.23151 0,0.14332 -0.0441,0.3197 l -0.815799,3.04272 q -0.03307,0.17638 -0.03307,0.39687 0,0.72761 0.396875,0.8599 0.06615,0.0331 0.264584,0.0331 1.267797,0 2.844274,-1.92925 l -0.154341,0.58428 q -0.121267,0.36381 -0.121267,0.73863 0,0.60634 0.463021,0.60634 0.418924,0 0.782727,-0.26458 0.374826,-0.27561 0.926042,-1.15756 l -0.132291,-0.0882 q -0.198438,0.33073 -0.440973,0.55122 -0.231511,0.20946 -0.385851,0.20946 -0.165365,0 -0.165365,-0.23151 0,-0.0882 0.03307,-0.22049 l 1.179602,-4.43178 z"
         style="font-style:italic;font-variant:normal;font-weight:normal;font-stretch:normal;font-size:11.2889px;line-height:1.45;font-family:Cirlxarli_liparxe;-inkscape-font-specification:'Cirlxarli_liparxe Italic';white-space:pre;fill:#4c867a;fill-opacity:1;stroke:none"
         id="path932" />
      <path
         d="m 66.291465,77.990722 -0.705556,0.11025 -1.400088,0.22048 -0.01103,0.11025 q 0.09922,-0.011 0.275608,-0.011 0.595313,0 0.595313,0.41893 0,0.0992 -0.03307,0.23151 l -1.223699,4.55304 h 0.992189 l 0.705556,-2.65686 h 1.311894 q -0.07717,0.31971 -0.07717,0.67248 0,0.48507 0.17639,0.88195 0.396875,0.92604 1.411112,1.06936 h 0.01102 q 0.110244,0.0221 0.341754,0.0221 0.870921,0 1.730818,-0.58429 1.080383,-0.71658 1.543404,-1.87414 v -0.022 q 0.242535,-0.63942 0.242535,-1.14653 0,-0.50712 -0.187413,-0.91502 -0.396876,-0.89297 -1.422137,-1.04731 l -0.01102,-0.011 q -0.220487,-0.022 -0.33073,-0.022 -0.870921,0 -1.741842,0.59532 -1.04731,0.71658 -1.510331,1.86311 0,0.011 -0.01103,0.0331 l -0.02205,0.0441 h -1.333943 z m 3.847487,0.35278 q 0.09922,0 0.143316,0.011 0.518143,0.0882 0.705556,0.80477 0.07717,0.29766 0.07717,0.65044 0,0.48507 -0.143316,0.98116 v 0.011 q -0.06615,0.25355 -0.165365,0.49609 -0.341753,0.82682 -0.903994,1.38906 -0.56224,0.5402 -1.069358,0.5402 h -0.01103 -0.07717 -0.0441 q -0.56224,-0.0772 -0.760678,-0.78273 -0.08819,-0.31971 -0.08819,-0.63941 0,-0.51814 0.15434,-1.02526 l 0.01102,-0.011 q 0.06615,-0.22048 0.176389,-0.49609 0.352778,-0.84887 0.89297,-1.37804 0.573264,-0.55122 1.091407,-0.55122 z"
         style="font-style:italic;font-variant:normal;font-weight:normal;font-stretch:normal;font-size:11.2889px;line-height:1.45;font-family:Cirlxarli_liparxe;-inkscape-font-specification:'Cirlxarli_liparxe Italic';white-space:pre;fill:#4c867a;fill-opacity:1;stroke:none"
         id="path934" />
      <path
         d="m 76.588177,77.891512 h -0.154341 q 0,0 -2.09462,0 -0.374827,0.0331 -0.694532,0.20946 -0.319705,0.17639 -0.518143,0.42995 -0.198437,0.25356 -0.341753,0.56224 -0.242535,0.52916 -0.308681,1.0914 l 0.165364,0.16537 q 0.02205,-0.0331 0.121268,-0.29766 0.09922,-0.26458 0.143316,-0.35278 0.0441,-0.0992 0.15434,-0.3197 0.110244,-0.23151 0.198438,-0.35278 0.231511,-0.33073 0.463021,-0.46302 l -1.367015,5.00504 h 0.992189 l 0.09922,-0.38585 q 0.573264,0.37482 1.466234,0.37482 0.903994,0 1.807988,-0.59531 0.903994,-0.59531 1.113456,-1.35599 0.165364,-0.7717 0.05512,-1.15755 -0.198438,-0.68351 -1.102431,-0.97014 -0.385852,-0.13229 -0.804776,-0.13229 h -0.05512 q -0.264584,0 -0.672484,0.0882 -0.30868,0.0992 -0.881945,0.33073 l 0.308681,-1.27882 q 0,0 1.896182,0 h 1.763891 q 0.07717,-0.15434 0.198438,-0.59531 z m -1.014237,1.74184 q 0.63941,0 1.04731,0.57326 0.551216,0.76068 0,1.90721 -0.507119,1.04731 -1.719794,1.1796 -0.573264,0.0662 -1.113456,-0.17639 -0.15434,-0.0661 -0.275608,-0.16536 l 0.606338,-2.25999 h 0.01102 q 0.606338,-1.05833 1.444186,-1.05833 z"
         style="font-style:italic;font-variant:normal;font-weight:normal;font-stretch:normal;font-size:11.2889px;line-height:1.45;font-family:Cirlxarli_liparxe;-inkscape-font-specification:'Cirlxarli_liparxe Italic';white-space:pre;fill:#4c867a;fill-opacity:1;stroke:none"
         id="path936" />
      <path
         d="m 81.163267,75.168502 -0.606337,0.11024 -1.223699,0.20946 v 0.11025 q 0.07717,-0.011 0.242535,-0.011 0.518142,0 0.518142,0.44098 0,0.0441 -0.02205,0.19843 l -0.672484,3.14193 -1.069358,0.98117 0.253559,0.35278 0.672483,-0.62839 -0.474045,2.20486 q -0.09922,0.452 -0.09922,0.71658 0,0.61737 0.4079,0.61737 0.363802,0 0.672483,-0.26459 0.319705,-0.27561 0.782726,-1.15755 l -0.09922,-0.0882 q -0.165365,0.3197 -0.374827,0.54019 -0.209462,0.22048 -0.341754,0.22048 -0.143316,0 -0.143316,-0.24253 0,-0.0551 0.02205,-0.20946 l 0.716581,-3.32935 0.948091,-0.88194 -0.23151,-0.35278 -0.573265,0.52917 0.0441,-0.18742 z"
         style="font-style:italic;font-variant:normal;font-weight:normal;font-stretch:normal;font-size:11.2889px;line-height:1.45;font-family:Cirlxarli_liparxe;-inkscape-font-specification:'Cirlxarli_liparxe Italic';white-space:pre;fill:#4c867a;fill-opacity:1;stroke:none"
         id="path938" />
      <path
         d="m 86.069088,77.968682 -3.560854,4.61918 1.234723,-4.59714 -0.705556,0.11025 -1.400088,0.22048 -0.01102,0.11025 q 0.09922,-0.011 0.275608,-0.011 0.595313,0 0.595313,0.41893 0,0.0992 -0.03307,0.23151 l -1.223699,4.55304 h 0.970139 l 0.03307,0.0331 3.560855,-4.64123 -0.870921,3.26319 q -0.121268,0.36381 -0.121268,0.73863 0,0.60634 0.463021,0.60634 0.418924,0 0.782727,-0.26458 0.374827,-0.27561 0.926043,-1.15756 l -0.132292,-0.0882 q -0.198438,0.33073 -0.440973,0.55122 -0.231511,0.20946 -0.385851,0.20946 -0.165365,0 -0.165365,-0.23151 0,-0.0882 0.03307,-0.22049 l 1.179602,-4.43178 h -0.97014 z"
         style="font-style:italic;font-variant:normal;font-weight:normal;font-stretch:normal;font-size:11.2889px;line-height:1.45;font-family:Cirlxarli_liparxe;-inkscape-font-specification:'Cirlxarli_liparxe Italic';white-space:pre;fill:#4c867a;fill-opacity:1;stroke:none"
         id="path940" />
      <path
         d="m 92.09939,77.957652 -0.8158,3.04271 q -1.521355,1.9954 -2.315106,1.9954 -0.374827,0 -0.374827,-0.44097 0,-0.12127 0.03307,-0.25356 l 0.837848,-3.15295 q 0.08819,-0.4079 0.08819,-0.58429 0,-0.60634 -0.463022,-0.60634 -0.418924,0 -0.79375,0.27561 -0.363803,0.26458 -0.915019,1.14653 l 0.121268,0.0882 q 0.198437,-0.33073 0.440972,-0.54019 0.242535,-0.22048 0.396876,-0.22048 0.15434,0 0.15434,0.23151 0,0.14331 -0.0441,0.3197 l -0.815799,3.04271 q -0.03307,0.17639 -0.03307,0.39688 0,0.7276 0.396875,0.85989 0.06615,0.0331 0.264584,0.0331 1.267796,0 2.844273,-1.92926 l -0.915018,3.41754 q -0.121267,0.3638 -0.121267,0.72761 0,0.60633 0.463021,0.60633 0.418924,0 0.782726,-0.27561 0.374827,-0.26458 0.926043,-1.14652 l -0.121268,-0.0882 q -0.198437,0.33073 -0.440972,0.54019 -0.242535,0.22049 -0.396876,0.22049 -0.15434,0 -0.15434,-0.23151 0,-0.13229 0.02205,-0.22049 l 1.940279,-7.254 z"
         style="font-style:italic;font-variant:normal;font-weight:normal;font-stretch:normal;font-size:11.2889px;line-height:1.45;font-family:Cirlxarli_liparxe;-inkscape-font-specification:'Cirlxarli_liparxe Italic';white-space:pre;fill:#4c867a;fill-opacity:1;stroke:none"
         id="path942" />
    </g>
  </g>
</svg>
