<?xml version="1.0" encoding="UTF-8" standalone="no"?>
<svg
   xmlns:dc="http://purl.org/dc/elements/1.1/"
   xmlns:cc="http://creativecommons.org/ns#"
   xmlns:rdf="http://www.w3.org/1999/02/22-rdf-syntax-ns#"
   xmlns:svg="http://www.w3.org/2000/svg"
   xmlns="http://www.w3.org/2000/svg"
   xmlns:sodipodi="http://sodipodi.sourceforge.net/DTD/sodipodi-0.dtd"
   xmlns:inkscape="http://www.inkscape.org/namespaces/inkscape"
   width="166.78134mm"
   height="52.778873mm"
   viewBox="0 0 166.78134 52.778873"
   version="1.1"
   id="svg8"
   inkscape:version="1.0.1 (3bc2e813f5, 2020-09-07)"
   sodipodi:docname="staging.svg"
   inkscape:export-filename="D:\cetkaik\cerke_online\media_drafts\staging.png"
   inkscape:export-xdpi="248.24001"
   inkscape:export-ydpi="248.24001">
  <defs
     id="defs2">
    <rect
       x="17.386906"
       y="75.595238"
       width="192.0119"
       height="98.273811"
       id="rect835" />
  </defs>
  <sodipodi:namedview
     id="base"
     pagecolor="#ffffff"
     bordercolor="#666666"
     borderopacity="1.0"
     inkscape:pageopacity="0.0"
     inkscape:pageshadow="2"
     inkscape:zoom="0.98994949"
     inkscape:cx="494.28286"
     inkscape:cy="84.210264"
     inkscape:document-units="mm"
     inkscape:current-layer="layer1"
     inkscape:document-rotation="0"
     showgrid="false"
     fit-margin-top="0"
     fit-margin-left="0"
     fit-margin-right="0"
     fit-margin-bottom="0"
     inkscape:window-width="1902"
     inkscape:window-height="1030"
     inkscape:window-x="0"
     inkscape:window-y="0"
     inkscape:window-maximized="0" />
  <metadata
     id="metadata5">
    <rdf:RDF>
      <cc:Work
         rdf:about="">
        <dc:format>image/svg+xml</dc:format>
        <dc:type
           rdf:resource="http://purl.org/dc/dcmitype/StillImage" />
        <dc:title></dc:title>
      </cc:Work>
    </rdf:RDF>
  </metadata>
  <g
     inkscape:label="レイヤー 1"
     inkscape:groupmode="layer"
     id="layer1"
     transform="translate(-29.963327,-78.68529)">
    <g
       aria-label="ステージング環境
デバッグ用"
       id="text833"
       style="font-style:normal;font-weight:normal;font-size:22.5778px;line-height:1.25;font-family:sans-serif;white-space:pre;shape-inside:url(#rect835);fill:#00f642;fill-opacity:1;stroke:#ff00ff;stroke-width:0.7;stroke-miterlimit:4;stroke-dasharray:none;stroke-opacity:1">
      <path
         d="m 37.633473,89.089467 q 2.469447,-2.645836 4.145143,-5.115283 l -10.31876,1.499307 -0.352778,-4.409727 7.761119,-0.705556 q 1.675696,-0.176389 3.086808,-0.264584 1.852086,-0.08819 2.998615,0.352779 2.028474,0.79375 2.028474,2.557641 0,1.058334 -0.617362,2.204863 -0.440973,0.881946 -1.675696,2.381253 l -2.645836,3.263198 7.055563,5.732644 -3.439587,2.998614 -6.526396,-5.468061 -5.379866,5.556256 -3.439587,-2.822225 3.792365,-3.968754 q 1.94028,-2.116669 3.527781,-3.792365 z"
         style="font-style:normal;font-variant:normal;font-weight:bold;font-stretch:normal;font-size:22.5778px;font-family:HGPSoeiKakupoptai;-inkscape-font-specification:'HGPSoeiKakupoptai Bold';text-align:center;text-anchor:middle;fill:#00f642;fill-opacity:1;stroke:#ff00ff;stroke-width:0.7;stroke-miterlimit:4;stroke-dasharray:none;stroke-opacity:1"
         id="path841" />
      <path
         d="m 50.333486,86.267242 19.667381,-0.264584 v 3.086809 l -8.466675,0.176389 2.204864,0.793751 -4.056949,9.701398 -4.321532,-1.411112 4.409726,-8.907648 -9.525009,1.058334 z M 68.325171,80.00543 v 3.263198 q -4.67431,0.176389 -8.466675,0.440972 -2.734031,0.176389 -7.849314,0.705557 v -3.88056 z"
         style="font-style:normal;font-variant:normal;font-weight:bold;font-stretch:normal;font-size:22.5778px;font-family:HGPSoeiKakupoptai;-inkscape-font-specification:'HGPSoeiKakupoptai Bold';text-align:center;text-anchor:middle;fill:#00f642;fill-opacity:1;stroke:#ff00ff;stroke-width:0.7;stroke-miterlimit:4;stroke-dasharray:none;stroke-opacity:1"
         id="path843" />
      <path
         d="m 71.147395,88.119327 18.873631,-0.264584 -0.0882,2.91042 q -6.438201,0.176389 -11.553484,0.440973 -1.852085,0.176389 -7.231952,0.79375 z"
         style="font-style:normal;font-variant:normal;font-weight:bold;font-stretch:normal;font-size:22.5778px;font-family:HGPSoeiKakupoptai;-inkscape-font-specification:'HGPSoeiKakupoptai Bold';text-align:center;text-anchor:middle;fill:#00f642;fill-opacity:1;stroke:#ff00ff;stroke-width:0.7;stroke-miterlimit:4;stroke-dasharray:none;stroke-opacity:1"
         id="path845" />
      <path
         d="m 92.402279,84.856129 7.143758,2.293058 -0.881946,3.439587 -7.672924,-1.675696 z m 16.227791,0.97014 2.02848,3.175003 -15.875018,10.583344 -2.293058,-3.615975 z m -13.317371,-6.350006 6.350011,2.998614 -1.763895,3.086808 -6.61459,-2.73403 z m 11.200701,0.881945 0.0882,0.08819 1.23472,3.968754 -2.38125,0.529167 -1.14653,-4.233338 z m 2.38126,-0.529167 1.76389,3.70417 -2.38125,0.705556 h -0.0882 l -1.41111,-3.968754 z"
         style="font-style:normal;font-variant:normal;font-weight:bold;font-stretch:normal;font-size:22.5778px;font-family:HGPSoeiKakupoptai;-inkscape-font-specification:'HGPSoeiKakupoptai Bold';text-align:center;text-anchor:middle;fill:#00f642;fill-opacity:1;stroke:#ff00ff;stroke-width:0.7;stroke-miterlimit:4;stroke-dasharray:none;stroke-opacity:1"
         id="path847" />
      <path
         d="m 113.83355,79.652652 7.40834,3.880559 -2.46944,3.792365 -7.32015,-4.409727 z m 14.90488,6.879173 1.94028,3.527782 -15.52224,9.965983 -2.73403,-3.704171 z"
         style="font-style:normal;font-variant:normal;font-weight:bold;font-stretch:normal;font-size:22.5778px;font-family:HGPSoeiKakupoptai;-inkscape-font-specification:'HGPSoeiKakupoptai Bold';text-align:center;text-anchor:middle;fill:#00f642;fill-opacity:1;stroke:#ff00ff;stroke-width:0.7;stroke-miterlimit:4;stroke-dasharray:none;stroke-opacity:1"
         id="path849" />
      <path
         d="m 133.85371,86.267242 q 1.49931,-2.998614 3.88056,-6.790979 l 3.43958,1.234723 -0.70555,1.322918 5.55625,-0.440973 1.14653,2.734031 1.5875,-0.352778 q 0.35278,0.881945 0.17639,1.675696 -0.17639,0.793751 -1.14653,2.557642 l -2.64583,4.850699 -3.70417,6.702784 -3.79237,-1.587501 2.46945,-4.145143 4.58612,-8.643065 -6.35001,0.705557 -3.2632,6.879173 -3.61597,-1.499307 q 1.67569,-3.880559 2.38125,-5.203477 z m 14.02293,-6.261812 1.41111,3.527781 -2.02847,0.440973 -1.41112,-3.439587 z m 2.38125,-0.617362 1.41111,3.439587 -1.85208,0.529167 -1.32292,-3.439587 z"
         style="font-style:normal;font-variant:normal;font-weight:bold;font-stretch:normal;font-size:22.5778px;font-family:HGPSoeiKakupoptai;-inkscape-font-specification:'HGPSoeiKakupoptai Bold';text-align:center;text-anchor:middle;fill:#00f642;fill-opacity:1;stroke:#ff00ff;stroke-width:0.7;stroke-miterlimit:4;stroke-dasharray:none;stroke-opacity:1"
         id="path851" />
      <path
         d="m 154.31484,94.116555 0.0882,-3.439587 -1.94028,0.440973 0.0882,-3.263198 2.02847,-0.264583 0.17639,-3.439587 -2.29306,0.352778 v -2.998614 l 7.32015,-0.705556 v 2.73403 l -1.76389,0.176389 -0.26458,3.615976 1.67569,-0.176389 v 2.734031 l -1.85208,0.264583 -0.0882,3.086809 2.29306,-0.617362 0.0882,2.822225 -7.05557,2.469447 -0.44097,-3.086808 z m 3.70417,3.263198 3.43959,-2.293058 -1.32292,0.08819 0.70556,-5.115283 8.55487,-0.529167 q 1.41111,-0.08819 1.94028,0.176389 0.61736,0.264583 0.79375,1.146529 0.17639,0.705556 0.17639,1.675696 v 0.79375 l 1.4993,1.94028 -1.94028,1.411113 2.02848,1.587501 -2.29306,2.293062 -3.96876,-3.086812 -0.0882,2.822222 -3.79236,0.0882 0.17638,-3.086811 -3.70417,2.822221 -2.29305,-2.645832 z m 1.85209,-10.142371 q 4.14514,-0.352778 7.05556,-0.440973 2.38125,-0.08819 6.87917,-0.08819 l 0.0882,2.293058 -14.19932,0.529168 z m 0.88194,-7.408341 7.40834,-0.705557 q 1.94028,-0.176389 2.82223,0 0.88194,0.17639 1.41111,0.881946 0.61736,0.705556 0.61736,2.910419 0,1.587502 -0.0882,3.175004 -2.91042,-0.08819 -4.32154,-0.08819 -3.0868,0 -8.64306,0.529167 z m 3.2632,4.233337 0.0882,-2.204863 h -0.79375 l -0.17639,2.204863 z m 4.7625,8.55487 v -1.058334 l -4.8507,0.176389 -0.17638,1.058334 z m -1.67569,-8.643064 0.0882,-2.116669 h -0.88194 l -0.17639,2.204863 z m 2.64583,11.112511 0.79375,-0.705556 h -1.67569 z m 0.26459,-11.024317 -0.0882,-2.293057 -0.79375,-0.08819 0.0882,2.381252 z"
         style="font-style:normal;font-variant:normal;font-weight:bold;font-stretch:normal;font-size:22.5778px;font-family:HGPSoeiKakupoptai;-inkscape-font-specification:'HGPSoeiKakupoptai Bold';text-align:center;text-anchor:middle;fill:#00f642;fill-opacity:1;stroke:#ff00ff;stroke-width:0.7;stroke-miterlimit:4;stroke-dasharray:none;stroke-opacity:1"
         id="path853" />
      <path
         d="m 174.95237,92.352665 2.29305,-0.793751 0.17639,-4.586116 -2.46944,0.264584 v -2.998615 l 2.64583,-0.264583 0.0882,-3.792365 h 2.99861 l -0.0882,3.615976 1.4993,-0.08819 -0.0882,2.645836 -1.5875,0.08819 -0.0882,4.056948 1.6757,-0.529167 -0.0882,2.734031 -6.61459,3.175003 z m 9.26042,2.645836 -1.76389,0.264583 0.79375,-6.702784 7.05556,-0.440973 q 2.64584,-0.176389 3.52779,0.352778 1.14652,0.705556 1.32291,2.734031 0.0882,1.058334 -0.0882,3.263197 l -3.08681,-0.08819 v 2.91042 h 1.32292 l 0.26458,-1.852086 2.82223,0.793751 q 0.0882,2.645836 -0.52917,3.527781 -0.35278,0.529165 -1.32292,0.705555 -0.44097,0.0882 -1.41111,0 l -3.175,-0.17639 q -0.79375,0 -1.23473,-0.793748 -0.35278,-0.617362 -0.35278,-2.381253 0,-1.852085 0,-2.469446 l -3.35139,0.264583 2.29306,1.146529 -4.05695,4.321535 -3.175,-1.852088 z m -2.02847,-9.436816 2.73403,-0.176389 V 83.7096 l -2.02848,0.176389 0.0882,-2.645836 4.67431,-0.352778 V 79.03529 l 3.61597,0.08819 -0.0882,1.763891 4.32153,0.08819 0.17639,2.381252 -1.49931,-0.08819 -0.61736,1.852085 2.73403,0.08819 v 2.293058 l -9.96598,0.352778 -4.23334,0.352779 z m 9.26042,6.967369 v -0.793751 q -2.46944,0.08819 -2.55764,0.08819 -0.52917,0.08819 -2.55764,0.264584 l -0.0882,0.793751 z m 0,-2.204864 v -0.617361 l -4.8507,0.352778 -0.0882,0.617361 z m -3.08681,-5.027088 1.76389,-0.08819 0.61737,-1.852085 -2.46945,0.0882 z"
         style="font-style:normal;font-variant:normal;font-weight:bold;font-stretch:normal;font-size:22.5778px;font-family:HGPSoeiKakupoptai;-inkscape-font-specification:'HGPSoeiKakupoptai Bold';text-align:center;text-anchor:middle;fill:#00f642;fill-opacity:1;stroke:#ff00ff;stroke-width:0.7;stroke-miterlimit:4;stroke-dasharray:none;stroke-opacity:1"
         id="path855" />
      <path
         d="m 64.047736,116.91485 q 5.64445,-0.26459 10.759733,-0.35278 2.998615,0 8.995843,0.0882 l 0.08819,2.99862 -8.37848,0.17638 1.940279,0.70556 -4.145143,9.87779 -4.409726,-1.41111 q 1.940279,-3.3514 2.822225,-5.29168 0.793751,-1.67569 1.675696,-3.70417 l -9.348621,1.14653 z m 17.903491,-6.35001 v 3.35139 q -5.027089,0.0882 -7.143758,0.26458 -3.615975,0.26459 -9.084037,0.97014 l 0.176389,-4.23333 z m -2.381253,12.9646 1.411113,3.70417 -1.94028,0.61736 -1.411112,-3.70417 z m 2.469447,-0.52917 1.587502,3.61597 -2.116669,0.70556 -1.322918,-3.79236 z"
         style="font-style:normal;font-variant:normal;font-weight:bold;font-stretch:normal;font-size:22.5778px;font-family:HGPSoeiKakupoptai;-inkscape-font-specification:'HGPSoeiKakupoptai Bold';text-align:center;text-anchor:middle;fill:#00f642;fill-opacity:1;stroke:#ff00ff;stroke-width:0.7;stroke-miterlimit:4;stroke-dasharray:none;stroke-opacity:1"
         id="path857" />
      <path
         d="m 90.506097,110.74123 3.880559,1.14653 q -3.351392,8.81945 -5.379866,17.19793 l -3.968755,-1.32292 z m 8.643064,4.32153 5.644449,11.99446 -3.88056,1.67569 q -0.70555,-1.76389 -2.55764,-6.08542 -1.322918,-2.99861 -2.998614,-6.08542 z m 0.970139,-4.05695 1.76389,3.88056 -2.116667,0.79375 -1.675696,-4.05695 z m 2.73403,-0.61736 1.76389,3.61598 -2.11667,0.61736 -1.5875,-3.79237 z"
         style="font-style:normal;font-variant:normal;font-weight:bold;font-stretch:normal;font-size:22.5778px;font-family:HGPSoeiKakupoptai;-inkscape-font-specification:'HGPSoeiKakupoptai Bold';text-align:center;text-anchor:middle;fill:#00f642;fill-opacity:1;stroke:#ff00ff;stroke-width:0.7;stroke-miterlimit:4;stroke-dasharray:none;stroke-opacity:1"
         id="path859" />
      <path
         d="m 108.58598,118.85512 1.5875,4.76251 -2.73403,0.97014 -1.85209,-4.8507 z m 4.05694,-0.52916 1.23473,4.67431 -2.82223,0.61736 -1.32291,-4.93889 z m 3.70418,0.17639 2.99861,1.23472 -4.49792,10.49515 -3.35139,-1.5875 z"
         style="font-style:normal;font-variant:normal;font-weight:bold;font-stretch:normal;font-size:22.5778px;font-family:HGPSoeiKakupoptai;-inkscape-font-specification:'HGPSoeiKakupoptai Bold';text-align:center;text-anchor:middle;fill:#00f642;fill-opacity:1;stroke:#ff00ff;stroke-width:0.7;stroke-miterlimit:4;stroke-dasharray:none;stroke-opacity:1"
         id="path861" />
      <path
         d="m 122.6971,116.73846 q 1.49931,-2.99862 3.88056,-6.79098 l 3.43959,1.23472 -0.70556,1.32292 5.55626,-0.44097 1.14653,2.73403 1.5875,-0.35278 q 0.35278,0.88194 0.17639,1.67569 -0.17639,0.79376 -1.14653,2.55765 l -2.64584,4.8507 -3.70417,6.70278 -3.79236,-1.5875 2.46945,-4.14514 4.58611,-8.64307 -6.35001,0.70556 -3.26319,6.87917 -3.61598,-1.49931 q 1.6757,-3.88056 2.38125,-5.20347 z m 14.02293,-6.26182 1.41112,3.52779 -2.02848,0.44097 -1.41111,-3.43959 z m 2.38126,-0.61736 1.41111,3.43959 -1.85209,0.52917 -1.32291,-3.43959 z"
         style="font-style:normal;font-variant:normal;font-weight:bold;font-stretch:normal;font-size:22.5778px;font-family:HGPSoeiKakupoptai;-inkscape-font-specification:'HGPSoeiKakupoptai Bold';text-align:center;text-anchor:middle;fill:#00f642;fill-opacity:1;stroke:#ff00ff;stroke-width:0.7;stroke-miterlimit:4;stroke-dasharray:none;stroke-opacity:1"
         id="path863" />
      <path
         d="m 143.24643,110.30026 11.55348,-0.26459 1.6757,-0.0882 q 1.32292,-0.0882 2.11667,0.0882 1.41111,0.26459 2.11667,1.23472 0.79375,1.14653 0.88194,2.91042 l 0.26459,8.90765 q 0.17639,4.49792 0,5.64445 -0.17639,1.5875 -1.94028,2.11667 -0.88195,0.26459 -3.70417,0.26459 l -1.23473,-4.05695 2.64584,0.0882 v -3.08681 l -3.52778,0.0882 0.0882,4.8507 -4.49792,0.0882 0.0882,-4.67431 -3.52779,0.17639 -0.17638,6.4382 -4.49793,-0.44097 1.49931,-20.28474 z m 6.61459,11.02431 0.17639,-2.20486 -3.43959,0.17639 -0.17639,2.02847 z m 0.26458,-5.20348 0.17639,-2.99861 -3.52778,0.17639 -0.0882,2.82222 z m 7.49654,5.20348 v -2.20486 h -3.61598 v 2.20486 z m -0.0882,-5.20348 -0.17638,-3.0868 -3.08681,-0.0882 -0.17639,3.175 z"
         style="font-style:normal;font-variant:normal;font-weight:bold;font-stretch:normal;font-size:22.5778px;font-family:HGPSoeiKakupoptai;-inkscape-font-specification:'HGPSoeiKakupoptai Bold';text-align:center;text-anchor:middle;fill:#00f642;fill-opacity:1;stroke:#ff00ff;stroke-width:0.7;stroke-miterlimit:4;stroke-dasharray:none;stroke-opacity:1"
         id="path865" />
    </g>
  </g>
</svg>
