<?xml version="1.0" encoding="UTF-8" standalone="no"?>
<!-- Created with Inkscape (http://www.inkscape.org/) -->

<svg
   width="219mm"
   height="375mm"
   viewBox="0 0 218.99999 375"
   version="1.1"
   id="svg5"
   inkscape:version="1.2 (dc2aedaf03, 2022-05-15)"
   sodipodi:docname="撃此.svg"
   xml:space="preserve"
   inkscape:export-filename="撃此.png"
   inkscape:export-xdpi="25.4"
   inkscape:export-ydpi="25.4"
   xmlns:inkscape="http://www.inkscape.org/namespaces/inkscape"
   xmlns:sodipodi="http://sodipodi.sourceforge.net/DTD/sodipodi-0.dtd"
   xmlns="http://www.w3.org/2000/svg"
   xmlns:svg="http://www.w3.org/2000/svg"><sodipodi:namedview
     id="namedview7"
     pagecolor="#ffffff"
     bordercolor="#666666"
     borderopacity="1.0"
     inkscape:showpageshadow="2"
     inkscape:pageopacity="0.0"
     inkscape:pagecheckerboard="0"
     inkscape:deskcolor="#d1d1d1"
     inkscape:document-units="mm"
     showgrid="false"
     inkscape:zoom="0.36257716"
     inkscape:cx="1498.9913"
     inkscape:cy="867.40157"
     inkscape:window-width="1920"
     inkscape:window-height="1001"
     inkscape:window-x="-9"
     inkscape:window-y="-9"
     inkscape:window-maximized="1"
     inkscape:current-layer="layer1" /><defs
     id="defs2" /><g
     inkscape:label="Layer 1"
     inkscape:groupmode="layer"
     id="layer1"><g
       id="path20177"><path
         style="color:#000000;fill:#22b14c;fill-opacity:1;stroke:#adfe01;stroke-width:4;stroke-dasharray:none;stroke-opacity:1"
         d="m 151.12305,65.568359 c 1.74186,0.527812 1.82135,1.547681 0,0 z"
         id="path22013" /><path
         style="color:#000000;fill:#22b14c;fill-opacity:1;stroke:#adfe01;stroke-width:4;stroke-dasharray:none;stroke-opacity:1"
         d="m 140.79492,55.228516 c 5.51703,0.322351 6.82552,6.673846 7.98873,9.6461 0.99293,3.411442 -1.81513,9.861217 -3.0785,14.327639 -3.39586,8.939431 -7.97885,17.329685 -12.47555,25.708785 -4.261,5.84896 -1.12014,-6.890946 -5.26997,-5.120193 -5.20851,3.748873 -13.95502,4.541403 -14.85999,12.363583 -4.76501,2.34578 -0.85329,10.73252 -5.34562,14.62201 -3.73333,2.84032 -1.63568,8.1965 -5.41988,11.40977 -2.23322,5.67576 -3.640349,10.15821 -8.76599,14.40004 -0.969994,3.88201 -8.049424,12.26123 -9.013095,11.5017 4.903727,-2.23037 3.258691,-9.11939 7.351264,-11.83191 0.578822,-4.8326 4.252617,-9.48174 6.118679,-14.4575 3.936192,-7.37954 8.017342,-15.39168 6.683342,-24.01343 -0.0573,-2.89982 -3.16052,2.84599 -4.58226,3.38921 -4.874079,3.56425 -8.973682,8.23698 -14.148321,10.9201 -7.382617,4.4203 -5.323021,-7.03198 -4.197135,-11.16355 1.781469,-9.65079 2.572395,-19.659927 1.483087,-29.426587 -0.992367,-8.378431 -14.999709,-2.113644 -15.11724,-8.168346 6.036521,-0.326752 12.888219,0.504983 16.861337,5.675791 4.746748,5.078018 2.586859,12.56653 3.565446,18.820062 -0.313626,5.63219 -1.934126,11.16117 -1.477531,16.84588 7.106293,-5.0937 15.851957,-8.12792 21.589227,-14.91347 3.77672,-7.10336 2.48383,-15.545341 3.60921,-23.282188 0.57676,-5.884967 1.90526,-13.471137 -5.22011,-16.0387 -2.77202,-1.390952 -5.27766,-5.204419 -0.67573,-2.222779 4.54735,2.300055 11.50344,5.530504 8.3156,11.516085 2.38105,3.571046 1.81558,7.884024 1.50688,12.296524 1.12215,0.844433 -4.92513,2.501438 -0.96292,4.304851 0.33612,3.402461 0.16145,11.658817 5.95328,7.569107 3.06843,-2.475183 6.46602,-4.145779 9.03889,-2.438412 7.40184,-0.630104 8.36442,-12.484988 11.03175,-18.663227 1.50884,-6.02096 5.8862,-12.020222 3.30809,-18.342632 -1.00323,-1.926199 -3.01809,-3.191768 -3.79497,-5.234313 z"
         id="path22011" /><path
         style="color:#000000;fill:#22b14c;fill-opacity:1;stroke:#adfe01;stroke-width:4;stroke-dasharray:none;stroke-opacity:1"
         d="m 137.87695,50.494141 c -6.13023,2.206039 4.13317,9.329757 3.37774,13.733911 -0.99712,5.813251 -3.21347,11.467822 -5.00241,17.150325 -1.24789,3.96387 -2.91082,7.649041 -8.51224,10.515167 -4.95402,2.534865 -8.56677,7.301244 -8.09348,0.731456 0.43999,-6.10749 2.63274,-13.678558 0.4622,-20.947211 -2.27451,-7.61681 -10.56846,-10.811583 -17.24533,-13.478571 -4.605545,-1.839626 -4.263393,8.676301 -0.01,10.132812 7.76899,2.660375 5.8637,10.857734 5.14003,17.365732 -0.68762,6.183755 -1.83503,12.807135 -3.1405,18.578628 -4.80516,3.44355 -8.680928,6.19583 -13.249524,8.90725 C 91.92734,105.76465 92.292131,99.249577 92.027104,92 c -0.383571,-10.492244 -11.534621,-15.868887 -21.5,-16.583984 -3.859586,-0.276957 -10.283491,4.222372 -5.396485,8.740235 4.557582,4.213323 15.414189,-1.043484 14.567658,8.911598 -0.813732,9.569371 -1.169248,19.124891 -2.927696,28.543081 -0.626779,3.35701 -0.402076,12.78294 4.153749,12.14252 5.336542,-0.75017 8.559359,-4.74949 12.92619,-7.99233 5.169393,-3.83882 8.14931,-6.27898 5.555201,-0.44154 -3.153875,7.09706 -6.071081,13.46253 -9.572467,20.41024 -4.126182,8.18748 -11.866042,23.3708 -9.894092,24.6568 3.07772,2.00711 1.326637,5.00387 7.078703,0.0341 5.752066,-4.96977 15.702925,-23.68903 20.283935,-32.6445 4.90592,-9.59064 9.14905,-19.42352 11.089,-28.33461 2.92821,-1.87723 10.92388,-7.37996 7.86079,-0.15226 -0.62586,1.47678 -1.5343,4.48227 -1.73922,6.74614 -0.21961,2.42609 5.20276,6.33939 7.44785,3.45414 6.37647,-8.19465 7.92201,-18.49426 12.59374,-27.674187 3.98369,-7.827936 7.39029,-15.962578 9.0513,-24.516564 0.89998,-4.634813 -2.96388,-10.989673 -7.85878,-14.311718 -2.05724,-1.396194 -3.95291,-3.902464 -7.86953,-2.49302 z"
         id="path22009"
         sodipodi:nodetypes="sssssssssccsssssssssszscsssssss" /><path
         style="color:#000000;fill:#22b14c;fill-opacity:1;stroke:#adfe01;stroke-width:4;stroke-dasharray:none;stroke-opacity:1"
         d="m 147.16211,23.210937 c 3.9331,0.285265 4.26061,4.578344 0.49606,4.88089 -4.2762,4.055367 -10.60056,4.566686 -15.74562,7.087671 -9.4438,4.039753 -18.85506,8.156495 -28.72117,11.066676 -7.948041,3.631166 -16.445173,6.00659 -24.383589,9.756313 -6.641207,2.55429 -13.225629,-4.139676 -16.577352,-8.6255 4.405739,2.851758 9.340111,5.786708 14.545469,2.803997 13.007013,-3.18551 25.513232,-8.038819 38.011792,-12.766546 8.62939,-3.431959 18.19193,-7.154444 27.04273,-11.051997 1.84859,-0.923149 3.63131,-1.977564 5.33168,-3.151504 z"
         id="path22007" /><path
         style="color:#000000;fill:#22b14c;fill-opacity:1;stroke:#adfe01;stroke-width:4;stroke-dasharray:none;stroke-opacity:1"
         d="m 147.64844,19.113281 c -25.58197,9.14749 -53.18685,24.303428 -77.013971,28.284412 -3.256701,-2.60034 -14.571192,-8.412425 -12.669882,0.149248 0.981661,4.420459 2.467855,4.812604 6.533526,7.514062 5.374626,3.571201 11.423471,7.104161 16.75944,4.204687 6.293463,-3.419759 13.370358,-5.254408 20.016547,-7.78034 15.82564,-6.014648 31.20566,-11.879292 45.75953,-17.925596 5.55769,-2.330866 11.09539,-8.212614 4.29604,-13.094864 -1.07601,-0.772622 -2.42147,-1.802069 -3.68123,-1.351609 z"
         id="path21272"
         sodipodi:nodetypes="scsssscss" /></g><g
       id="path13853"
       style="fill:#22b14c;fill-opacity:1;stroke:none;stroke-opacity:1;stroke-width:4;stroke-dasharray:none"><path
         style="color:#000000;fill:#22b14c;fill-opacity:1;stroke:none;stroke-width:4;stroke-dasharray:none;stroke-opacity:1"
         d="m 81.48031,344.28704 c -3.206425,-8.06542 -1.641803,-17.09887 -3.176476,-25.53269 1.545471,-8.27783 -8.448807,-10.30844 -10.036647,-16.96124 6.252316,-1.83583 15.542219,2.87093 17.473384,9.63094 3.288369,8.4426 2.073786,17.77464 4.442104,26.35837 4.069919,-0.2661 0.485258,7.84778 -3.092775,8.21782 -1.89695,1.32839 -4.909459,0.68804 -5.60959,-1.7132 z m 21.22374,-1.45731 c -1.58341,-6.9623 10.36834,-7.67942 14.48869,-11.89681 5.04531,-4.56966 15.0165,-2.54646 16.52219,-10.70701 3.05368,-6.95676 4.83662,-14.30001 7.94333,-21.22294 0.9743,-5.42938 7.25496,-14.01872 4.34628,-17.69468 -7.06986,1.51441 -12.67079,6.46687 -19.23566,9.20271 -5.76315,2.32952 -9.92124,7.57422 -15.64411,10.37743 -5.60954,2.52982 -10.62511,6.61986 -16.908835,7.70211 -3.628113,5.55121 -13.515429,-5.48933 -8.562133,-6.32854 5.339072,0.73651 10.48821,-0.73637 14.823068,-3.94472 12.37339,-5.52174 23.24782,-13.80042 35.61463,-19.34296 5.67807,-3.64518 17.33149,-6.61862 20.33069,1.15806 -0.0756,5.26226 -0.80696,10.65257 -4.42664,13.8692 -1.47608,23.64441 -24.50988,40.79192 -43.39573,49.66321 -1.91312,0.63521 -4.38568,0.73579 -5.89577,-0.83506 z M 53.959378,295.31307 c -4.618934,-4.88531 6.878678,-7.61373 7.089344,-13.61853 5.254699,-5.62458 8.276747,-12.2955 12.736216,-18.37818 3.10835,-4.9001 5.859353,-10.59525 10.273073,-13.52808 2.726244,-5.96208 7.390739,-9.73897 9.324438,-15.90067 2.503679,-6.91275 8.042321,-11.93379 10.523341,-18.8754 3.15728,-4.7393 3.51845,-10.80501 -2.82705,-12.44124 -2.019455,-7.45133 10.74087,-0.79666 13.12976,1.99532 2.19208,6.42466 -3.41715,13.3028 -5.96047,19.22336 -4.00862,7.18088 -8.809222,13.91261 -14.102053,20.17496 -2.317273,7.16099 -7.267274,12.98487 -11.247516,19.71274 -4.966377,4.89576 -7.435088,12.55998 -12.264556,16.92235 0.257602,2.12697 -5.328298,6.21854 0.258265,3.61712 15.567437,-8.06771 31.26891,-15.8908 46.69953,-24.24161 6.8527,-1.81609 13.24477,-4.84671 20.22913,-6.47407 6.25486,-0.24849 -7.3674,5.34982 -9.9645,7.02297 -5.57907,3.52641 -11.85352,5.73767 -17.56883,9.5668 -5.95125,3.52277 -12.361068,6.56725 -18.359074,10.15236 -10.900834,6.02375 -21.707408,12.32909 -33.298517,16.9319 -1.964644,1.03462 -3.593808,-0.28243 -4.670531,-1.8621 z m 52.682292,-70.51314 c -1.24859,-1.62141 -2.05531,2.94749 -0.21419,0.64736 z m 50.3125,51.57254 c 1.22233,-5.81668 12.05742,-10.17938 4.23622,-15.30827 -5.57362,-5.12662 -11.79675,-9.53166 -17.66972,-14.3032 -3.57672,-2.26555 -10.92766,-8.36176 -8.72177,-11.57293 6.81686,-0.89099 12.11505,4.11459 17.31354,7.79417 4.67063,4.80501 10.52393,8.0639 15.10577,12.92779 2.72364,4.0433 14.55546,11.05961 5.10876,13.93814 -5.61958,-0.12189 -11.03098,8.60917 -15.3728,6.5243 z"
         id="path17723"
         sodipodi:nodetypes="ccccccccccccccccccccccccccccccccccccccccccccccccccccc" /><path
         style="color:#000000;fill:#22b14c;fill-opacity:1;stroke:none;stroke-width:4;stroke-dasharray:none;stroke-opacity:1"
         d="m 93.09375,338.92578 c 0.07074,0.21627 -0.724541,0.3914 0,0 z"
         id="path18481" /><path
         style="color:#000000;fill:#22b14c;fill-opacity:1;stroke:none;stroke-width:4;stroke-dasharray:none;stroke-opacity:1"
         d="m 146.15039,327.67578 c 0.0212,-0.005 0.0361,0.0615 0,0 z"
         id="path18479" /><path
         style="color:#000000;fill:#22b14c;fill-opacity:1;stroke:none;stroke-width:4;stroke-dasharray:none;stroke-opacity:1"
         d="m 146.73437,315.39258 c 0.59463,1.42292 0.46,1.15509 0,0 z"
         id="path18477" /><path
         style="color:#000000;fill:#22b14c;fill-opacity:1;stroke:none;stroke-width:4;stroke-dasharray:none;stroke-opacity:1"
         d="m 70.681641,303.03906 c 7.704402,0.91314 14.324372,6.43882 14.654561,14.56122 1.919787,7.13584 0.420711,15.0177 3.476465,21.78865 2.865124,3.20561 -5.961318,8.40793 -6.30747,2.22622 -2.005562,-9.92584 -0.813697,-20.3479 -3.538404,-30.164 -1.872375,-3.57925 -6.218851,-4.96552 -8.285152,-8.41209 z"
         id="path18475" /><path
         style="color:#000000;fill:#22b14c;fill-opacity:1;stroke:none;stroke-width:4;stroke-dasharray:none;stroke-opacity:1"
         d="m 157.51172,285.36133 c -1.3991,0.91908 -2.02661,0.89174 0,0 z"
         id="path18473" /><path
         style="color:#000000;fill:#22b14c;fill-opacity:1;stroke:none;stroke-width:4;stroke-dasharray:none;stroke-opacity:1"
         d="m 147.04687,277.19922 c 8.69747,-1.46337 8.58634,7.34459 5.47071,12.1889 -3.22454,3.49053 -2.52354,12.26206 -5.45673,15.74937 -0.55117,6.09742 -7.15551,12.25976 -4.40117,18.27823 9.23801,4.12751 -5.39757,2.55857 -5.415,8.02904 -2.78094,4.20527 -7.01605,4.89365 -8.26201,0.41774 -5.74033,0.78131 -12.16816,4.15905 -15.6233,7.63947 -0.53584,-0.35691 -10.67315,5.39643 -8.47284,0.64087 6.44421,-3.45452 12.69049,-7.40552 19.29364,-10.53367 8.74244,-0.0497 11.79538,-8.26191 13.98947,-15.19679 3.26452,-10.5154 8.05821,-20.55165 11.05696,-31.19361 -0.26708,-8.80762 -11.92512,-0.0981 -15.42579,1.18351 -5.22239,3.71654 -9.69438,4.42879 -14.61173,8.33073 -4.80899,4.75568 -11.17795,6.97073 -16.69878,10.62009 -5.182618,1.01664 -10.51454,7.03804 -13.992601,3.31591 -4.916666,-4.8064 7.189849,-0.62267 9.211992,-4.4872 8.838449,-4.76416 17.897679,-9.1153 26.309539,-14.65309 7.17519,-3.80774 14.30821,-8.23538 22.21568,-10.28969 l 0.81201,-0.0399 z"
         id="path18471" /><path
         style="color:#000000;fill:#22b14c;fill-opacity:1;stroke:none;stroke-width:4;stroke-dasharray:none;stroke-opacity:1"
         d="m 112.28711,270.0918 c 0.30654,0.42419 -0.92088,2.12882 0,0 z"
         id="path18469" /><path
         style="color:#000000;fill:#22b14c;fill-opacity:1;stroke:none;stroke-width:4;stroke-dasharray:none;stroke-opacity:1"
         d="m 108.58203,269.04687 c -0.3985,1.41595 -0.5261,1.31266 0,0 z"
         id="path18467" /><path
         style="color:#000000;fill:#22b14c;fill-opacity:1;stroke:none;stroke-width:4;stroke-dasharray:none;stroke-opacity:1"
         d="m 117.03711,259.47656 c 1.19699,2.27278 0.49239,1.66212 0,0 z"
         id="path18465" /><path
         style="color:#000000;fill:#22b14c;fill-opacity:1;stroke:none;stroke-width:4;stroke-dasharray:none;stroke-opacity:1"
         d="m 119.88281,257.7168 c 0.0453,-0.008 0.10455,0.11068 0,0 z"
         id="path18463" /><path
         style="color:#000000;fill:#22b14c;fill-opacity:1;stroke:none;stroke-width:4;stroke-dasharray:none;stroke-opacity:1"
         d="m 136.5918,237.21289 c 5.91128,-0.17031 10.4119,4.80249 15.01175,7.94931 4.57346,4.8017 8.50251,6.44609 12.2174,10.19881 2.50742,3.69582 11.11086,8.60868 8.85293,12.10192 -4.05527,0.32824 -10.12546,5.30851 -11.36898,5.42425 3.4303,-4.06213 8.03378,-7.66396 2.08491,-12.41164 -5.49888,-5.59168 -12.19448,-9.81896 -18.10071,-14.95989 -3.55576,-1.94157 -6.4567,-4.95974 -8.6973,-8.30276 z"
         id="path18461" /><path
         style="color:#000000;fill:#22b14c;fill-opacity:1;stroke:none;stroke-width:4;stroke-dasharray:none;stroke-opacity:1"
         d="m 105.50391,224.24609 c -0.36705,3.1 -1.7622,-0.74938 0,0 z"
         id="path18457" /><path
         style="color:#000000;fill:#22b14c;fill-opacity:1;stroke:none;stroke-width:4;stroke-dasharray:none;stroke-opacity:1"
         d="m 102.83984,201.19336 c 6.32429,0.75626 13.69131,5.08647 8.40637,11.86308 -1.23128,5.60521 -5.62541,8.63415 -8.06257,12.64474 0.13797,5.78224 -6.408883,11.07577 -9.873518,15.87847 -2.924736,6.75069 -6.73802,12.51246 -10.767103,18.99458 -4.707462,5.69957 -8.442299,12.7509 -12.87759,18.25645 -2.776567,2.19845 -6.075793,10.08303 0.781343,7.79431 5.837919,-2.53745 11.290343,-5.93419 16.622879,-8.53758 10.775846,-5.30984 21.366999,-10.99851 32.000709,-16.57373 5.27992,-2.24475 7.40348,-1.45982 1.42213,0.28881 -4.47195,3.20812 -10.5959,5.89963 -15.56994,9.00078 -15.626593,8.20638 -30.553688,17.85325 -46.955389,24.47419 -7.591427,-1.74862 3.873152,-6.89112 4.213239,-11.56442 4.129095,-5.79187 8.794724,-10.8004 11.558483,-17.36938 4.303206,-4.31198 7.338589,-13.12673 11.49944,-14.48612 2.687877,-6.1553 7.309585,-10.11973 9.55305,-16.1337 2.259536,-6.96865 6.441477,-10.19874 9.349557,-16.61406 2.88937,-5.31684 7.92718,-15.27048 -1.05105,-17.49927 0.13004,0.47315 -1.11787,-0.82146 -0.25004,-0.41715 z"
         id="path18455" /><path
         style="color:#000000;fill:#22b14c;fill-opacity:1;stroke:#adfe01;stroke-width:4;stroke-dasharray:none;stroke-opacity:1"
         d="m 101.5,197.08398 c -7.455629,2.15505 4.42836,9.85435 1.46276,15.29846 -14.990385,27.51863 -30.995599,54.9108 -50.955955,77.10183 -4.872967,5.30821 3.748468,11.96432 9.647398,8.98625 26.336564,-13.29601 52.810527,-28.57423 77.012687,-40.98791 5.70261,-2.92496 -1.62916,-7.87534 -6.61294,-5.98147 -10.1752,3.86663 -19.78673,9.35596 -29.45499,14.0851 -9.264199,4.53149 -33.460119,20.35065 -32.825331,17.91564 1.058704,-4.06112 23.029593,-31.51377 29.449554,-41.89092 7.969087,-12.88114 18.823357,-24.07178 17.232687,-36.10327 -0.85789,-6.48889 -9.55602,-9.98454 -14.95587,-8.42371 z"
         id="path17725"
         sodipodi:nodetypes="sscssssssss" /><path
         style="color:#000000;fill:#22b14c;fill-opacity:1;stroke:#adfe01;stroke-width:4;stroke-dasharray:none;stroke-opacity:1"
         d="m 155.25391,275.30664 c -6.37256,-3.92126 -14.08955,-1.65688 -20.03569,1.86856 -18.25601,10.8239 -36.376114,19.5972 -52.998228,26.15661 -4.068354,-3.14926 -18.539081,-8.25436 -15.116759,1.62516 5.148591,5.11667 9.529612,9.58842 9.62049,17.88155 0.0898,8.19454 -1.898846,18.42847 4.366944,24.42864 4.738557,4.53768 13.868814,-1.88101 11.409217,-8.32583 -2.191386,-5.74203 -2.234559,-12.39676 -2.693245,-19.07814 -0.265606,-3.8689 -5.089304,-11.24194 1.540898,-7.7577 18.126203,-6.58286 29.979313,-16.04544 46.193533,-24.94525 3.49518,-1.91847 9.10776,-6.24144 5.96864,0.83824 -3.60206,8.12374 -6.76207,16.43261 -9.07278,24.97417 -1.93024,7.13514 -6.16684,10.42495 -13.47202,13.62482 -6.25733,2.74088 -12.67883,6.39444 -18.52691,10.34212 -7.889688,5.32584 3.5082,12.00647 9.55814,7.26752 4.60408,-3.6064 6.52574,-4.39952 13.28379,-6.87101 3.4627,-1.26635 6.60112,5.36012 10.95135,0.45262 3.19233,-4.72585 6.73073,-9.32149 9.33713,-17.2027 1.82323,-5.51306 4.40382,-10.78826 6.09382,-16.10938 2.46873,-7.77303 6.12449,-16.23443 6.51173,-21.26684 0.4808,-6.24821 -1.21979,-6.83733 -2.92005,-7.90316 z"
         id="path19209"
         sodipodi:nodetypes="csccsssscssssssscsssc" /><path
         style="color:#000000;fill:#22b14c;fill-opacity:1;stroke:#adfe01;stroke-width:4;stroke-dasharray:none;stroke-opacity:1"
         d="m 134.7168,233.18945 c -7.82785,2.14025 2.58999,11.87395 6.2161,14.41047 5.94605,4.15937 11.13929,9.47136 17.27829,13.36672 7.60892,4.82806 -6.76805,10.1448 -2.95728,14.34 6.17418,6.79703 26.71214,-6.83558 20.65828,-12.94719 -8.78455,-8.86836 -16.39422,-19.18221 -27.3954,-24.517 -6.15417,-2.98433 -7.95096,-6.25222 -13.79999,-4.653 z"
         id="path18459"
         sodipodi:nodetypes="sssssss" /></g><path
       style="color:#000000;fill:#adfe01;-inkscape-stroke:none"
       d="m 119.70898,27.896484 c 0.31652,0 0.67184,0.195866 0.9668,0.439453 -0.30421,-0.187191 -0.51714,-0.439453 -0.9668,-0.439453 z"
       id="path16980" /><path
       style="color:#000000;fill:#adfe01;-inkscape-stroke:none"
       d="m 108.94727,17.292969 c -0.15898,0.257222 -0.2027,0.658564 -0.25196,1.039062 -0.0309,-0.274921 -0.006,-0.621314 0.25196,-1.039062 z"
       id="path16978" /></g></svg>
