<?xml version="1.0" encoding="UTF-8" standalone="no"?>
<!DOCTYPE svg PUBLIC "-//W3C//DTD SVG 1.1//EN" "http://www.w3.org/Graphics/SVG/1.1/DTD/svg11.dtd">
<!-- Generated by graphviz version 2.40.1 (20161225.0304)
 -->
<!-- Title: dependency&#45;cruiser output Pages: 1 -->
<svg width="506pt" height="354pt" viewBox="0.00 0.00 506.35 354.03" xmlns="http://www.w3.org/2000/svg" xmlns:xlink="http://www.w3.org/1999/xlink">
<g id="graph0" class="graph" transform="scale(1 1) rotate(0) translate(4 350.028)">
<title>dependency-cruiser output</title>
<polygon fill="#ffffff" stroke="transparent" points="-4,4 -4,-350.028 502.3483,-350.028 502.3483,4 -4,4"/>
<!-- src/both_sides.ts -->
<g id="node1" class="node">
<title>src/both_sides.ts</title>
<path fill="#ddfeff" stroke="#000000" d="M281.9666,-228.817C281.9666,-228.817 225.33,-228.817 225.33,-228.817 222.2296,-228.817 219.1293,-225.7167 219.1293,-222.6163 219.1293,-222.6163 219.1293,-216.4156 219.1293,-216.4156 219.1293,-213.3153 222.2296,-210.2149 225.33,-210.2149 225.33,-210.2149 281.9666,-210.2149 281.9666,-210.2149 285.0669,-210.2149 288.1673,-213.3153 288.1673,-216.4156 288.1673,-216.4156 288.1673,-222.6163 288.1673,-222.6163 288.1673,-225.7167 285.0669,-228.817 281.9666,-228.817"/>
<text text-anchor="middle" x="253.6483" y="-216.816" font-family="Helvetica,sans-Serif" font-size="9.00" fill="#000000">both_sides.ts</text>
</g>
<!-- src/create_html_element.ts -->
<g id="node2" class="node">
<title>src/create_html_element.ts</title>
<path fill="#ddfeff" stroke="#000000" d="M103.0788,-198.33C103.0788,-198.33 6.4402,-198.33 6.4402,-198.33 3.3398,-198.33 .2394,-195.2297 .2394,-192.1293 .2394,-192.1293 .2394,-185.9286 .2394,-185.9286 .2394,-182.8283 3.3398,-179.7279 6.4402,-179.7279 6.4402,-179.7279 103.0788,-179.7279 103.0788,-179.7279 106.1792,-179.7279 109.2796,-182.8283 109.2796,-185.9286 109.2796,-185.9286 109.2796,-192.1293 109.2796,-192.1293 109.2796,-195.2297 106.1792,-198.33 103.0788,-198.33"/>
<text text-anchor="middle" x="54.7595" y="-186.329" font-family="Helvetica,sans-Serif" font-size="9.00" fill="#000000">create_html_element.ts</text>
</g>
<!-- src/both_sides.ts&#45;&gt;src/create_html_element.ts -->
<g id="edge1" class="edge">
<title>src/both_sides.ts-&gt;src/create_html_element.ts</title>
<path fill="none" stroke="#000000" stroke-width="2" stroke-opacity="0.666667" d="M219.0045,-214.2055C190.6108,-209.8532 149.7336,-203.5872 115.8632,-198.3953"/>
<polygon fill="#000000" fill-opacity="0.666667" stroke="#000000" stroke-width="2" stroke-opacity="0.666667" points="115.8739,-196.2725 109.625,-197.4391 115.2375,-200.424 115.8739,-196.2725"/>
</g>
<!-- src/dictionary.ts -->
<g id="node3" class="node">
<title>src/dictionary.ts</title>
<path fill="#e6ffe6" stroke="#000000" d="M269.9312,-18.7011C269.9312,-18.7011 218.3206,-18.7011 218.3206,-18.7011 215.2203,-18.7011 212.1199,-15.6007 212.1199,-12.5004 212.1199,-12.5004 212.1199,-6.2996 212.1199,-6.2996 212.1199,-3.1993 215.2203,-.0989 218.3206,-.0989 218.3206,-.0989 269.9312,-.0989 269.9312,-.0989 273.0316,-.0989 276.1319,-3.1993 276.1319,-6.2996 276.1319,-6.2996 276.1319,-12.5004 276.1319,-12.5004 276.1319,-15.6007 273.0316,-18.7011 269.9312,-18.7011"/>
<text text-anchor="middle" x="244.1259" y="-6.7" font-family="Helvetica,sans-Serif" font-size="9.00" fill="#000000">dictionary.ts</text>
</g>
<!-- src/both_sides.ts&#45;&gt;src/dictionary.ts -->
<g id="edge2" class="edge">
<title>src/both_sides.ts-&gt;src/dictionary.ts</title>
<path fill="none" stroke="#000000" stroke-width="2" stroke-opacity="0.200000" d="M248.8212,-209.9761C240.8906,-193.7093 225.4276,-159.3415 219.8546,-128.2372 213.1673,-90.9135 227.8964,-47.2995 237.2221,-24.7111"/>
<polygon fill="#000000" fill-opacity="0.200000" stroke="#000000" stroke-width="2" stroke-opacity="0.200000" points="239.2692,-25.2635 239.6868,-18.9203 235.4047,-23.6186 239.2692,-25.2635"/>
</g>
<!-- src/draw_erase_animate.ts -->
<g id="node4" class="node">
<title>src/draw_erase_animate.ts</title>
<path fill="#ddfeff" stroke="#000000" d="M233.9115,-326.3769C233.9115,-326.3769 137.271,-326.3769 137.271,-326.3769 134.1707,-326.3769 131.0703,-323.2766 131.0703,-320.1762 131.0703,-320.1762 131.0703,-313.9755 131.0703,-313.9755 131.0703,-310.8751 134.1707,-307.7748 137.271,-307.7748 137.271,-307.7748 233.9115,-307.7748 233.9115,-307.7748 237.0119,-307.7748 240.1122,-310.8751 240.1122,-313.9755 240.1122,-313.9755 240.1122,-320.1762 240.1122,-320.1762 240.1122,-323.2766 237.0119,-326.3769 233.9115,-326.3769"/>
<text text-anchor="middle" x="185.5913" y="-314.3759" font-family="Helvetica,sans-Serif" font-size="9.00" fill="#000000">draw_erase_animate.ts</text>
</g>
<!-- src/both_sides.ts&#45;&gt;src/draw_erase_animate.ts -->
<g id="edge3" class="edge">
<title>src/both_sides.ts-&gt;src/draw_erase_animate.ts</title>
<path fill="none" stroke="#000000" stroke-width="2" stroke-opacity="0.666667" d="M247.1227,-228.8704C235.2119,-245.9446 209.8735,-282.2672 195.7091,-302.5719"/>
<polygon fill="#000000" fill-opacity="0.666667" stroke="#000000" stroke-width="2" stroke-opacity="0.666667" points="193.9076,-301.4839 192.1971,-307.6064 197.3523,-303.8869 193.9076,-301.4839"/>
</g>
<!-- src/env.ts -->
<g id="node5" class="node">
<title>src/env.ts</title>
<path fill="#e6ffe6" stroke="#000000" d="M84.5075,-331.6244C84.5075,-331.6244 42.9089,-331.6244 42.9089,-331.6244 39.8085,-331.6244 36.7082,-328.5241 36.7082,-325.4237 36.7082,-325.4237 36.7082,-319.223 36.7082,-319.223 36.7082,-316.1227 39.8085,-313.0223 42.9089,-313.0223 42.9089,-313.0223 84.5075,-313.0223 84.5075,-313.0223 87.6078,-313.0223 90.7082,-316.1227 90.7082,-319.223 90.7082,-319.223 90.7082,-325.4237 90.7082,-325.4237 90.7082,-328.5241 87.6078,-331.6244 84.5075,-331.6244"/>
<text text-anchor="middle" x="63.7082" y="-319.6234" font-family="Helvetica,sans-Serif" font-size="9.00" fill="#000000">env.ts</text>
</g>
<!-- src/both_sides.ts&#45;&gt;src/env.ts -->
<g id="edge4" class="edge">
<title>src/both_sides.ts-&gt;src/env.ts</title>
<path fill="none" stroke="#000000" stroke-width="2" stroke-opacity="0.200000" d="M236.4574,-228.8208C202.0771,-247.4295 124.8529,-289.228 86.3822,-310.0508"/>
<polygon fill="#000000" fill-opacity="0.200000" stroke="#000000" stroke-width="2" stroke-opacity="0.200000" points="85.2741,-308.2626 80.9971,-312.9655 87.2734,-311.9563 85.2741,-308.2626"/>
</g>
<!-- src/game_state.ts -->
<g id="node6" class="node">
<title>src/game_state.ts</title>
<path fill="#ddfeff" stroke="#000000" d="M336.04,-345.9291C336.04,-345.9291 276.4001,-345.9291 276.4001,-345.9291 273.2997,-345.9291 270.1994,-342.8287 270.1994,-339.7284 270.1994,-339.7284 270.1994,-333.5277 270.1994,-333.5277 270.1994,-330.4273 273.2997,-327.327 276.4001,-327.327 276.4001,-327.327 336.04,-327.327 336.04,-327.327 339.1404,-327.327 342.2407,-330.4273 342.2407,-333.5277 342.2407,-333.5277 342.2407,-339.7284 342.2407,-339.7284 342.2407,-342.8287 339.1404,-345.9291 336.04,-345.9291"/>
<text text-anchor="middle" x="306.2201" y="-333.928" font-family="Helvetica,sans-Serif" font-size="9.00" fill="#000000">game_state.ts</text>
</g>
<!-- src/both_sides.ts&#45;&gt;src/game_state.ts -->
<g id="edge5" class="edge">
<title>src/both_sides.ts-&gt;src/game_state.ts</title>
<path fill="none" stroke="#000000" stroke-width="2" stroke-opacity="0.666667" d="M257.9505,-229.0997C267.0837,-249.4454 288.4707,-297.0886 299.4516,-321.5502"/>
<polygon fill="#000000" fill-opacity="0.666667" stroke="#000000" stroke-width="2" stroke-opacity="0.666667" points="297.6323,-322.6254 302.0054,-327.2391 301.464,-320.9053 297.6323,-322.6254"/>
</g>
<!-- src/html_top_left.ts -->
<g id="node7" class="node">
<title>src/html_top_left.ts</title>
<path fill="#e6ffe6" stroke="#000000" d="M191.0384,-175.4554C191.0384,-175.4554 126.4088,-175.4554 126.4088,-175.4554 123.3085,-175.4554 120.2081,-172.355 120.2081,-169.2547 120.2081,-169.2547 120.2081,-163.054 120.2081,-163.054 120.2081,-159.9536 123.3085,-156.8533 126.4088,-156.8533 126.4088,-156.8533 191.0384,-156.8533 191.0384,-156.8533 194.1388,-156.8533 197.2391,-159.9536 197.2391,-163.054 197.2391,-163.054 197.2391,-169.2547 197.2391,-169.2547 197.2391,-172.355 194.1388,-175.4554 191.0384,-175.4554"/>
<text text-anchor="middle" x="158.7236" y="-163.4543" font-family="Helvetica,sans-Serif" font-size="9.00" fill="#000000">html_top_left.ts</text>
</g>
<!-- src/both_sides.ts&#45;&gt;src/html_top_left.ts -->
<g id="edge6" class="edge">
<title>src/both_sides.ts-&gt;src/html_top_left.ts</title>
<path fill="none" stroke="#000000" stroke-width="2" stroke-opacity="0.200000" d="M236.6777,-209.976C221.1544,-201.2496 198.0845,-188.2809 181.0669,-178.7145"/>
<polygon fill="#000000" fill-opacity="0.200000" stroke="#000000" stroke-width="2" stroke-opacity="0.200000" points="181.8067,-176.7214 175.5473,-175.6117 179.7485,-180.3825 181.8067,-176.7214"/>
</g>
<!-- src/kiar_ark.ts -->
<g id="node8" class="node">
<title>src/kiar_ark.ts</title>
<path fill="#e6ffe6" stroke="#000000" d="M380.412,-244.1541C380.412,-244.1541 335.8075,-244.1541 335.8075,-244.1541 332.7071,-244.1541 329.6068,-241.0537 329.6068,-237.9534 329.6068,-237.9534 329.6068,-231.7526 329.6068,-231.7526 329.6068,-228.6523 332.7071,-225.5519 335.8075,-225.5519 335.8075,-225.5519 380.412,-225.5519 380.412,-225.5519 383.5123,-225.5519 386.6127,-228.6523 386.6127,-231.7526 386.6127,-231.7526 386.6127,-237.9534 386.6127,-237.9534 386.6127,-241.0537 383.5123,-244.1541 380.412,-244.1541"/>
<text text-anchor="middle" x="358.1097" y="-232.153" font-family="Helvetica,sans-Serif" font-size="9.00" fill="#000000">kiar_ark.ts</text>
</g>
<!-- src/both_sides.ts&#45;&gt;src/kiar_ark.ts -->
<g id="edge7" class="edge">
<title>src/both_sides.ts-&gt;src/kiar_ark.ts</title>
<path fill="none" stroke="#000000" stroke-width="2" stroke-opacity="0.200000" d="M288.4324,-224.623C299.6498,-226.2699 312.0802,-228.0949 323.2995,-229.7422"/>
<polygon fill="#000000" fill-opacity="0.200000" stroke="#000000" stroke-width="2" stroke-opacity="0.200000" points="323.151,-231.8428 329.3924,-230.6367 323.7612,-227.6873 323.151,-231.8428"/>
</g>
<!-- src/main.ts -->
<g id="node9" class="node">
<title>src/main.ts</title>
<path fill="#ddfeff" stroke="#000000" d="M270.8539,-124.9382C270.8539,-124.9382 229.2553,-124.9382 229.2553,-124.9382 226.1549,-124.9382 223.0546,-121.8379 223.0546,-118.7375 223.0546,-118.7375 223.0546,-112.5368 223.0546,-112.5368 223.0546,-109.4365 226.1549,-106.3361 229.2553,-106.3361 229.2553,-106.3361 270.8539,-106.3361 270.8539,-106.3361 273.9542,-106.3361 277.0546,-109.4365 277.0546,-112.5368 277.0546,-112.5368 277.0546,-118.7375 277.0546,-118.7375 277.0546,-121.8379 273.9542,-124.9382 270.8539,-124.9382"/>
<text text-anchor="middle" x="250.0546" y="-112.9372" font-family="Helvetica,sans-Serif" font-size="9.00" fill="#000000">main.ts</text>
</g>
<!-- src/both_sides.ts&#45;&gt;src/main.ts -->
<g id="edge8" class="edge">
<title>src/both_sides.ts-&gt;src/main.ts</title>
<path fill="none" stroke="#ff0000" stroke-width="2" d="M253.3166,-209.9295C252.6962,-191.9954 251.3546,-153.2163 250.5995,-131.3886"/>
<polygon fill="#ff0000" stroke="#ff0000" stroke-width="2" points="252.6917,-131.1243 250.3854,-125.2005 248.4942,-131.2695 252.6917,-131.1243"/>
</g>
<!-- src/opponent_move.ts -->
<g id="node10" class="node">
<title>src/opponent_move.ts</title>
<path fill="#ddfeff" stroke="#000000" d="M392.5511,-139.0871C392.5511,-139.0871 314.8916,-139.0871 314.8916,-139.0871 311.7913,-139.0871 308.6909,-135.9867 308.6909,-132.8864 308.6909,-132.8864 308.6909,-126.6857 308.6909,-126.6857 308.6909,-123.5853 311.7913,-120.485 314.8916,-120.485 314.8916,-120.485 392.5511,-120.485 392.5511,-120.485 395.6514,-120.485 398.7518,-123.5853 398.7518,-126.6857 398.7518,-126.6857 398.7518,-132.8864 398.7518,-132.8864 398.7518,-135.9867 395.6514,-139.0871 392.5511,-139.0871"/>
<text text-anchor="middle" x="353.7213" y="-127.086" font-family="Helvetica,sans-Serif" font-size="9.00" fill="#000000">opponent_move.ts</text>
</g>
<!-- src/both_sides.ts&#45;&gt;src/opponent_move.ts -->
<g id="edge9" class="edge">
<title>src/both_sides.ts-&gt;src/opponent_move.ts</title>
<path fill="none" stroke="#00ff00" stroke-width="2" d="M264.3579,-209.9133C282.1896,-193.9246 318.0226,-161.7951 338.4818,-143.4504"/>
<polygon fill="#00ff00" stroke="#00ff00" stroke-width="2" points="340.0235,-144.8887 343.0888,-139.3196 337.2196,-141.7616 340.0235,-144.8887"/>
</g>
<!-- src/piece_to_path.ts -->
<g id="node11" class="node">
<title>src/piece_to_path.ts</title>
<path fill="#e6ffe6" stroke="#000000" d="M85.4893,-49.268C85.4893,-49.268 15.8319,-49.268 15.8319,-49.268 12.7315,-49.268 9.6312,-46.1676 9.6312,-43.0673 9.6312,-43.0673 9.6312,-36.8666 9.6312,-36.8666 9.6312,-33.7662 12.7315,-30.6659 15.8319,-30.6659 15.8319,-30.6659 85.4893,-30.6659 85.4893,-30.6659 88.5896,-30.6659 91.69,-33.7662 91.69,-36.8666 91.69,-36.8666 91.69,-43.0673 91.69,-43.0673 91.69,-46.1676 88.5896,-49.268 85.4893,-49.268"/>
<text text-anchor="middle" x="50.6606" y="-37.2669" font-family="Helvetica,sans-Serif" font-size="9.00" fill="#000000">piece_to_path.ts</text>
</g>
<!-- src/both_sides.ts&#45;&gt;src/piece_to_path.ts -->
<g id="edge10" class="edge">
<title>src/both_sides.ts-&gt;src/piece_to_path.ts</title>
<path fill="none" stroke="#000000" stroke-width="2" stroke-opacity="0.200000" d="M247.0723,-209.9568C237.6131,-196.559 219.2269,-171.7942 200.4314,-153.5543 158.101,-112.4754 100.883,-72.7796 70.9026,-52.9921"/>
<polygon fill="#000000" fill-opacity="0.200000" stroke="#000000" stroke-width="2" stroke-opacity="0.200000" points="71.7999,-51.0692 65.6313,-49.5332 69.4957,-54.5807 71.7999,-51.0692"/>
</g>
<!-- src/score_display.ts -->
<g id="node12" class="node">
<title>src/score_display.ts</title>
<path fill="#ddfeff" stroke="#000000" d="M186.5425,-36.8234C186.5425,-36.8234 118.9188,-36.8234 118.9188,-36.8234 115.8184,-36.8234 112.7181,-33.7231 112.7181,-30.6227 112.7181,-30.6227 112.7181,-24.422 112.7181,-24.422 112.7181,-21.3217 115.8184,-18.2213 118.9188,-18.2213 118.9188,-18.2213 186.5425,-18.2213 186.5425,-18.2213 189.6429,-18.2213 192.7432,-21.3217 192.7432,-24.422 192.7432,-24.422 192.7432,-30.6227 192.7432,-30.6227 192.7432,-33.7231 189.6429,-36.8234 186.5425,-36.8234"/>
<text text-anchor="middle" x="152.7306" y="-24.8224" font-family="Helvetica,sans-Serif" font-size="9.00" fill="#000000">score_display.ts</text>
</g>
<!-- src/both_sides.ts&#45;&gt;src/score_display.ts -->
<g id="edge11" class="edge">
<title>src/both_sides.ts-&gt;src/score_display.ts</title>
<path fill="none" stroke="#000000" stroke-width="2" stroke-opacity="0.666667" d="M248.6438,-209.995C232.3349,-178.9677 180.6266,-80.5938 160.6832,-42.6518"/>
<polygon fill="#000000" fill-opacity="0.666667" stroke="#000000" stroke-width="2" stroke-opacity="0.666667" points="162.4159,-41.4348 157.7654,-37.1008 158.6982,-43.3889 162.4159,-41.4348"/>
</g>
<!-- src/create_html_element.ts&#45;&gt;src/html_top_left.ts -->
<g id="edge13" class="edge">
<title>src/create_html_element.ts-&gt;src/html_top_left.ts</title>
<path fill="none" stroke="#000000" stroke-width="2" stroke-opacity="0.200000" d="M97.0457,-179.725C102.6604,-178.4896 108.4315,-177.2198 114.0844,-175.976"/>
<polygon fill="#000000" fill-opacity="0.200000" stroke="#000000" stroke-width="2" stroke-opacity="0.200000" points="114.7504,-177.9798 120.159,-174.6395 113.8478,-173.8779 114.7504,-177.9798"/>
</g>
<!-- src/create_html_element.ts&#45;&gt;src/piece_to_path.ts -->
<g id="edge14" class="edge">
<title>src/create_html_element.ts-&gt;src/piece_to_path.ts</title>
<path fill="none" stroke="#000000" stroke-width="2" stroke-opacity="0.200000" d="M54.5031,-179.7045C53.8187,-154.8172 51.9434,-86.6168 51.0916,-55.6421"/>
<polygon fill="#000000" fill-opacity="0.200000" stroke="#000000" stroke-width="2" stroke-opacity="0.200000" points="53.1811,-55.2279 50.9169,-49.2879 48.9827,-55.3434 53.1811,-55.2279"/>
</g>
<!-- src/draw_erase_animate.ts&#45;&gt;src/create_html_element.ts -->
<g id="edge15" class="edge">
<title>src/draw_erase_animate.ts-&gt;src/create_html_element.ts</title>
<path fill="none" stroke="#000000" stroke-width="2" stroke-opacity="0.666667" d="M175.7576,-307.4515C152.7252,-284.9093 95.2276,-228.6356 68.6426,-202.6165"/>
<polygon fill="#000000" fill-opacity="0.666667" stroke="#000000" stroke-width="2" stroke-opacity="0.666667" points="70.1086,-201.1129 64.3517,-198.417 67.1709,-204.1146 70.1086,-201.1129"/>
</g>
<!-- src/draw_erase_animate.ts&#45;&gt;src/game_state.ts -->
<g id="edge16" class="edge">
<title>src/draw_erase_animate.ts-&gt;src/game_state.ts</title>
<path fill="none" stroke="#000000" stroke-width="2" stroke-opacity="0.666667" d="M240.2585,-325.9366C248.1482,-327.2154 256.1678,-328.5153 263.771,-329.7477"/>
<polygon fill="#000000" fill-opacity="0.666667" stroke="#000000" stroke-width="2" stroke-opacity="0.666667" points="263.7892,-331.8779 270.0479,-330.765 264.4612,-327.732 263.7892,-331.8779"/>
</g>
<!-- src/draw_erase_animate.ts&#45;&gt;src/html_top_left.ts -->
<g id="edge17" class="edge">
<title>src/draw_erase_animate.ts-&gt;src/html_top_left.ts</title>
<path fill="none" stroke="#000000" stroke-width="2" stroke-opacity="0.200000" d="M183.9106,-307.635C179.4059,-282.3314 167.0286,-212.8051 161.479,-181.6318"/>
<polygon fill="#000000" fill-opacity="0.200000" stroke="#000000" stroke-width="2" stroke-opacity="0.200000" points="163.5229,-181.1306 160.4037,-175.5916 159.3879,-181.8668 163.5229,-181.1306"/>
</g>
<!-- src/draw_erase_animate.ts&#45;&gt;src/piece_to_path.ts -->
<g id="edge18" class="edge">
<title>src/draw_erase_animate.ts-&gt;src/piece_to_path.ts</title>
<path fill="none" stroke="#000000" stroke-width="2" stroke-opacity="0.200000" d="M180.8886,-307.7065C169.7116,-285.4125 140.718,-227.4333 117.0159,-178.7543 95.1515,-133.8496 69.8218,-80.4896 57.7571,-54.9899"/>
<polygon fill="#000000" fill-opacity="0.200000" stroke="#000000" stroke-width="2" stroke-opacity="0.200000" points="59.5833,-53.9393 55.1199,-49.413 55.7865,-55.7349 59.5833,-53.9393"/>
</g>
<!-- src/game_state.ts&#45;&gt;src/opponent_move.ts -->
<g id="edge19" class="edge">
<title>src/game_state.ts-&gt;src/opponent_move.ts</title>
<path fill="none" stroke="#0000ff" stroke-width="2" d="M307.5011,-327.062C310.2289,-307.3236 317.1088,-260.7086 326.1593,-222.253 332.619,-194.8058 342.5002,-163.4755 348.5105,-145.2354"/>
<polygon fill="#0000ff" stroke="#0000ff" stroke-width="2" points="350.6371,-145.4951 350.5362,-139.139 346.6513,-144.1707 350.6371,-145.4951"/>
</g>
<!-- src/main.ts&#45;&gt;src/both_sides.ts -->
<g id="edge20" class="edge">
<title>src/main.ts-&gt;src/both_sides.ts</title>
<path fill="none" stroke="#ff0000" stroke-width="2" d="M250.3862,-125.2237C251.0067,-143.1577 252.3482,-181.9368 253.1034,-203.7646"/>
<polygon fill="#ff0000" stroke="#ff0000" stroke-width="2" points="251.0112,-204.0289 253.3174,-209.9527 255.2086,-203.8836 251.0112,-204.0289"/>
</g>
<!-- src/main.ts&#45;&gt;src/create_html_element.ts -->
<g id="edge22" class="edge">
<title>src/main.ts-&gt;src/create_html_element.ts</title>
<path fill="none" stroke="#000000" stroke-width="2" stroke-opacity="0.666667" d="M222.9059,-121.3545C195.554,-127.5786 152.4424,-138.6685 117.0159,-153.5543 102.0977,-159.8228 86.2663,-168.88 74.3014,-176.2735"/>
<polygon fill="#000000" fill-opacity="0.666667" stroke="#000000" stroke-width="2" stroke-opacity="0.666667" points="73.0622,-174.5717 69.0933,-179.5374 75.2926,-178.1306 73.0622,-174.5717"/>
</g>
<!-- src/main.ts&#45;&gt;src/dictionary.ts -->
<g id="edge23" class="edge">
<title>src/main.ts-&gt;src/dictionary.ts</title>
<path fill="none" stroke="#000000" stroke-width="2" stroke-opacity="0.200000" d="M249.5285,-106.2093C248.5071,-87.9065 246.2465,-47.3989 244.9975,-25.0184"/>
<polygon fill="#000000" fill-opacity="0.200000" stroke="#000000" stroke-width="2" stroke-opacity="0.200000" points="247.0906,-24.8331 244.6594,-18.9594 242.8971,-25.0671 247.0906,-24.8331"/>
</g>
<!-- src/main.ts&#45;&gt;src/draw_erase_animate.ts -->
<g id="edge24" class="edge">
<title>src/main.ts-&gt;src/draw_erase_animate.ts</title>
<path fill="none" stroke="#000000" stroke-width="2" stroke-opacity="0.666667" d="M246.1866,-125.1321C239.5443,-141.6144 225.7396,-176.6584 215.9388,-206.916 205.1361,-240.2665 194.7864,-280.0667 189.4121,-301.5197"/>
<polygon fill="#000000" fill-opacity="0.666667" stroke="#000000" stroke-width="2" stroke-opacity="0.666667" points="187.3198,-301.2315 187.9089,-307.561 191.3956,-302.2456 187.3198,-301.2315"/>
</g>
<!-- src/main.ts&#45;&gt;src/game_state.ts -->
<g id="edge25" class="edge">
<title>src/main.ts-&gt;src/game_state.ts</title>
<path fill="none" stroke="#000000" stroke-width="2" stroke-opacity="0.666667" d="M255.5513,-125.123C264.6506,-141.3101 282.6975,-175.5636 291.3578,-206.916 302.4459,-247.0576 305.2736,-296.3918 305.9865,-321.0483"/>
<polygon fill="#000000" fill-opacity="0.666667" stroke="#000000" stroke-width="2" stroke-opacity="0.666667" points="303.8935,-321.3721 306.1366,-327.3201 308.0923,-321.2716 303.8935,-321.3721"/>
</g>
<!-- src/main.ts&#45;&gt;src/html_top_left.ts -->
<g id="edge26" class="edge">
<title>src/main.ts-&gt;src/html_top_left.ts</title>
<path fill="none" stroke="#000000" stroke-width="2" stroke-opacity="0.200000" d="M232.8759,-125.1391C218.3333,-133.1829 197.3732,-144.7764 181.4448,-153.5868"/>
<polygon fill="#000000" fill-opacity="0.200000" stroke="#000000" stroke-width="2" stroke-opacity="0.200000" points="180.0592,-151.9533 175.8253,-156.695 182.0921,-155.6285 180.0592,-151.9533"/>
</g>
<!-- src/main.ts&#45;&gt;src/kiar_ark.ts -->
<g id="edge27" class="edge">
<title>src/main.ts-&gt;src/kiar_ark.ts</title>
<path fill="none" stroke="#000000" stroke-width="2" stroke-opacity="0.200000" d="M258.5335,-124.9918C277.4703,-145.8846 323.283,-196.4291 345.5464,-220.9921"/>
<polygon fill="#000000" fill-opacity="0.200000" stroke="#000000" stroke-width="2" stroke-opacity="0.200000" points="344.0848,-222.5065 349.6702,-225.5418 347.1967,-219.6858 344.0848,-222.5065"/>
</g>
<!-- src/main.ts&#45;&gt;src/opponent_move.ts -->
<g id="edge29" class="edge">
<title>src/main.ts-&gt;src/opponent_move.ts</title>
<path fill="none" stroke="#000000" stroke-width="2" stroke-opacity="0.666667" d="M277.2918,-119.3546C285.0905,-120.419 293.8561,-121.6154 302.595,-122.8081"/>
<polygon fill="#000000" fill-opacity="0.666667" stroke="#000000" stroke-width="2" stroke-opacity="0.666667" points="302.3996,-124.9008 308.6285,-123.6316 302.9677,-120.7394 302.3996,-124.9008"/>
</g>
<!-- src/main.ts&#45;&gt;src/piece_to_path.ts -->
<g id="edge30" class="edge">
<title>src/main.ts-&gt;src/piece_to_path.ts</title>
<path fill="none" stroke="#000000" stroke-width="2" stroke-opacity="0.200000" d="M225.2044,-106.2065C188.7373,-92.3672 120.7854,-66.5793 81.2839,-51.5885"/>
<polygon fill="#000000" fill-opacity="0.200000" stroke="#000000" stroke-width="2" stroke-opacity="0.200000" points="81.5524,-49.4443 75.1976,-49.2787 80.0621,-53.371 81.5524,-49.4443"/>
</g>
<!-- src/main.ts&#45;&gt;src/score_display.ts -->
<g id="edge31" class="edge">
<title>src/main.ts-&gt;src/score_display.ts</title>
<path fill="none" stroke="#000000" stroke-width="2" stroke-opacity="0.666667" d="M239.6392,-106.2074C222.2974,-90.5065 187.4487,-58.9553 167.5515,-40.9408"/>
<polygon fill="#000000" fill-opacity="0.666667" stroke="#000000" stroke-width="2" stroke-opacity="0.666667" points="168.9285,-39.3547 163.0711,-36.8844 166.1096,-42.4682 168.9285,-39.3547"/>
</g>
<!-- src/capture_info.ts -->
<g id="node13" class="node">
<title>src/capture_info.ts</title>
<path fill="#ddfeff" stroke="#000000" d="M492.1573,-41.0467C492.1573,-41.0467 429.5201,-41.0467 429.5201,-41.0467 426.4197,-41.0467 423.3194,-37.9464 423.3194,-34.846 423.3194,-34.846 423.3194,-28.6453 423.3194,-28.6453 423.3194,-25.545 426.4197,-22.4446 429.5201,-22.4446 429.5201,-22.4446 492.1573,-22.4446 492.1573,-22.4446 495.2576,-22.4446 498.358,-25.545 498.358,-28.6453 498.358,-28.6453 498.358,-34.846 498.358,-34.846 498.358,-37.9464 495.2576,-41.0467 492.1573,-41.0467"/>
<text text-anchor="middle" x="460.8387" y="-29.0457" font-family="Helvetica,sans-Serif" font-size="9.00" fill="#000000">capture_info.ts</text>
</g>
<!-- src/main.ts&#45;&gt;src/capture_info.ts -->
<g id="edge21" class="edge">
<title>src/main.ts-&gt;src/capture_info.ts</title>
<path fill="none" stroke="#000000" stroke-width="2" stroke-opacity="0.666667" d="M273.8245,-106.1768C312.5915,-90.7477 389.3227,-60.2089 431.4487,-43.4428"/>
<polygon fill="#000000" fill-opacity="0.666667" stroke="#000000" stroke-width="2" stroke-opacity="0.666667" points="432.3575,-45.3414 437.1556,-41.1715 430.8044,-41.4391 432.3575,-45.3414"/>
</g>
<!-- src/serialize.ts -->
<g id="node14" class="node">
<title>src/serialize.ts</title>
<path fill="#e6ffe6" stroke="#000000" d="M489.9066,-186.047C489.9066,-186.047 443.3059,-186.047 443.3059,-186.047 440.2056,-186.047 437.1052,-182.9466 437.1052,-179.8463 437.1052,-179.8463 437.1052,-173.6455 437.1052,-173.6455 437.1052,-170.5452 440.2056,-167.4448 443.3059,-167.4448 443.3059,-167.4448 489.9066,-167.4448 489.9066,-167.4448 493.0069,-167.4448 496.1073,-170.5452 496.1073,-173.6455 496.1073,-173.6455 496.1073,-179.8463 496.1073,-179.8463 496.1073,-182.9466 493.0069,-186.047 489.9066,-186.047"/>
<text text-anchor="middle" x="466.6063" y="-174.0459" font-family="Helvetica,sans-Serif" font-size="9.00" fill="#000000">serialize.ts</text>
</g>
<!-- src/main.ts&#45;&gt;src/serialize.ts -->
<g id="edge32" class="edge">
<title>src/main.ts-&gt;src/serialize.ts</title>
<path fill="none" stroke="#000000" stroke-width="2" stroke-opacity="0.200000" d="M267.0857,-125.1689C277.8319,-130.848 292.1576,-137.8169 305.5061,-142.386 347.6612,-156.8155 398.1761,-166.4081 431.261,-171.7067"/>
<polygon fill="#000000" fill-opacity="0.200000" stroke="#000000" stroke-width="2" stroke-opacity="0.200000" points="430.9763,-173.7877 437.2299,-172.6463 431.6294,-169.6388 430.9763,-173.7877"/>
</g>
<!-- src/main_entry.ts -->
<g id="node15" class="node">
<title>src/main_entry.ts</title>
<path fill="#ddfeff" stroke="#000000" d="M481.742,-331.172C481.742,-331.172 424.1272,-331.172 424.1272,-331.172 421.0268,-331.172 417.9265,-328.0717 417.9265,-324.9713 417.9265,-324.9713 417.9265,-318.7706 417.9265,-318.7706 417.9265,-315.6703 421.0268,-312.5699 424.1272,-312.5699 424.1272,-312.5699 481.742,-312.5699 481.742,-312.5699 484.8423,-312.5699 487.9427,-315.6703 487.9427,-318.7706 487.9427,-318.7706 487.9427,-324.9713 487.9427,-324.9713 487.9427,-328.0717 484.8423,-331.172 481.742,-331.172"/>
<text text-anchor="middle" x="452.9346" y="-319.171" font-family="Helvetica,sans-Serif" font-size="9.00" fill="#000000">main_entry.ts</text>
</g>
<!-- src/main.ts&#45;&gt;src/main_entry.ts -->
<g id="edge28" class="edge">
<title>src/main.ts-&gt;src/main_entry.ts</title>
<path fill="none" stroke="#000000" stroke-width="2" stroke-opacity="0.666667" d="M265.7907,-124.9727C293.3353,-141.8514 351.0612,-179.6697 390.0601,-222.253 414.4492,-248.8837 435.1056,-286.1692 445.5758,-306.7428"/>
<polygon fill="#000000" fill-opacity="0.666667" stroke="#000000" stroke-width="2" stroke-opacity="0.666667" points="443.8059,-307.8983 448.3725,-312.3206 447.5604,-306.0158 443.8059,-307.8983"/>
</g>
<!-- src/to_digits.ts -->
<g id="node16" class="node">
<title>src/to_digits.ts</title>
<path fill="#e6ffe6" stroke="#000000" d="M366.7223,-25.3406C366.7223,-25.3406 320.1017,-25.3406 320.1017,-25.3406 317.0013,-25.3406 313.901,-22.2402 313.901,-19.1399 313.901,-19.1399 313.901,-12.9392 313.901,-12.9392 313.901,-9.8388 317.0013,-6.7385 320.1017,-6.7385 320.1017,-6.7385 366.7223,-6.7385 366.7223,-6.7385 369.8226,-6.7385 372.923,-9.8388 372.923,-12.9392 372.923,-12.9392 372.923,-19.1399 372.923,-19.1399 372.923,-22.2402 369.8226,-25.3406 366.7223,-25.3406"/>
<text text-anchor="middle" x="343.412" y="-13.3395" font-family="Helvetica,sans-Serif" font-size="9.00" fill="#000000">to_digits.ts</text>
</g>
<!-- src/main.ts&#45;&gt;src/to_digits.ts -->
<g id="edge33" class="edge">
<title>src/main.ts-&gt;src/to_digits.ts</title>
<path fill="none" stroke="#000000" stroke-width="2" stroke-opacity="0.200000" d="M259.0061,-106.0873C275.5684,-88.418 311.0574,-50.5568 330.3216,-30.0048"/>
<polygon fill="#000000" fill-opacity="0.200000" stroke="#000000" stroke-width="2" stroke-opacity="0.200000" points="332.0527,-31.2288 334.6239,-25.415 328.9884,-28.3565 332.0527,-31.2288"/>
</g>
<!-- src/opponent_move.ts&#45;&gt;src/both_sides.ts -->
<g id="edge37" class="edge">
<title>src/opponent_move.ts-&gt;src/both_sides.ts</title>
<path fill="none" stroke="#00ff00" stroke-width="2" d="M343.0118,-139.3887C325.1801,-155.3774 289.347,-187.5069 268.8878,-205.8515"/>
<polygon fill="#00ff00" stroke="#00ff00" stroke-width="2" points="267.3462,-204.4133 264.2809,-209.9823 270.15,-207.5403 267.3462,-204.4133"/>
</g>
<!-- src/opponent_move.ts&#45;&gt;src/dictionary.ts -->
<g id="edge39" class="edge">
<title>src/opponent_move.ts-&gt;src/dictionary.ts</title>
<path fill="none" stroke="#000000" stroke-width="2" stroke-opacity="0.200000" d="M345.1216,-120.3395C325.9148,-99.2417 279.4492,-48.2011 256.8683,-23.397"/>
<polygon fill="#000000" fill-opacity="0.200000" stroke="#000000" stroke-width="2" stroke-opacity="0.200000" points="258.2778,-21.8257 252.6858,-18.8026 255.172,-24.6532 258.2778,-21.8257"/>
</g>
<!-- src/opponent_move.ts&#45;&gt;src/draw_erase_animate.ts -->
<g id="edge40" class="edge">
<title>src/opponent_move.ts-&gt;src/draw_erase_animate.ts</title>
<path fill="none" stroke="#000000" stroke-width="2" stroke-opacity="0.666667" d="M349.3464,-139.2553C340.3006,-158.2161 318.1298,-201.6342 291.3578,-232.116 265.3135,-261.7691 228.0491,-289.0035 205.4115,-304.2808"/>
<polygon fill="#000000" fill-opacity="0.666667" stroke="#000000" stroke-width="2" stroke-opacity="0.666667" points="204.0856,-302.641 200.2623,-307.7197 206.4182,-306.1337 204.0856,-302.641"/>
</g>
<!-- src/opponent_move.ts&#45;&gt;src/game_state.ts -->
<g id="edge41" class="edge">
<title>src/opponent_move.ts-&gt;src/game_state.ts</title>
<path fill="none" stroke="#0000ff" stroke-width="2" d="M350.5362,-139.139C344.9788,-155.7218 333.4123,-191.4351 326.1593,-222.253 317.922,-257.2536 311.4826,-299.0133 308.3354,-321.1164"/>
<polygon fill="#0000ff" stroke="#0000ff" stroke-width="2" points="306.2553,-320.8283 307.5011,-327.062 310.4146,-321.412 306.2553,-320.8283"/>
</g>
<!-- src/opponent_move.ts&#45;&gt;src/html_top_left.ts -->
<g id="edge42" class="edge">
<title>src/opponent_move.ts-&gt;src/html_top_left.ts</title>
<path fill="none" stroke="#000000" stroke-width="2" stroke-opacity="0.200000" d="M308.4948,-138.221C276.9573,-144.103 235.06,-151.9171 203.5996,-157.7847"/>
<polygon fill="#000000" fill-opacity="0.200000" stroke="#000000" stroke-width="2" stroke-opacity="0.200000" points="202.9661,-155.7665 197.4529,-158.9311 203.7362,-159.8953 202.9661,-155.7665"/>
</g>
<!-- src/opponent_move.ts&#45;&gt;src/kiar_ark.ts -->
<g id="edge43" class="edge">
<title>src/opponent_move.ts-&gt;src/kiar_ark.ts</title>
<path fill="none" stroke="#000000" stroke-width="2" stroke-opacity="0.200000" d="M354.1108,-139.11C354.8636,-157.1335 356.5258,-196.9292 357.4526,-219.1206"/>
<polygon fill="#000000" fill-opacity="0.200000" stroke="#000000" stroke-width="2" stroke-opacity="0.200000" points="355.3662,-219.4918 357.7149,-225.3989 359.5626,-219.3164 355.3662,-219.4918"/>
</g>
<!-- src/opponent_move.ts&#45;&gt;src/score_display.ts -->
<g id="edge45" class="edge">
<title>src/opponent_move.ts-&gt;src/score_display.ts</title>
<path fill="none" stroke="#000000" stroke-width="2" stroke-opacity="0.666667" d="M335.1729,-120.3486C298.6782,-101.7802 217.5711,-60.5131 176.9272,-39.8335"/>
<polygon fill="#000000" fill-opacity="0.666667" stroke="#000000" stroke-width="2" stroke-opacity="0.666667" points="177.5342,-37.7862 171.2343,-36.937 175.6296,-41.5295 177.5342,-37.7862"/>
</g>
<!-- src/opponent_move.ts&#45;&gt;src/capture_info.ts -->
<g id="edge38" class="edge">
<title>src/opponent_move.ts-&gt;src/capture_info.ts</title>
<path fill="none" stroke="#000000" stroke-width="2" stroke-opacity="0.666667" d="M363.9922,-120.3855C382.9784,-103.0082 423.6417,-65.7906 445.7589,-45.5476"/>
<polygon fill="#000000" fill-opacity="0.666667" stroke="#000000" stroke-width="2" stroke-opacity="0.666667" points="447.4333,-46.8619 450.4415,-41.2618 444.5976,-43.7637 447.4333,-46.8619"/>
</g>
<!-- src/opponent_move.ts&#45;&gt;src/serialize.ts -->
<g id="edge46" class="edge">
<title>src/opponent_move.ts-&gt;src/serialize.ts</title>
<path fill="none" stroke="#000000" stroke-width="2" stroke-opacity="0.200000" d="M376.294,-139.1762C394.1366,-146.5987 419.1451,-157.0021 438.3227,-164.98"/>
<polygon fill="#000000" fill-opacity="0.200000" stroke="#000000" stroke-width="2" stroke-opacity="0.200000" points="437.7263,-167.0063 444.0727,-167.372 439.3396,-163.1285 437.7263,-167.0063"/>
</g>
<!-- src/opponent_move.ts&#45;&gt;src/main_entry.ts -->
<g id="edge44" class="edge">
<title>src/opponent_move.ts-&gt;src/main_entry.ts</title>
<path fill="none" stroke="#000000" stroke-width="2" stroke-opacity="0.666667" d="M358.6413,-139.3115C374.6748,-170.3536 425.5098,-268.7743 445.1164,-306.7343"/>
<polygon fill="#000000" fill-opacity="0.666667" stroke="#000000" stroke-width="2" stroke-opacity="0.666667" points="443.3656,-307.9208 447.9849,-312.288 447.0972,-305.9933 443.3656,-307.9208"/>
</g>
<!-- src/opponent_move.ts&#45;&gt;src/to_digits.ts -->
<g id="edge47" class="edge">
<title>src/opponent_move.ts-&gt;src/to_digits.ts</title>
<path fill="none" stroke="#000000" stroke-width="2" stroke-opacity="0.200000" d="M352.8777,-120.4777C351.1106,-100.9811 347.0044,-55.6765 344.8268,-31.6499"/>
<polygon fill="#000000" fill-opacity="0.200000" stroke="#000000" stroke-width="2" stroke-opacity="0.200000" points="346.9004,-31.2624 344.2673,-25.4765 342.7175,-31.6416 346.9004,-31.2624"/>
</g>
<!-- src/score_display.ts&#45;&gt;src/create_html_element.ts -->
<g id="edge48" class="edge">
<title>src/score_display.ts-&gt;src/create_html_element.ts</title>
<path fill="none" stroke="#000000" stroke-width="2" stroke-opacity="0.666667" d="M146.8955,-37.1417C130.3844,-64.3604 83.2603,-142.0451 63.5717,-174.502"/>
<polygon fill="#000000" fill-opacity="0.666667" stroke="#000000" stroke-width="2" stroke-opacity="0.666667" points="61.7578,-173.4433 60.4413,-179.6624 65.3487,-175.6216 61.7578,-173.4433"/>
</g>
<!-- src/score_display.ts&#45;&gt;src/draw_erase_animate.ts -->
<g id="edge49" class="edge">
<title>src/score_display.ts-&gt;src/draw_erase_animate.ts</title>
<path fill="none" stroke="#000000" stroke-width="2" stroke-opacity="0.666667" d="M157.6832,-36.982C168.1199,-57.5139 192.0968,-107.9876 200.4314,-153.5543 210.254,-207.2565 197.0744,-272.126 189.8114,-301.3988"/>
<polygon fill="#000000" fill-opacity="0.666667" stroke="#000000" stroke-width="2" stroke-opacity="0.666667" points="187.7264,-301.0765 188.2776,-307.4095 191.796,-302.1151 187.7264,-301.0765"/>
</g>
<!-- src/score_display.ts&#45;&gt;src/to_digits.ts -->
<g id="edge50" class="edge">
<title>src/score_display.ts-&gt;src/to_digits.ts</title>
<path fill="none" stroke="#000000" stroke-width="2" stroke-opacity="0.200000" d="M192.9549,-26.2726C217.8516,-25.3738 250.4664,-23.9706 279.3289,-22 288.4769,-21.3754 298.345,-20.5388 307.5314,-19.6902"/>
<polygon fill="#000000" fill-opacity="0.200000" stroke="#000000" stroke-width="2" stroke-opacity="0.200000" points="307.9884,-21.7566 313.7651,-19.1033 307.5947,-17.5751 307.9884,-21.7566"/>
</g>
<!-- src/capture_info.ts&#45;&gt;src/serialize.ts -->
<g id="edge12" class="edge">
<title>src/capture_info.ts-&gt;src/serialize.ts</title>
<path fill="none" stroke="#000000" stroke-width="2" stroke-opacity="0.200000" d="M461.2171,-41.2596C462.191,-65.744 464.7911,-131.1126 465.9878,-161.1978"/>
<polygon fill="#000000" fill-opacity="0.200000" stroke="#000000" stroke-width="2" stroke-opacity="0.200000" points="463.897,-161.4737 466.2339,-167.3855 468.0937,-161.3067 463.897,-161.4737"/>
</g>
<!-- src/main_entry.ts&#45;&gt;src/draw_erase_animate.ts -->
<g id="edge34" class="edge">
<title>src/main_entry.ts-&gt;src/draw_erase_animate.ts</title>
<path fill="none" stroke="#000000" stroke-width="2" stroke-opacity="0.666667" d="M417.7092,-321.2392C374.0891,-320.4568 299.0848,-319.1115 246.1603,-318.1622"/>
<polygon fill="#000000" fill-opacity="0.666667" stroke="#000000" stroke-width="2" stroke-opacity="0.666667" points="246.1794,-316.0623 240.1427,-318.0543 246.104,-320.2617 246.1794,-316.0623"/>
</g>
<!-- src/main_entry.ts&#45;&gt;src/game_state.ts -->
<g id="edge35" class="edge">
<title>src/main_entry.ts-&gt;src/game_state.ts</title>
<path fill="none" stroke="#000000" stroke-width="2" stroke-opacity="0.666667" d="M417.7928,-325.4057C396.9484,-327.5023 370.3925,-330.1733 348.4183,-332.3836"/>
<polygon fill="#000000" fill-opacity="0.666667" stroke="#000000" stroke-width="2" stroke-opacity="0.666667" points="348.1102,-330.3039 342.3505,-332.9939 348.5306,-334.4828 348.1102,-330.3039"/>
</g>
<!-- src/main_entry.ts&#45;&gt;src/kiar_ark.ts -->
<g id="edge36" class="edge">
<title>src/main_entry.ts-&gt;src/kiar_ark.ts</title>
<path fill="none" stroke="#000000" stroke-width="2" stroke-opacity="0.200000" d="M442.7867,-312.5585C426.0495,-297.1993 392.5754,-266.4811 373.1025,-248.6114"/>
<polygon fill="#000000" fill-opacity="0.200000" stroke="#000000" stroke-width="2" stroke-opacity="0.200000" points="374.3128,-246.8718 368.4722,-244.3623 371.473,-249.9663 374.3128,-246.8718"/>
</g>
</g>
</svg>