<?xml version="1.0" encoding="UTF-8" standalone="no"?>
<!DOCTYPE svg PUBLIC "-//W3C//DTD SVG 1.1//EN" "http://www.w3.org/Graphics/SVG/1.1/DTD/svg11.dtd">
<!-- Generated by graphviz version 2.40.1 (20161225.0304)
 -->
<!-- Title: dependency&#45;cruiser output Pages: 1 -->
<svg width="425pt" height="327pt" viewBox="0.00 0.00 425.45 327.03" xmlns="http://www.w3.org/2000/svg" xmlns:xlink="http://www.w3.org/1999/xlink">
<g id="graph0" class="graph" transform="scale(1 1) rotate(0) translate(4 323.0315)">
<title>dependency-cruiser output</title>
<polygon fill="#ffffff" stroke="transparent" points="-4,4 -4,-323.0315 421.4465,-323.0315 421.4465,4 -4,4"/>
<!-- src/both_sides.ts -->
<g id="node1" class="node">
<title>src/both_sides.ts</title>
<path fill="#ddfeff" stroke="#000000" d="M411.2553,-168.8168C411.2553,-168.8168 354.6187,-168.8168 354.6187,-168.8168 351.5184,-168.8168 348.418,-165.7165 348.418,-162.6161 348.418,-162.6161 348.418,-156.4154 348.418,-156.4154 348.418,-153.315 351.5184,-150.2147 354.6187,-150.2147 354.6187,-150.2147 411.2553,-150.2147 411.2553,-150.2147 414.3557,-150.2147 417.456,-153.315 417.456,-156.4154 417.456,-156.4154 417.456,-162.6161 417.456,-162.6161 417.456,-165.7165 414.3557,-168.8168 411.2553,-168.8168"/>
<text text-anchor="middle" x="382.937" y="-156.8157" font-family="Helvetica,sans-Serif" font-size="9.00" fill="#000000">both_sides.ts</text>
</g>
<!-- src/draw_erase_animate.ts -->
<g id="node2" class="node">
<title>src/draw_erase_animate.ts</title>
<path fill="#ddfeff" stroke="#000000" d="M344.5879,-318.9326C344.5879,-318.9326 247.9474,-318.9326 247.9474,-318.9326 244.8471,-318.9326 241.7467,-315.8322 241.7467,-312.7318 241.7467,-312.7318 241.7467,-306.5311 241.7467,-306.5311 241.7467,-303.4308 244.8471,-300.3304 247.9474,-300.3304 247.9474,-300.3304 344.5879,-300.3304 344.5879,-300.3304 347.6883,-300.3304 350.7886,-303.4308 350.7886,-306.5311 350.7886,-306.5311 350.7886,-312.7318 350.7886,-312.7318 350.7886,-315.8322 347.6883,-318.9326 344.5879,-318.9326"/>
<text text-anchor="middle" x="296.2677" y="-306.9315" font-family="Helvetica,sans-Serif" font-size="9.00" fill="#000000">draw_erase_animate.ts</text>
</g>
<!-- src/both_sides.ts&#45;&gt;src/draw_erase_animate.ts -->
<g id="edge1" class="edge">
<title>src/both_sides.ts-&gt;src/draw_erase_animate.ts</title>
<path fill="none" stroke="#666666" stroke-width="2" d="M377.5155,-168.9062C362.8628,-194.2853 322.3877,-264.3903 304.7111,-295.007"/>
<polygon fill="#666666" stroke="#666666" stroke-width="2" points="302.8686,-293.9985 301.6872,-300.2446 306.5059,-296.0985 302.8686,-293.9985"/>
</g>
<!-- src/game_state.ts -->
<g id="node3" class="node">
<title>src/game_state.ts</title>
<path fill="#ddfeff" stroke="#000000" d="M66.0795,-168.8168C66.0795,-168.8168 6.4396,-168.8168 6.4396,-168.8168 3.3392,-168.8168 .2389,-165.7165 .2389,-162.6161 .2389,-162.6161 .2389,-156.4154 .2389,-156.4154 .2389,-153.315 3.3392,-150.2147 6.4396,-150.2147 6.4396,-150.2147 66.0795,-150.2147 66.0795,-150.2147 69.1799,-150.2147 72.2802,-153.315 72.2802,-156.4154 72.2802,-156.4154 72.2802,-162.6161 72.2802,-162.6161 72.2802,-165.7165 69.1799,-168.8168 66.0795,-168.8168"/>
<text text-anchor="middle" x="36.2595" y="-156.8157" font-family="Helvetica,sans-Serif" font-size="9.00" fill="#000000">game_state.ts</text>
</g>
<!-- src/both_sides.ts&#45;&gt;src/game_state.ts -->
<g id="edge2" class="edge">
<title>src/both_sides.ts-&gt;src/game_state.ts</title>
<path fill="none" stroke="#666666" stroke-width="2" d="M348.109,-159.5157C284.0228,-159.5157 147.6528,-159.5157 78.4409,-159.5157"/>
<polygon fill="#666666" stroke="#666666" stroke-width="2" points="78.3616,-157.4158 72.3616,-159.5157 78.3615,-161.6158 78.3616,-157.4158"/>
</g>
<!-- src/draw_erase_animate.ts&#45;&gt;src/game_state.ts -->
<g id="edge3" class="edge">
<title>src/draw_erase_animate.ts-&gt;src/game_state.ts</title>
<path fill="none" stroke="#666666" stroke-width="2" d="M280.003,-300.2411C234.9506,-274.2301 108.5255,-201.2385 57.7586,-171.9282"/>
<polygon fill="#666666" stroke="#666666" stroke-width="2" points="58.7643,-170.084 52.5181,-168.9026 56.6642,-173.7213 58.7643,-170.084"/>
</g>
<!-- src/opponent_move.ts -->
<g id="node4" class="node">
<title>src/opponent_move.ts</title>
<path fill="#ddfeff" stroke="#000000" d="M161.7586,-318.9326C161.7586,-318.9326 84.0992,-318.9326 84.0992,-318.9326 80.9989,-318.9326 77.8985,-315.8322 77.8985,-312.7318 77.8985,-312.7318 77.8985,-306.5311 77.8985,-306.5311 77.8985,-303.4308 80.9989,-300.3304 84.0992,-300.3304 84.0992,-300.3304 161.7586,-300.3304 161.7586,-300.3304 164.859,-300.3304 167.9593,-303.4308 167.9593,-306.5311 167.9593,-306.5311 167.9593,-312.7318 167.9593,-312.7318 167.9593,-315.8322 164.859,-318.9326 161.7586,-318.9326"/>
<text text-anchor="middle" x="122.9289" y="-306.9315" font-family="Helvetica,sans-Serif" font-size="9.00" fill="#000000">opponent_move.ts</text>
</g>
<!-- src/game_state.ts&#45;&gt;src/opponent_move.ts -->
<g id="edge4" class="edge">
<title>src/game_state.ts-&gt;src/opponent_move.ts</title>
<path fill="none" stroke="#0000ff" stroke-width="2" d="M44.7055,-174.1445C61.2793,-202.8511 97.8888,-266.2608 114.4717,-294.9832"/>
<polygon fill="#0000ff" stroke="#0000ff" stroke-width="2" points="46.4998,-173.0523 41.6811,-168.9062 42.8625,-175.1523 46.4998,-173.0523"/>
<polygon fill="#0000ff" stroke="#0000ff" stroke-width="2" points="112.6907,-296.0985 117.5094,-300.2446 116.328,-293.9985 112.6907,-296.0985"/>
</g>
<!-- src/opponent_move.ts&#45;&gt;src/both_sides.ts -->
<g id="edge12" class="edge">
<title>src/opponent_move.ts-&gt;src/both_sides.ts</title>
<path fill="none" stroke="#00ff00" stroke-width="2" d="M144.4349,-297.215C193.3245,-268.9886 312.3546,-200.2665 361.3355,-171.9874"/>
<polygon fill="#00ff00" stroke="#00ff00" stroke-width="2" points="143.3397,-295.4224 139.1936,-300.2411 145.4398,-299.0597 143.3397,-295.4224"/>
<polygon fill="#00ff00" stroke="#00ff00" stroke-width="2" points="362.5323,-173.7213 366.6785,-168.9026 360.4323,-170.084 362.5323,-173.7213"/>
</g>
<!-- src/opponent_move.ts&#45;&gt;src/draw_erase_animate.ts -->
<g id="edge13" class="edge">
<title>src/opponent_move.ts-&gt;src/draw_erase_animate.ts</title>
<path fill="none" stroke="#666666" stroke-width="2" d="M168.0191,-309.6315C188.5579,-309.6315 213.1794,-309.6315 235.3337,-309.6315"/>
<polygon fill="#666666" stroke="#666666" stroke-width="2" points="235.5115,-311.7316 241.5114,-309.6315 235.5114,-307.5316 235.5115,-311.7316"/>
</g>
<!-- src/main_entry.ts -->
<g id="node6" class="node">
<title>src/main_entry.ts</title>
<path fill="#ddfeff" stroke="#000000" d="M151.7363,-18.7011C151.7363,-18.7011 94.1215,-18.7011 94.1215,-18.7011 91.0212,-18.7011 87.9208,-15.6007 87.9208,-12.5004 87.9208,-12.5004 87.9208,-6.2996 87.9208,-6.2996 87.9208,-3.1993 91.0212,-.0989 94.1215,-.0989 94.1215,-.0989 151.7363,-.0989 151.7363,-.0989 154.8367,-.0989 157.937,-3.1993 157.937,-6.2996 157.937,-6.2996 157.937,-12.5004 157.937,-12.5004 157.937,-15.6007 154.8367,-18.7011 151.7363,-18.7011"/>
<text text-anchor="middle" x="122.9289" y="-6.7" font-family="Helvetica,sans-Serif" font-size="9.00" fill="#000000">main_entry.ts</text>
</g>
<!-- src/opponent_move.ts&#45;&gt;src/main_entry.ts -->
<g id="edge14" class="edge">
<title>src/opponent_move.ts-&gt;src/main_entry.ts</title>
<path fill="none" stroke="#666666" stroke-width="2" d="M122.9289,-300.3169C122.9289,-257.5095 122.9289,-79.4341 122.9289,-25.1668"/>
<polygon fill="#666666" stroke="#666666" stroke-width="2" points="125.029,-24.9034 122.9289,-18.9034 120.829,-24.9035 125.029,-24.9034"/>
</g>
<!-- src/main.ts -->
<g id="node5" class="node">
<title>src/main.ts</title>
<path fill="#ddfeff" stroke="#000000" d="M317.067,-18.7011C317.067,-18.7011 275.4684,-18.7011 275.4684,-18.7011 272.368,-18.7011 269.2677,-15.6007 269.2677,-12.5004 269.2677,-12.5004 269.2677,-6.2996 269.2677,-6.2996 269.2677,-3.1993 272.368,-.0989 275.4684,-.0989 275.4684,-.0989 317.067,-.0989 317.067,-.0989 320.1673,-.0989 323.2677,-3.1993 323.2677,-6.2996 323.2677,-6.2996 323.2677,-12.5004 323.2677,-12.5004 323.2677,-15.6007 320.1673,-18.7011 317.067,-18.7011"/>
<text text-anchor="middle" x="296.2677" y="-6.7" font-family="Helvetica,sans-Serif" font-size="9.00" fill="#000000">main.ts</text>
</g>
<!-- src/main.ts&#45;&gt;src/both_sides.ts -->
<g id="edge5" class="edge">
<title>src/main.ts-&gt;src/both_sides.ts</title>
<path fill="none" stroke="#ff0000" stroke-width="2" d="M304.7136,-24.0287C321.2874,-52.7354 357.8969,-116.1451 374.4798,-144.8675"/>
<polygon fill="#ff0000" stroke="#ff0000" stroke-width="2" points="306.5079,-22.9366 301.6892,-18.7904 302.8706,-25.0366 306.5079,-22.9366"/>
<polygon fill="#ff0000" stroke="#ff0000" stroke-width="2" points="372.6988,-145.9827 377.5175,-150.1289 376.3361,-143.8827 372.6988,-145.9827"/>
</g>
<!-- src/main.ts&#45;&gt;src/draw_erase_animate.ts -->
<g id="edge6" class="edge">
<title>src/main.ts-&gt;src/draw_erase_animate.ts</title>
<path fill="none" stroke="#666666" stroke-width="2" d="M296.2677,-18.7146C296.2677,-61.522 296.2677,-239.5974 296.2677,-293.8647"/>
<polygon fill="#666666" stroke="#666666" stroke-width="2" points="294.1677,-294.128 296.2677,-300.1281 298.3677,-294.1281 294.1677,-294.128"/>
</g>
<!-- src/main.ts&#45;&gt;src/game_state.ts -->
<g id="edge7" class="edge">
<title>src/main.ts-&gt;src/game_state.ts</title>
<path fill="none" stroke="#666666" stroke-width="2" d="M280.003,-18.7904C234.9506,-44.8014 108.5255,-117.793 57.7586,-147.1033"/>
<polygon fill="#666666" stroke="#666666" stroke-width="2" points="56.6642,-145.3102 52.5181,-150.1289 58.7643,-148.9475 56.6642,-145.3102"/>
</g>
<!-- src/main.ts&#45;&gt;src/opponent_move.ts -->
<g id="edge9" class="edge">
<title>src/main.ts-&gt;src/opponent_move.ts</title>
<path fill="none" stroke="#666666" stroke-width="2" d="M290.8899,-18.7146C266.024,-61.7835 162.1039,-241.7785 131.4656,-294.8455"/>
<polygon fill="#666666" stroke="#666666" stroke-width="2" points="129.5971,-293.8819 128.4157,-300.1281 133.2344,-295.9819 129.5971,-293.8819"/>
</g>
<!-- src/main.ts&#45;&gt;src/main_entry.ts -->
<g id="edge8" class="edge">
<title>src/main.ts-&gt;src/main_entry.ts</title>
<path fill="none" stroke="#666666" stroke-width="2" d="M269.1835,-9.4C241.1537,-9.4 197.0083,-9.4 164.5443,-9.4"/>
<polygon fill="#666666" stroke="#666666" stroke-width="2" points="164.2156,-7.3001 158.2155,-9.4 164.2155,-11.5001 164.2156,-7.3001"/>
</g>
<!-- src/main_entry.ts&#45;&gt;src/draw_erase_animate.ts -->
<g id="edge10" class="edge">
<title>src/main_entry.ts-&gt;src/draw_erase_animate.ts</title>
<path fill="none" stroke="#666666" stroke-width="2" d="M128.3067,-18.7146C153.1726,-61.7835 257.0927,-241.7785 287.731,-294.8455"/>
<polygon fill="#666666" stroke="#666666" stroke-width="2" points="285.9621,-295.9819 290.7808,-300.1281 289.5995,-293.8819 285.9621,-295.9819"/>
</g>
<!-- src/main_entry.ts&#45;&gt;src/game_state.ts -->
<g id="edge11" class="edge">
<title>src/main_entry.ts-&gt;src/game_state.ts</title>
<path fill="none" stroke="#666666" stroke-width="2" d="M117.5074,-18.7904C102.8547,-44.1695 62.3796,-114.2745 44.703,-144.8913"/>
<polygon fill="#666666" stroke="#666666" stroke-width="2" points="42.8604,-143.8827 41.6791,-150.1289 46.4978,-145.9827 42.8604,-143.8827"/>
</g>
</g>
</svg>