<?xml version="1.0" encoding="UTF-8" standalone="no"?>
<!DOCTYPE svg PUBLIC "-//W3C//DTD SVG 1.1//EN" "http://www.w3.org/Graphics/SVG/1.1/DTD/svg11.dtd">
<!-- Generated by graphviz version 2.40.1 (20161225.0304)
 -->
<!-- Title: dependency&#45;cruiser output Pages: 1 -->
<svg width="165pt" height="154pt" viewBox="0.00 0.00 164.97 154.00" xmlns="http://www.w3.org/2000/svg" xmlns:xlink="http://www.w3.org/1999/xlink">
<g id="graph0" class="graph" transform="scale(1 1) rotate(0) translate(4 150)">
<title>dependency-cruiser output</title>
<polygon fill="#ffffff" stroke="transparent" points="-4,4 -4,-150 160.9684,-150 160.9684,4 -4,4"/>
<!-- src/both_sides.ts -->
<g id="node1" class="node">
<title>src/both_sides.ts</title>
<path fill="#ddfeff" stroke="#000000" d="M108.5779,-114.1011C108.5779,-114.1011 51.9412,-114.1011 51.9412,-114.1011 48.8409,-114.1011 45.7405,-111.0007 45.7405,-107.9004 45.7405,-107.9004 45.7405,-101.6996 45.7405,-101.6996 45.7405,-98.5993 48.8409,-95.4989 51.9412,-95.4989 51.9412,-95.4989 108.5779,-95.4989 108.5779,-95.4989 111.6782,-95.4989 114.7786,-98.5993 114.7786,-101.6996 114.7786,-101.6996 114.7786,-107.9004 114.7786,-107.9004 114.7786,-111.0007 111.6782,-114.1011 108.5779,-114.1011"/>
<text text-anchor="middle" x="80.2595" y="-102.1" font-family="Helvetica,sans-Serif" font-size="9.00" fill="#000000">both_sides.ts</text>
</g>
<!-- src/game_state.ts -->
<g id="node2" class="node">
<title>src/game_state.ts</title>
<path fill="#ddfeff" stroke="#000000" d="M66.0795,-82.3011C66.0795,-82.3011 6.4396,-82.3011 6.4396,-82.3011 3.3392,-82.3011 .2389,-79.2007 .2389,-76.1004 .2389,-76.1004 .2389,-69.8996 .2389,-69.8996 .2389,-66.7993 3.3392,-63.6989 6.4396,-63.6989 6.4396,-63.6989 66.0795,-63.6989 66.0795,-63.6989 69.1799,-63.6989 72.2802,-66.7993 72.2802,-69.8996 72.2802,-69.8996 72.2802,-76.1004 72.2802,-76.1004 72.2802,-79.2007 69.1799,-82.3011 66.0795,-82.3011"/>
<text text-anchor="middle" x="36.2595" y="-70.3" font-family="Helvetica,sans-Serif" font-size="9.00" fill="#000000">game_state.ts</text>
</g>
<!-- src/both_sides.ts&#45;&gt;src/game_state.ts -->
<g id="edge1" class="edge">
<title>src/both_sides.ts-&gt;src/game_state.ts</title>
<path fill="none" stroke="#666666" stroke-width="2" d="M67.2961,-95.4309C63.2148,-92.4813 58.6314,-89.1687 54.2651,-86.0131"/>
<polygon fill="#666666" stroke="#666666" stroke-width="2" points="55.3754,-84.2245 49.2824,-82.412 52.9152,-87.6286 55.3754,-84.2245"/>
</g>
<!-- src/opponent_move.ts -->
<g id="node3" class="node">
<title>src/opponent_move.ts</title>
<path fill="#ddfeff" stroke="#000000" d="M135.0893,-50.5011C135.0893,-50.5011 57.4298,-50.5011 57.4298,-50.5011 54.3295,-50.5011 51.2291,-47.4007 51.2291,-44.3004 51.2291,-44.3004 51.2291,-38.0996 51.2291,-38.0996 51.2291,-34.9993 54.3295,-31.8989 57.4298,-31.8989 57.4298,-31.8989 135.0893,-31.8989 135.0893,-31.8989 138.1896,-31.8989 141.29,-34.9993 141.29,-38.0996 141.29,-38.0996 141.29,-44.3004 141.29,-44.3004 141.29,-47.4007 138.1896,-50.5011 135.0893,-50.5011"/>
<text text-anchor="middle" x="96.2595" y="-38.5" font-family="Helvetica,sans-Serif" font-size="9.00" fill="#000000">opponent_move.ts</text>
</g>
<!-- src/game_state.ts&#45;&gt;src/opponent_move.ts -->
<g id="edge2" class="edge">
<title>src/game_state.ts-&gt;src/opponent_move.ts</title>
<path fill="none" stroke="#0000ff" stroke-width="2" d="M59.5658,-60.6477C63.9905,-58.3026 68.62,-55.849 73.0419,-53.5053"/>
<polygon fill="#0000ff" stroke="#0000ff" stroke-width="2" points="58.255,-58.9656 53.937,-63.6309 60.2219,-62.6766 58.255,-58.9656"/>
<polygon fill="#0000ff" stroke="#0000ff" stroke-width="2" points="74.1831,-55.2773 78.5011,-50.612 72.2162,-51.5663 74.1831,-55.2773"/>
</g>
<!-- src/opponent_move.ts&#45;&gt;src/both_sides.ts -->
<g id="edge8" class="edge">
<title>src/opponent_move.ts-&gt;src/both_sides.ts</title>
<path fill="none" stroke="#00ff00" stroke-width="2" d="M92.3605,-56.6988C89.8487,-66.6832 86.5976,-79.6061 84.0979,-89.5426"/>
<polygon fill="#00ff00" stroke="#00ff00" stroke-width="2" points="94.4617,-56.954 93.889,-50.6229 90.3886,-55.9292 94.4617,-56.954"/>
<polygon fill="#00ff00" stroke="#00ff00" stroke-width="2" points="82.0478,-89.0845 82.6204,-95.4156 86.1208,-90.1093 82.0478,-89.0845"/>
</g>
<!-- src/main_entry.ts -->
<g id="node5" class="node">
<title>src/main_entry.ts</title>
<path fill="#ddfeff" stroke="#000000" d="M125.0669,-18.7011C125.0669,-18.7011 67.4522,-18.7011 67.4522,-18.7011 64.3518,-18.7011 61.2514,-15.6007 61.2514,-12.5004 61.2514,-12.5004 61.2514,-6.2996 61.2514,-6.2996 61.2514,-3.1993 64.3518,-.0989 67.4522,-.0989 67.4522,-.0989 125.0669,-.0989 125.0669,-.0989 128.1673,-.0989 131.2677,-3.1993 131.2677,-6.2996 131.2677,-6.2996 131.2677,-12.5004 131.2677,-12.5004 131.2677,-15.6007 128.1673,-18.7011 125.0669,-18.7011"/>
<text text-anchor="middle" x="96.2595" y="-6.7" font-family="Helvetica,sans-Serif" font-size="9.00" fill="#000000">main_entry.ts</text>
</g>
<!-- src/opponent_move.ts&#45;&gt;src/main_entry.ts -->
<g id="edge9" class="edge">
<title>src/opponent_move.ts-&gt;src/main_entry.ts</title>
<path fill="none" stroke="#666666" stroke-width="2" d="M96.2595,-31.8309C96.2595,-29.6508 96.2595,-27.2723 96.2595,-24.9055"/>
<polygon fill="#666666" stroke="#666666" stroke-width="2" points="98.3596,-24.8119 96.2595,-18.812 94.1596,-24.812 98.3596,-24.8119"/>
</g>
<!-- src/main.ts -->
<g id="node4" class="node">
<title>src/main.ts</title>
<path fill="#ddfeff" stroke="#000000" d="M128.0588,-145.9011C128.0588,-145.9011 86.4603,-145.9011 86.4603,-145.9011 83.3599,-145.9011 80.2595,-142.8007 80.2595,-139.7004 80.2595,-139.7004 80.2595,-133.4996 80.2595,-133.4996 80.2595,-130.3993 83.3599,-127.2989 86.4603,-127.2989 86.4603,-127.2989 128.0588,-127.2989 128.0588,-127.2989 131.1592,-127.2989 134.2596,-130.3993 134.2596,-133.4996 134.2596,-133.4996 134.2596,-139.7004 134.2596,-139.7004 134.2596,-142.8007 131.1592,-145.9011 128.0588,-145.9011"/>
<text text-anchor="middle" x="107.2596" y="-133.9" font-family="Helvetica,sans-Serif" font-size="9.00" fill="#000000">main.ts</text>
</g>
<!-- src/main.ts&#45;&gt;src/both_sides.ts -->
<g id="edge3" class="edge">
<title>src/main.ts-&gt;src/both_sides.ts</title>
<path fill="none" stroke="#ff0000" stroke-width="2" d="M95.1958,-122.3916C94.2399,-121.2658 93.2744,-120.1286 92.3185,-119.0028"/>
<polygon fill="#ff0000" stroke="#ff0000" stroke-width="2" points="93.8204,-124.0164 99.3047,-127.2309 97.0221,-121.298 93.8204,-124.0164"/>
<polygon fill="#ff0000" stroke="#ff0000" stroke-width="2" points="93.7351,-117.4266 88.2509,-114.212 90.5334,-120.145 93.7351,-117.4266"/>
</g>
<!-- src/main.ts&#45;&gt;src/game_state.ts -->
<g id="edge4" class="edge">
<title>src/main.ts-&gt;src/game_state.ts</title>
<path fill="none" stroke="#666666" stroke-width="2" d="M80.235,-130.9306C63.6039,-126.8557 44.4975,-120.9124 39.2595,-114.2 33.7046,-107.0813 32.888,-96.999 33.4927,-88.5902"/>
<polygon fill="#666666" stroke="#666666" stroke-width="2" points="35.5866,-88.7617 34.1772,-82.563 31.4135,-88.2877 35.5866,-88.7617"/>
</g>
<!-- src/main.ts&#45;&gt;src/opponent_move.ts -->
<g id="edge6" class="edge">
<title>src/main.ts-&gt;src/opponent_move.ts</title>
<path fill="none" stroke="#666666" stroke-width="2" d="M114.8146,-127.1356C117.3876,-123.3411 119.9447,-118.7846 121.2596,-114.2 123.563,-106.1682 123.0511,-103.5612 121.2596,-95.4 118.1851,-81.3944 111.1301,-66.694 105.2959,-56.142"/>
<polygon fill="#666666" stroke="#666666" stroke-width="2" points="107.0102,-54.9087 102.2134,-50.7372 103.3618,-56.9896 107.0102,-54.9087"/>
</g>
<!-- src/main.ts&#45;&gt;src/main_entry.ts -->
<g id="edge5" class="edge">
<title>src/main.ts-&gt;src/main_entry.ts</title>
<path fill="none" stroke="#666666" stroke-width="2" d="M119.9071,-127.2517C124.0669,-123.6001 128.3627,-119.1085 131.2596,-114.2 150.2208,-82.0717 167.6566,-63.0364 147.2596,-31.8 144.5457,-27.6439 140.8698,-24.2539 136.7269,-21.4899"/>
<polygon fill="#666666" stroke="#666666" stroke-width="2" points="137.5088,-19.5152 131.2666,-18.313 135.3966,-23.1455 137.5088,-19.5152"/>
</g>
<!-- src/main_entry.ts&#45;&gt;src/game_state.ts -->
<g id="edge7" class="edge">
<title>src/main_entry.ts-&gt;src/game_state.ts</title>
<path fill="none" stroke="#666666" stroke-width="2" d="M62.7169,-18.7422C56.1337,-21.9414 49.8539,-26.1878 45.2595,-31.8 39.4203,-38.9328 37.1478,-49.0153 36.3461,-57.4207"/>
<polygon fill="#666666" stroke="#666666" stroke-width="2" points="34.2478,-57.3298 35.985,-63.4448 38.4403,-57.5812 34.2478,-57.3298"/>
</g>
</g>
</svg>