<?xml version="1.0" encoding="UTF-8" standalone="no"?>
<!DOCTYPE svg PUBLIC "-//W3C//DTD SVG 1.1//EN" "http://www.w3.org/Graphics/SVG/1.1/DTD/svg11.dtd">
<!-- Generated by graphviz version 2.40.1 (20161225.0304)
 -->
<!-- Title: dependency&#45;cruiser output Pages: 1 -->
<svg width="719pt" height="380pt" viewBox="0.00 0.00 719.00 380.00" xmlns="http://www.w3.org/2000/svg" xmlns:xlink="http://www.w3.org/1999/xlink">
<g id="graph0" class="graph" transform="scale(1 1) rotate(0) translate(4 376)">
<title>dependency-cruiser output</title>
<polygon fill="#ffffff" stroke="transparent" points="-4,4 -4,-376 715,-376 715,4 -4,4"/>
<g id="clust1" class="cluster">
<title>cluster_SCC</title>
<path fill="#ffffff" stroke="#000000" stroke-width="2" d="M284.5058,-115.6672C284.5058,-115.6672 517.5058,-115.6672 517.5058,-115.6672 523.5058,-115.6672 529.5058,-121.6672 529.5058,-127.6672 529.5058,-127.6672 529.5058,-222.6672 529.5058,-222.6672 529.5058,-228.6672 523.5058,-234.6672 517.5058,-234.6672 517.5058,-234.6672 284.5058,-234.6672 284.5058,-234.6672 278.5058,-234.6672 272.5058,-228.6672 272.5058,-222.6672 272.5058,-222.6672 272.5058,-127.6672 272.5058,-127.6672 272.5058,-121.6672 278.5058,-115.6672 284.5058,-115.6672"/>
<text text-anchor="middle" x="401.0058" y="-222.5672" font-family="Helvetica,sans-Serif" font-weight="bold" font-size="9.00" fill="#000000">SCC</text>
</g>
<!-- src/both_sides.ts -->
<g id="node1" class="node">
<title>src/both_sides.ts</title>
<g id="a_node1"><a xlink:href="src/both_sides.ts" xlink:title="both_sides.ts">
<path fill="#dddeff" stroke="#000000" d="M420.8088,-142.7768C420.8088,-142.7768 364.1722,-142.7768 364.1722,-142.7768 361.0719,-142.7768 357.9715,-139.6764 357.9715,-136.5761 357.9715,-136.5761 357.9715,-130.3754 357.9715,-130.3754 357.9715,-127.275 361.0719,-124.1747 364.1722,-124.1747 364.1722,-124.1747 420.8088,-124.1747 420.8088,-124.1747 423.9092,-124.1747 427.0095,-127.275 427.0095,-130.3754 427.0095,-130.3754 427.0095,-136.5761 427.0095,-136.5761 427.0095,-139.6764 423.9092,-142.7768 420.8088,-142.7768"/>
<text text-anchor="middle" x="392.4905" y="-130.7757" font-family="Helvetica,sans-Serif" font-size="9.00" fill="#000000">both_sides.ts</text>
</a>
</g>
</g>
<!-- src/create_html_element.ts -->
<g id="node2" class="node">
<title>src/create_html_element.ts</title>
<g id="a_node2"><a xlink:href="src/create_html_element.ts" xlink:title="create_html_element.ts">
<path fill="#ddfeff" stroke="#000000" d="M386.8229,-354.4133C386.8229,-354.4133 290.1842,-354.4133 290.1842,-354.4133 287.0839,-354.4133 283.9835,-351.3129 283.9835,-348.2126 283.9835,-348.2126 283.9835,-342.0119 283.9835,-342.0119 283.9835,-338.9115 287.0839,-335.8112 290.1842,-335.8112 290.1842,-335.8112 386.8229,-335.8112 386.8229,-335.8112 389.9233,-335.8112 393.0236,-338.9115 393.0236,-342.0119 393.0236,-342.0119 393.0236,-348.2126 393.0236,-348.2126 393.0236,-351.3129 389.9233,-354.4133 386.8229,-354.4133"/>
<text text-anchor="middle" x="338.5036" y="-342.4122" font-family="Helvetica,sans-Serif" font-size="9.00" fill="#000000">create_html_element.ts</text>
</a>
</g>
</g>
<!-- src/both_sides.ts&#45;&gt;src/create_html_element.ts -->
<g id="edge1" class="edge">
<title>src/both_sides.ts-&gt;src/create_html_element.ts</title>
<path fill="none" stroke="#000000" stroke-width="2" stroke-opacity="0.200000" d="M380.1838,-142.9993C370.9664,-150.905 358.9608,-163.0194 353.004,-176.588 330.177,-228.5841 333.562,-298.1849 336.5841,-329.1261"/>
<polygon fill="#000000" fill-opacity="0.200000" stroke="#000000" stroke-width="2" stroke-opacity="0.200000" points="334.5342,-329.7121 337.2521,-335.4586 338.711,-329.2714 334.5342,-329.7121"/>
</g>
<!-- src/dictionary.ts -->
<g id="node3" class="node">
<title>src/dictionary.ts</title>
<g id="a_node3"><a xlink:href="src/dictionary.ts" xlink:title="dictionary.ts">
<path fill="#e6ffe6" stroke="#000000" d="M293.5619,-19.0081C293.5619,-19.0081 241.9513,-19.0081 241.9513,-19.0081 238.8509,-19.0081 235.7506,-15.9078 235.7506,-12.8074 235.7506,-12.8074 235.7506,-6.6067 235.7506,-6.6067 235.7506,-3.5064 238.8509,-.406 241.9513,-.406 241.9513,-.406 293.5619,-.406 293.5619,-.406 296.6622,-.406 299.7626,-3.5064 299.7626,-6.6067 299.7626,-6.6067 299.7626,-12.8074 299.7626,-12.8074 299.7626,-15.9078 296.6622,-19.0081 293.5619,-19.0081"/>
<text text-anchor="middle" x="267.7566" y="-7.0071" font-family="Helvetica,sans-Serif" font-size="9.00" fill="#000000">dictionary.ts</text>
</a>
</g>
</g>
<!-- src/both_sides.ts&#45;&gt;src/dictionary.ts -->
<g id="edge2" class="edge">
<title>src/both_sides.ts-&gt;src/dictionary.ts</title>
<path fill="none" stroke="#000000" stroke-width="2" stroke-opacity="0.200000" d="M383.1152,-124.173C361.3537,-102.5798 307.3215,-48.9658 281.6833,-23.526"/>
<polygon fill="#000000" fill-opacity="0.200000" stroke="#000000" stroke-width="2" stroke-opacity="0.200000" points="282.979,-21.8532 277.2407,-19.1178 280.0207,-24.8346 282.979,-21.8532"/>
</g>
<!-- src/draw_erase_animate.ts -->
<g id="node4" class="node">
<title>src/draw_erase_animate.ts</title>
<g id="a_node4"><a xlink:href="src/draw_erase_animate.ts" xlink:title="draw_erase_animate.ts">
<path fill="#ddfeff" stroke="#000000" d="M531.9257,-353.2999C531.9257,-353.2999 435.2852,-353.2999 435.2852,-353.2999 432.1848,-353.2999 429.0845,-350.1995 429.0845,-347.0992 429.0845,-347.0992 429.0845,-340.8985 429.0845,-340.8985 429.0845,-337.7981 432.1848,-334.6978 435.2852,-334.6978 435.2852,-334.6978 531.9257,-334.6978 531.9257,-334.6978 535.026,-334.6978 538.1264,-337.7981 538.1264,-340.8985 538.1264,-340.8985 538.1264,-347.0992 538.1264,-347.0992 538.1264,-350.1995 535.026,-353.2999 531.9257,-353.2999"/>
<text text-anchor="middle" x="483.6054" y="-341.2988" font-family="Helvetica,sans-Serif" font-size="9.00" fill="#000000">draw_erase_animate.ts</text>
</a>
</g>
</g>
<!-- src/both_sides.ts&#45;&gt;src/draw_erase_animate.ts -->
<g id="edge3" class="edge">
<title>src/both_sides.ts-&gt;src/draw_erase_animate.ts</title>
<path fill="none" stroke="#000000" stroke-width="2" stroke-opacity="0.200000" d="M402.523,-142.8962C410.7535,-151.1071 422.1878,-163.692 429.4121,-176.588 433.274,-183.482 466.3014,-288.6137 478.821,-328.6639"/>
<polygon fill="#000000" fill-opacity="0.200000" stroke="#000000" stroke-width="2" stroke-opacity="0.200000" points="476.853,-329.4071 480.6466,-334.5079 480.8619,-328.1547 476.853,-329.4071"/>
</g>
<!-- src/env.ts -->
<g id="node5" class="node">
<title>src/env.ts</title>
<g id="a_node5"><a xlink:href="src/env.ts" xlink:title="env.ts">
<path fill="#e6ffe6" stroke="#000000" d="M643.8868,-188.9478C643.8868,-188.9478 602.2882,-188.9478 602.2882,-188.9478 599.1878,-188.9478 596.0875,-185.8475 596.0875,-182.7471 596.0875,-182.7471 596.0875,-176.5464 596.0875,-176.5464 596.0875,-173.4461 599.1878,-170.3457 602.2882,-170.3457 602.2882,-170.3457 643.8868,-170.3457 643.8868,-170.3457 646.9871,-170.3457 650.0875,-173.4461 650.0875,-176.5464 650.0875,-176.5464 650.0875,-182.7471 650.0875,-182.7471 650.0875,-185.8475 646.9871,-188.9478 643.8868,-188.9478"/>
<text text-anchor="middle" x="623.0875" y="-176.9468" font-family="Helvetica,sans-Serif" font-size="9.00" fill="#000000">env.ts</text>
</a>
</g>
</g>
<!-- src/both_sides.ts&#45;&gt;src/env.ts -->
<g id="edge4" class="edge">
<title>src/both_sides.ts-&gt;src/env.ts</title>
<path fill="none" stroke="#000000" stroke-width="2" stroke-opacity="0.200000" d="M427.0481,-135.7163C453.9164,-137.8861 492.0107,-141.9013 524.8114,-148.8804 547.6318,-153.7359 572.7242,-161.6361 591.8421,-168.215"/>
<polygon fill="#000000" fill-opacity="0.200000" stroke="#000000" stroke-width="2" stroke-opacity="0.200000" points="591.2174,-170.2211 597.5743,-170.2095 592.5977,-166.2543 591.2174,-170.2211"/>
</g>
<!-- src/game_state.ts -->
<g id="node6" class="node">
<title>src/game_state.ts</title>
<g id="a_node6"><a xlink:href="src/game_state.ts" xlink:title="game_state.ts">
<path fill="#dddeff" stroke="#000000" d="M511.5639,-208.6091C511.5639,-208.6091 451.9239,-208.6091 451.9239,-208.6091 448.8235,-208.6091 445.7232,-205.5088 445.7232,-202.4084 445.7232,-202.4084 445.7232,-196.2077 445.7232,-196.2077 445.7232,-193.1074 448.8235,-190.007 451.9239,-190.007 451.9239,-190.007 511.5639,-190.007 511.5639,-190.007 514.6642,-190.007 517.7646,-193.1074 517.7646,-196.2077 517.7646,-196.2077 517.7646,-202.4084 517.7646,-202.4084 517.7646,-205.5088 514.6642,-208.6091 511.5639,-208.6091"/>
<text text-anchor="middle" x="481.7439" y="-196.6081" font-family="Helvetica,sans-Serif" font-size="9.00" fill="#000000">game_state.ts</text>
</a>
</g>
</g>
<!-- src/both_sides.ts&#45;&gt;src/game_state.ts -->
<g id="edge5" class="edge">
<title>src/both_sides.ts-&gt;src/game_state.ts</title>
<path fill="none" stroke="#000000" stroke-width="2" stroke-opacity="0.666667" d="M399.0172,-142.8459C405.6099,-151.7773 416.4956,-165.1518 428.381,-174.0804 435.1711,-179.1813 443.1574,-183.6234 450.8538,-187.2988"/>
<polygon fill="#000000" fill-opacity="0.666667" stroke="#000000" stroke-width="2" stroke-opacity="0.666667" points="450.3286,-189.3681 456.6581,-189.9581 452.0781,-185.5497 450.3286,-189.3681"/>
</g>
<!-- src/html_top_left.ts -->
<g id="node7" class="node">
<title>src/html_top_left.ts</title>
<g id="a_node7"><a xlink:href="src/html_top_left.ts" xlink:title="html_top_left.ts">
<path fill="#e6ffe6" stroke="#000000" d="M224.0263,-371.8795C224.0263,-371.8795 159.3967,-371.8795 159.3967,-371.8795 156.2963,-371.8795 153.196,-368.7792 153.196,-365.6788 153.196,-365.6788 153.196,-359.4781 153.196,-359.4781 153.196,-356.3778 156.2963,-353.2774 159.3967,-353.2774 159.3967,-353.2774 224.0263,-353.2774 224.0263,-353.2774 227.1266,-353.2774 230.227,-356.3778 230.227,-359.4781 230.227,-359.4781 230.227,-365.6788 230.227,-365.6788 230.227,-368.7792 227.1266,-371.8795 224.0263,-371.8795"/>
<text text-anchor="middle" x="191.7115" y="-359.8785" font-family="Helvetica,sans-Serif" font-size="9.00" fill="#000000">html_top_left.ts</text>
</a>
</g>
</g>
<!-- src/both_sides.ts&#45;&gt;src/html_top_left.ts -->
<g id="edge6" class="edge">
<title>src/both_sides.ts-&gt;src/html_top_left.ts</title>
<path fill="none" stroke="#000000" stroke-width="2" stroke-opacity="0.200000" d="M383.633,-142.997C375.5806,-151.6882 363.4038,-164.9193 353.004,-176.588 296.3176,-240.1906 230.1171,-317.5111 203.5882,-348.6239"/>
<polygon fill="#000000" fill-opacity="0.200000" stroke="#000000" stroke-width="2" stroke-opacity="0.200000" points="201.9721,-347.2826 199.6786,-353.2113 205.1688,-350.0068 201.9721,-347.2826"/>
</g>
<!-- src/kiar_ark.ts -->
<g id="node8" class="node">
<title>src/kiar_ark.ts</title>
<g id="a_node8"><a xlink:href="src/kiar_ark.ts" xlink:title="kiar_ark.ts">
<path fill="#e6ffe6" stroke="#000000" d="M73.1487,-51.6442C73.1487,-51.6442 28.5442,-51.6442 28.5442,-51.6442 25.4439,-51.6442 22.3435,-48.5439 22.3435,-45.4435 22.3435,-45.4435 22.3435,-39.2428 22.3435,-39.2428 22.3435,-36.1425 25.4439,-33.0421 28.5442,-33.0421 28.5442,-33.0421 73.1487,-33.0421 73.1487,-33.0421 76.2491,-33.0421 79.3494,-36.1425 79.3494,-39.2428 79.3494,-39.2428 79.3494,-45.4435 79.3494,-45.4435 79.3494,-48.5439 76.2491,-51.6442 73.1487,-51.6442"/>
<text text-anchor="middle" x="50.8465" y="-39.6432" font-family="Helvetica,sans-Serif" font-size="9.00" fill="#000000">kiar_ark.ts</text>
</a>
</g>
</g>
<!-- src/both_sides.ts&#45;&gt;src/kiar_ark.ts -->
<g id="edge7" class="edge">
<title>src/both_sides.ts-&gt;src/kiar_ark.ts</title>
<path fill="none" stroke="#000000" stroke-width="2" stroke-opacity="0.200000" d="M357.8517,-124.2359C292.4448,-106.7888 151.4488,-69.1785 85.8001,-51.6669"/>
<polygon fill="#000000" fill-opacity="0.200000" stroke="#000000" stroke-width="2" stroke-opacity="0.200000" points="86.0259,-49.5538 79.6873,-50.0364 84.9433,-53.6119 86.0259,-49.5538"/>
</g>
<!-- src/piece_to_path.ts -->
<g id="node9" class="node">
<title>src/piece_to_path.ts</title>
<path fill="#e6ffe6" stroke="#000000" d="M704.4111,-353.6391C704.4111,-353.6391 634.7537,-353.6391 634.7537,-353.6391 631.6533,-353.6391 628.553,-350.5387 628.553,-347.4384 628.553,-347.4384 628.553,-341.2377 628.553,-341.2377 628.553,-338.1373 631.6533,-335.037 634.7537,-335.037 634.7537,-335.037 704.4111,-335.037 704.4111,-335.037 707.5114,-335.037 710.6118,-338.1373 710.6118,-341.2377 710.6118,-341.2377 710.6118,-347.4384 710.6118,-347.4384 710.6118,-350.5387 707.5114,-353.6391 704.4111,-353.6391"/>
<text text-anchor="middle" x="669.5824" y="-341.638" font-family="Helvetica,sans-Serif" font-size="9.00" fill="#000000">piece_to_path.ts</text>
</g>
<!-- src/both_sides.ts&#45;&gt;src/piece_to_path.ts -->
<g id="edge8" class="edge">
<title>src/both_sides.ts-&gt;src/piece_to_path.ts</title>
<path fill="none" stroke="#000000" stroke-width="2" stroke-opacity="0.200000" d="M402.4028,-142.9649C410.56,-151.2178 421.9542,-163.8257 429.4121,-176.588 437.8417,-191.0134 431.5674,-199.0902 442.2843,-211.9081 494.9256,-274.8688 585.658,-314.6908 635.0695,-332.8362"/>
<polygon fill="#000000" fill-opacity="0.200000" stroke="#000000" stroke-width="2" stroke-opacity="0.200000" points="634.5286,-334.8737 640.8851,-334.9417 635.9584,-330.9246 634.5286,-334.8737"/>
</g>
<!-- src/score_display.ts -->
<g id="node10" class="node">
<title>src/score_display.ts</title>
<g id="a_node10"><a xlink:href="src/score_display.ts" xlink:title="score_display.ts">
<path fill="#ddfeff" stroke="#000000" d="M250.5113,-189.5228C250.5113,-189.5228 182.8875,-189.5228 182.8875,-189.5228 179.7872,-189.5228 176.6868,-186.4224 176.6868,-183.3221 176.6868,-183.3221 176.6868,-177.1214 176.6868,-177.1214 176.6868,-174.021 179.7872,-170.9207 182.8875,-170.9207 182.8875,-170.9207 250.5113,-170.9207 250.5113,-170.9207 253.6116,-170.9207 256.712,-174.021 256.712,-177.1214 256.712,-177.1214 256.712,-183.3221 256.712,-183.3221 256.712,-186.4224 253.6116,-189.5228 250.5113,-189.5228"/>
<text text-anchor="middle" x="216.6994" y="-177.5217" font-family="Helvetica,sans-Serif" font-size="9.00" fill="#000000">score_display.ts</text>
</a>
</g>
</g>
<!-- src/both_sides.ts&#45;&gt;src/score_display.ts -->
<g id="edge9" class="edge">
<title>src/both_sides.ts-&gt;src/score_display.ts</title>
<path fill="none" stroke="#000000" stroke-width="2" stroke-opacity="0.200000" d="M357.8002,-134.8546C334.5835,-136.5407 303.5899,-140.28 277.3457,-148.5624 262.9398,-153.1088 247.8786,-160.9523 236.3692,-167.6946"/>
<polygon fill="#000000" fill-opacity="0.200000" stroke="#000000" stroke-width="2" stroke-opacity="0.200000" points="235.0912,-166.0121 231.0229,-170.8967 237.2493,-169.6153 235.0912,-166.0121"/>
</g>
<!-- src/create_html_element.ts&#45;&gt;src/html_top_left.ts -->
<g id="edge11" class="edge">
<title>src/create_html_element.ts-&gt;src/html_top_left.ts</title>
<path fill="none" stroke="#000000" stroke-width="2" stroke-opacity="0.200000" d="M283.8436,-351.616C268.2948,-353.4661 251.5438,-355.4592 236.6445,-357.2321"/>
<polygon fill="#000000" fill-opacity="0.200000" stroke="#000000" stroke-width="2" stroke-opacity="0.200000" points="236.0912,-355.183 230.3813,-357.9773 236.5875,-359.3536 236.0912,-355.183"/>
</g>
<!-- src/create_html_element.ts&#45;&gt;src/piece_to_path.ts -->
<g id="edge12" class="edge">
<title>src/create_html_element.ts-&gt;src/piece_to_path.ts</title>
<path fill="none" stroke="#000000" stroke-width="2" stroke-opacity="0.200000" d="M393.2478,-353.4416C403.9654,-354.7571 415.1389,-355.9093 425.6455,-356.5988 477.0548,-359.9725 490.1041,-359.0575 541.5654,-356.5988 568.395,-355.317 598.2798,-352.5322 622.423,-349.9401"/>
<polygon fill="#000000" fill-opacity="0.200000" stroke="#000000" stroke-width="2" stroke-opacity="0.200000" points="622.6945,-352.0231 628.4321,-349.2863 622.2401,-347.8477 622.6945,-352.0231"/>
</g>
<!-- src/draw_erase_animate.ts&#45;&gt;src/create_html_element.ts -->
<g id="edge13" class="edge">
<title>src/draw_erase_animate.ts-&gt;src/create_html_element.ts</title>
<path fill="none" stroke="#000000" stroke-width="2" stroke-opacity="0.200000" d="M428.7486,-344.4197C419.1783,-344.4932 409.1705,-344.57 399.4481,-344.6446"/>
<polygon fill="#000000" fill-opacity="0.200000" stroke="#000000" stroke-width="2" stroke-opacity="0.200000" points="399.4216,-342.5446 393.4379,-344.6907 399.4539,-346.7445 399.4216,-342.5446"/>
</g>
<!-- src/draw_erase_animate.ts&#45;&gt;src/html_top_left.ts -->
<g id="edge14" class="edge">
<title>src/draw_erase_animate.ts-&gt;src/html_top_left.ts</title>
<path fill="none" stroke="#000000" stroke-width="2" stroke-opacity="0.200000" d="M431.6752,-353.3238C420.1193,-355.0766 407.903,-356.6807 396.4631,-357.7122 341.5576,-362.6629 278.0567,-363.4019 236.5102,-363.2148"/>
<polygon fill="#000000" fill-opacity="0.200000" stroke="#000000" stroke-width="2" stroke-opacity="0.200000" points="236.3016,-361.1137 230.2896,-363.1791 236.2774,-365.3136 236.3016,-361.1137"/>
</g>
<!-- src/draw_erase_animate.ts&#45;&gt;src/piece_to_path.ts -->
<g id="edge15" class="edge">
<title>src/draw_erase_animate.ts-&gt;src/piece_to_path.ts</title>
<path fill="none" stroke="#000000" stroke-width="2" stroke-opacity="0.200000" d="M538.3988,-344.0988C565.0818,-344.1474 596.8434,-344.2054 622.4305,-344.252"/>
<polygon fill="#000000" fill-opacity="0.200000" stroke="#000000" stroke-width="2" stroke-opacity="0.200000" points="622.4556,-346.352 628.4595,-344.263 622.4633,-342.152 622.4556,-346.352"/>
</g>
<!-- src/opponent_move.ts -->
<g id="node15" class="node">
<title>src/opponent_move.ts</title>
<g id="a_node15"><a xlink:href="src/opponent_move.ts" xlink:title="opponent_move.ts">
<path fill="#dddeff" stroke="#000000" d="M515.4259,-170.7814C515.4259,-170.7814 437.7665,-170.7814 437.7665,-170.7814 434.6661,-170.7814 431.5658,-167.6811 431.5658,-164.5807 431.5658,-164.5807 431.5658,-158.38 431.5658,-158.38 431.5658,-155.2797 434.6661,-152.1793 437.7665,-152.1793 437.7665,-152.1793 515.4259,-152.1793 515.4259,-152.1793 518.5262,-152.1793 521.6266,-155.2797 521.6266,-158.38 521.6266,-158.38 521.6266,-164.5807 521.6266,-164.5807 521.6266,-167.6811 518.5262,-170.7814 515.4259,-170.7814"/>
<text text-anchor="middle" x="476.5962" y="-158.7804" font-family="Helvetica,sans-Serif" font-size="9.00" fill="#000000">opponent_move.ts</text>
</a>
</g>
</g>
<!-- src/game_state.ts&#45;&gt;src/opponent_move.ts -->
<g id="edge37" class="edge">
<title>src/game_state.ts-&gt;src/opponent_move.ts</title>
<path fill="none" stroke="#0000ff" stroke-width="2" d="M479.6174,-183.6817C479.3219,-181.5103 479.0183,-179.2793 478.7228,-177.1079"/>
<polygon fill="#0000ff" stroke="#0000ff" stroke-width="2" points="477.555,-184.1005 480.4449,-189.7626 481.7166,-183.5342 477.555,-184.1005"/>
<polygon fill="#0000ff" stroke="#0000ff" stroke-width="2" points="480.7669,-176.5538 477.8769,-170.8918 476.6052,-177.1202 480.7669,-176.5538"/>
</g>
<!-- src/score_display.ts&#45;&gt;src/create_html_element.ts -->
<g id="edge44" class="edge">
<title>src/score_display.ts-&gt;src/create_html_element.ts</title>
<path fill="none" stroke="#000000" stroke-width="2" stroke-opacity="0.200000" d="M223.5971,-189.5594C243.8517,-216.9788 303.2649,-297.4084 327.7582,-330.5659"/>
<polygon fill="#000000" fill-opacity="0.200000" stroke="#000000" stroke-width="2" stroke-opacity="0.200000" points="326.124,-331.8879 331.3781,-335.4662 329.5022,-329.3924 326.124,-331.8879"/>
</g>
<!-- src/to_digits.ts -->
<g id="node16" class="node">
<title>src/to_digits.ts</title>
<g id="a_node16"><a xlink:href="src/to_digits.ts" xlink:title="to_digits.ts">
<path fill="#e6ffe6" stroke="#000000" d="M52.8228,-311.0602C52.8228,-311.0602 6.2022,-311.0602 6.2022,-311.0602 3.1018,-311.0602 .0015,-307.9599 .0015,-304.8595 .0015,-304.8595 .0015,-298.6588 .0015,-298.6588 .0015,-295.5585 3.1018,-292.4581 6.2022,-292.4581 6.2022,-292.4581 52.8228,-292.4581 52.8228,-292.4581 55.9231,-292.4581 59.0235,-295.5585 59.0235,-298.6588 59.0235,-298.6588 59.0235,-304.8595 59.0235,-304.8595 59.0235,-307.9599 55.9231,-311.0602 52.8228,-311.0602"/>
<text text-anchor="middle" x="29.5125" y="-299.0592" font-family="Helvetica,sans-Serif" font-size="9.00" fill="#000000">to_digits.ts</text>
</a>
</g>
</g>
<!-- src/score_display.ts&#45;&gt;src/to_digits.ts -->
<g id="edge45" class="edge">
<title>src/score_display.ts-&gt;src/to_digits.ts</title>
<path fill="none" stroke="#000000" stroke-width="2" stroke-opacity="0.200000" d="M202.322,-189.5568C169.1121,-211.1194 87.0248,-264.4174 49.189,-288.9835"/>
<polygon fill="#000000" fill-opacity="0.200000" stroke="#000000" stroke-width="2" stroke-opacity="0.200000" points="47.8276,-287.3636 43.9389,-292.3923 50.1148,-290.8862 47.8276,-287.3636"/>
</g>
<!-- src/capture_info.ts -->
<g id="node11" class="node">
<title>src/capture_info.ts</title>
<g id="a_node11"><a xlink:href="src/capture_info.ts" xlink:title="capture_info.ts">
<path fill="#ddfeff" stroke="#000000" d="M692.9961,-28.293C692.9961,-28.293 630.3589,-28.293 630.3589,-28.293 627.2585,-28.293 624.1582,-25.1926 624.1582,-22.0923 624.1582,-22.0923 624.1582,-15.8916 624.1582,-15.8916 624.1582,-12.7912 627.2585,-9.6909 630.3589,-9.6909 630.3589,-9.6909 692.9961,-9.6909 692.9961,-9.6909 696.0964,-9.6909 699.1968,-12.7912 699.1968,-15.8916 699.1968,-15.8916 699.1968,-22.0923 699.1968,-22.0923 699.1968,-25.1926 696.0964,-28.293 692.9961,-28.293"/>
<text text-anchor="middle" x="661.6775" y="-16.2919" font-family="Helvetica,sans-Serif" font-size="9.00" fill="#000000">capture_info.ts</text>
</a>
</g>
</g>
<!-- src/serialize.ts -->
<g id="node12" class="node">
<title>src/serialize.ts</title>
<g id="a_node12"><a xlink:href="src/serialize.ts" xlink:title="serialize.ts">
<path fill="#e6ffe6" stroke="#000000" d="M478.6531,-24.3955C478.6531,-24.3955 432.0524,-24.3955 432.0524,-24.3955 428.9521,-24.3955 425.8517,-21.2951 425.8517,-18.1948 425.8517,-18.1948 425.8517,-11.9941 425.8517,-11.9941 425.8517,-8.8937 428.9521,-5.7934 432.0524,-5.7934 432.0524,-5.7934 478.6531,-5.7934 478.6531,-5.7934 481.7535,-5.7934 484.8538,-8.8937 484.8538,-11.9941 484.8538,-11.9941 484.8538,-18.1948 484.8538,-18.1948 484.8538,-21.2951 481.7535,-24.3955 478.6531,-24.3955"/>
<text text-anchor="middle" x="455.3528" y="-12.3944" font-family="Helvetica,sans-Serif" font-size="9.00" fill="#000000">serialize.ts</text>
</a>
</g>
</g>
<!-- src/capture_info.ts&#45;&gt;src/serialize.ts -->
<g id="edge10" class="edge">
<title>src/capture_info.ts-&gt;src/serialize.ts</title>
<path fill="none" stroke="#000000" stroke-width="2" stroke-opacity="0.200000" d="M623.8344,-18.2771C585.8933,-17.5604 527.9276,-16.4654 490.842,-15.7648"/>
<polygon fill="#000000" fill-opacity="0.200000" stroke="#000000" stroke-width="2" stroke-opacity="0.200000" points="490.6618,-13.6612 484.6232,-15.6474 490.5824,-17.8604 490.6618,-13.6612"/>
</g>
<!-- src/main.ts -->
<g id="node13" class="node">
<title>src/main.ts</title>
<g id="a_node13"><a xlink:href="src/main.ts" xlink:title="main.ts">
<path fill="#dddeff" stroke="#000000" d="M328.345,-170.4635C328.345,-170.4635 286.7464,-170.4635 286.7464,-170.4635 283.6461,-170.4635 280.5457,-167.3631 280.5457,-164.2628 280.5457,-164.2628 280.5457,-158.0621 280.5457,-158.0621 280.5457,-154.9617 283.6461,-151.8614 286.7464,-151.8614 286.7464,-151.8614 328.345,-151.8614 328.345,-151.8614 331.4454,-151.8614 334.5457,-154.9617 334.5457,-158.0621 334.5457,-158.0621 334.5457,-164.2628 334.5457,-164.2628 334.5457,-167.3631 331.4454,-170.4635 328.345,-170.4635"/>
<text text-anchor="middle" x="307.5457" y="-158.4624" font-family="Helvetica,sans-Serif" font-size="9.00" fill="#000000">main.ts</text>
</a>
</g>
</g>
<!-- src/main.ts&#45;&gt;src/both_sides.ts -->
<g id="edge16" class="edge">
<title>src/main.ts-&gt;src/both_sides.ts</title>
<path fill="none" stroke="#ff0000" stroke-width="2" d="M340.6236,-150.3811C346.2259,-148.5551 352.0577,-146.6543 357.7023,-144.8145"/>
<polygon fill="#ff0000" stroke="#ff0000" stroke-width="2" points="339.9442,-148.3937 334.8904,-152.2498 341.2458,-152.387 339.9442,-148.3937"/>
<polygon fill="#ff0000" stroke="#ff0000" stroke-width="2" points="358.6801,-146.7046 363.7339,-142.8486 357.3785,-142.7114 358.6801,-146.7046"/>
</g>
<!-- src/main.ts&#45;&gt;src/create_html_element.ts -->
<g id="edge18" class="edge">
<title>src/main.ts-&gt;src/create_html_element.ts</title>
<path fill="none" stroke="#000000" stroke-width="2" stroke-opacity="0.200000" d="M309.1235,-170.5374C314.1113,-200.1746 329.5776,-292.0746 335.8352,-329.2569"/>
<polygon fill="#000000" fill-opacity="0.200000" stroke="#000000" stroke-width="2" stroke-opacity="0.200000" points="333.8251,-329.9673 336.8919,-335.5355 337.9669,-329.2702 333.8251,-329.9673"/>
</g>
<!-- src/main.ts&#45;&gt;src/dictionary.ts -->
<g id="edge19" class="edge">
<title>src/main.ts-&gt;src/dictionary.ts</title>
<path fill="none" stroke="#000000" stroke-width="2" stroke-opacity="0.200000" d="M305.0567,-151.6882C298.3856,-126.2951 280.0557,-56.5228 271.8371,-25.2393"/>
<polygon fill="#000000" fill-opacity="0.200000" stroke="#000000" stroke-width="2" stroke-opacity="0.200000" points="273.8003,-24.4472 270.2446,-19.1777 269.7382,-25.5144 273.8003,-24.4472"/>
</g>
<!-- src/main.ts&#45;&gt;src/draw_erase_animate.ts -->
<g id="edge20" class="edge">
<title>src/main.ts-&gt;src/draw_erase_animate.ts</title>
<path fill="none" stroke="#000000" stroke-width="2" stroke-opacity="0.200000" d="M316.5186,-170.4807C345.3554,-200.4274 435.7789,-294.3314 470.1584,-330.0342"/>
<polygon fill="#000000" fill-opacity="0.200000" stroke="#000000" stroke-width="2" stroke-opacity="0.200000" points="468.765,-331.6147 474.4395,-334.4801 471.7904,-328.7014 468.765,-331.6147"/>
</g>
<!-- src/main.ts&#45;&gt;src/game_state.ts -->
<g id="edge21" class="edge">
<title>src/main.ts-&gt;src/game_state.ts</title>
<path fill="none" stroke="#000000" stroke-width="2" stroke-opacity="0.666667" d="M334.5994,-162.3873C359.5833,-164.0325 397.5344,-167.8427 429.4121,-176.588 438.8803,-179.1856 448.8622,-183.1779 457.5405,-187.0955"/>
<polygon fill="#000000" fill-opacity="0.666667" stroke="#000000" stroke-width="2" stroke-opacity="0.666667" points="456.9915,-189.1559 463.318,-189.7777 458.7601,-185.3464 456.9915,-189.1559"/>
</g>
<!-- src/main.ts&#45;&gt;src/html_top_left.ts -->
<g id="edge22" class="edge">
<title>src/main.ts-&gt;src/html_top_left.ts</title>
<path fill="none" stroke="#000000" stroke-width="2" stroke-opacity="0.200000" d="M302.1141,-170.607C283.612,-202.779 222.9424,-308.2732 200.3184,-347.6124"/>
<polygon fill="#000000" fill-opacity="0.200000" stroke="#000000" stroke-width="2" stroke-opacity="0.200000" points="198.4369,-346.6718 197.2661,-352.92 202.0778,-348.7657 198.4369,-346.6718"/>
</g>
<!-- src/main.ts&#45;&gt;src/kiar_ark.ts -->
<g id="edge23" class="edge">
<title>src/main.ts-&gt;src/kiar_ark.ts</title>
<path fill="none" stroke="#000000" stroke-width="2" stroke-opacity="0.200000" d="M287.403,-151.8389C241.3114,-130.5043 128.1991,-78.1476 76.8993,-54.4023"/>
<polygon fill="#000000" fill-opacity="0.200000" stroke="#000000" stroke-width="2" stroke-opacity="0.200000" points="77.578,-52.4025 71.2509,-51.7878 75.8137,-56.214 77.578,-52.4025"/>
</g>
<!-- src/main.ts&#45;&gt;src/piece_to_path.ts -->
<g id="edge26" class="edge">
<title>src/main.ts-&gt;src/piece_to_path.ts</title>
<path fill="none" stroke="#000000" stroke-width="2" stroke-opacity="0.200000" d="M316.5978,-170.7982C325.3067,-179.6738 339.1583,-192.7917 353.004,-201.788 448.5366,-263.861 575.5728,-311.9805 635.5176,-332.9141"/>
<polygon fill="#000000" fill-opacity="0.200000" stroke="#000000" stroke-width="2" stroke-opacity="0.200000" points="635.0955,-334.9904 641.4524,-334.9741 636.4728,-331.0226 635.0955,-334.9904"/>
</g>
<!-- src/main.ts&#45;&gt;src/score_display.ts -->
<g id="edge27" class="edge">
<title>src/main.ts-&gt;src/score_display.ts</title>
<path fill="none" stroke="#000000" stroke-width="2" stroke-opacity="0.200000" d="M280.2888,-166.8808C274.8011,-168.0322 268.8898,-169.2723 262.9594,-170.5165"/>
<polygon fill="#000000" fill-opacity="0.200000" stroke="#000000" stroke-width="2" stroke-opacity="0.200000" points="262.4787,-168.4716 257.0377,-171.7589 263.3411,-172.5821 262.4787,-168.4716"/>
</g>
<!-- src/main.ts&#45;&gt;src/capture_info.ts -->
<g id="edge17" class="edge">
<title>src/main.ts-&gt;src/capture_info.ts</title>
<path fill="none" stroke="#000000" stroke-width="2" stroke-opacity="0.200000" d="M316.4906,-151.6478C325.4305,-142.6248 339.9466,-129.2389 354.781,-120.8757 441.7761,-71.8307 556.0577,-41.7508 617.6969,-27.961"/>
<polygon fill="#000000" fill-opacity="0.200000" stroke="#000000" stroke-width="2" stroke-opacity="0.200000" points="618.4535,-29.9445 623.8581,-26.5978 617.5461,-25.8437 618.4535,-29.9445"/>
</g>
<!-- src/main.ts&#45;&gt;src/serialize.ts -->
<g id="edge28" class="edge">
<title>src/main.ts-&gt;src/serialize.ts</title>
<path fill="none" stroke="#000000" stroke-width="2" stroke-opacity="0.200000" d="M317.2437,-151.5785C342.7264,-126.3956 411.6542,-58.2788 441.3882,-28.8947"/>
<polygon fill="#000000" fill-opacity="0.200000" stroke="#000000" stroke-width="2" stroke-opacity="0.200000" points="443.0196,-30.235 445.8112,-24.5238 440.0674,-27.2476 443.0196,-30.235"/>
</g>
<!-- src/main_entry.ts -->
<g id="node14" class="node">
<title>src/main_entry.ts</title>
<g id="a_node14"><a xlink:href="src/main_entry.ts" xlink:title="main_entry.ts">
<path fill="#dddeff" stroke="#000000" d="M420.0154,-198.4891C420.0154,-198.4891 362.4006,-198.4891 362.4006,-198.4891 359.3003,-198.4891 356.1999,-195.3888 356.1999,-192.2884 356.1999,-192.2884 356.1999,-186.0877 356.1999,-186.0877 356.1999,-182.9873 359.3003,-179.887 362.4006,-179.887 362.4006,-179.887 420.0154,-179.887 420.0154,-179.887 423.1158,-179.887 426.2161,-182.9873 426.2161,-186.0877 426.2161,-186.0877 426.2161,-192.2884 426.2161,-192.2884 426.2161,-195.3888 423.1158,-198.4891 420.0154,-198.4891"/>
<text text-anchor="middle" x="391.208" y="-186.488" font-family="Helvetica,sans-Serif" font-size="9.00" fill="#000000">main_entry.ts</text>
</a>
</g>
</g>
<!-- src/main.ts&#45;&gt;src/main_entry.ts -->
<g id="edge24" class="edge">
<title>src/main.ts-&gt;src/main_entry.ts</title>
<path fill="none" stroke="#000000" stroke-width="2" stroke-opacity="0.666667" d="M334.9399,-170.3391C342.0137,-172.7087 349.7153,-175.2886 357.0862,-177.7577"/>
<polygon fill="#000000" fill-opacity="0.666667" stroke="#000000" stroke-width="2" stroke-opacity="0.666667" points="356.8225,-179.884 363.1788,-179.7987 358.1566,-175.9015 356.8225,-179.884"/>
</g>
<!-- src/main.ts&#45;&gt;src/opponent_move.ts -->
<g id="edge25" class="edge">
<title>src/main.ts-&gt;src/opponent_move.ts</title>
<path fill="none" stroke="#000000" stroke-width="2" stroke-opacity="0.666667" d="M334.7066,-161.2135C359.0174,-161.2592 395.3153,-161.3275 425.112,-161.3835"/>
<polygon fill="#000000" fill-opacity="0.666667" stroke="#000000" stroke-width="2" stroke-opacity="0.666667" points="425.361,-163.4839 431.3649,-161.3953 425.3689,-159.2839 425.361,-163.4839"/>
</g>
<!-- src/main.ts&#45;&gt;src/to_digits.ts -->
<g id="edge29" class="edge">
<title>src/main.ts-&gt;src/to_digits.ts</title>
<path fill="none" stroke="#000000" stroke-width="2" stroke-opacity="0.200000" d="M294.5982,-170.5691C285.253,-177.1689 272.2099,-185.9976 260.1549,-192.8217 189.5266,-232.8034 101.8159,-271.3715 57.6799,-290.0586"/>
<polygon fill="#000000" fill-opacity="0.200000" stroke="#000000" stroke-width="2" stroke-opacity="0.200000" points="56.7155,-288.1861 52.004,-292.4537 58.3485,-292.0557 56.7155,-288.1861"/>
</g>
<!-- src/main_entry.ts&#45;&gt;src/draw_erase_animate.ts -->
<g id="edge30" class="edge">
<title>src/main_entry.ts-&gt;src/draw_erase_animate.ts</title>
<path fill="none" stroke="#000000" stroke-width="2" stroke-opacity="0.200000" d="M396.9879,-198.8722C412.609,-225.0451 455.7591,-297.3426 474.604,-328.917"/>
<polygon fill="#000000" fill-opacity="0.200000" stroke="#000000" stroke-width="2" stroke-opacity="0.200000" points="472.9494,-330.2425 477.8277,-334.3184 476.5559,-328.09 472.9494,-330.2425"/>
</g>
<!-- src/main_entry.ts&#45;&gt;src/game_state.ts -->
<g id="edge31" class="edge">
<title>src/main_entry.ts-&gt;src/game_state.ts</title>
<path fill="none" stroke="#000000" stroke-width="2" stroke-opacity="0.666667" d="M426.4708,-193.1297C430.674,-193.5995 434.9984,-194.0829 439.2889,-194.5625"/>
<polygon fill="#000000" fill-opacity="0.666667" stroke="#000000" stroke-width="2" stroke-opacity="0.666667" points="439.3366,-196.6808 445.5327,-195.2604 439.8032,-192.5068 439.3366,-196.6808"/>
</g>
<!-- src/main_entry.ts&#45;&gt;src/kiar_ark.ts -->
<g id="edge32" class="edge">
<title>src/main_entry.ts-&gt;src/kiar_ark.ts</title>
<path fill="none" stroke="#000000" stroke-width="2" stroke-opacity="0.200000" d="M380.8002,-179.7834C370.4712,-170.8254 353.8902,-157.4282 337.7457,-148.5624 251.9516,-101.4483 141.0053,-67.1224 85.578,-51.5879"/>
<polygon fill="#000000" fill-opacity="0.200000" stroke="#000000" stroke-width="2" stroke-opacity="0.200000" points="86.0875,-49.55 79.7442,-49.965 84.9618,-53.5963 86.0875,-49.55"/>
</g>
<!-- src/opponent_move.ts&#45;&gt;src/both_sides.ts -->
<g id="edge33" class="edge">
<title>src/opponent_move.ts-&gt;src/both_sides.ts</title>
<path fill="none" stroke="#00ff00" stroke-width="2" d="M442.576,-150.1527C437.232,-148.3733 431.7081,-146.534 426.3673,-144.7557"/>
<polygon fill="#00ff00" stroke="#00ff00" stroke-width="2" points="442.234,-152.2521 448.5902,-152.1552 443.5609,-148.2672 442.234,-152.2521"/>
<polygon fill="#00ff00" stroke="#00ff00" stroke-width="2" points="427.0171,-142.7588 420.661,-142.8556 425.6902,-146.7437 427.0171,-142.7588"/>
</g>
<!-- src/opponent_move.ts&#45;&gt;src/dictionary.ts -->
<g id="edge35" class="edge">
<title>src/opponent_move.ts-&gt;src/dictionary.ts</title>
<path fill="none" stroke="#000000" stroke-width="2" stroke-opacity="0.200000" d="M466.5733,-152.0894C457.3707,-143.6186 443.227,-130.9764 430.2,-120.8757 380.9276,-82.6716 319.3794,-42.4584 288.0787,-22.5039"/>
<polygon fill="#000000" fill-opacity="0.200000" stroke="#000000" stroke-width="2" stroke-opacity="0.200000" points="289.1483,-20.6955 282.9582,-19.2485 286.8948,-24.2398 289.1483,-20.6955"/>
</g>
<!-- src/opponent_move.ts&#45;&gt;src/draw_erase_animate.ts -->
<g id="edge36" class="edge">
<title>src/opponent_move.ts-&gt;src/draw_erase_animate.ts</title>
<path fill="none" stroke="#000000" stroke-width="2" stroke-opacity="0.200000" d="M457.6193,-170.8176C451.5881,-174.8181 445.6223,-180.1107 442.2843,-186.7081 437.228,-196.7017 440.593,-200.8365 442.2843,-211.9081 448.9744,-255.7022 467.4615,-304.9307 477.2827,-329.0493"/>
<polygon fill="#000000" fill-opacity="0.200000" stroke="#000000" stroke-width="2" stroke-opacity="0.200000" points="475.3516,-329.8752 479.5804,-334.6215 479.2345,-328.274 475.3516,-329.8752"/>
</g>
<!-- src/opponent_move.ts&#45;&gt;src/html_top_left.ts -->
<g id="edge38" class="edge">
<title>src/opponent_move.ts-&gt;src/html_top_left.ts</title>
<path fill="none" stroke="#000000" stroke-width="2" stroke-opacity="0.200000" d="M462.3342,-170.8573C455.9361,-175.3376 448.4568,-180.9682 442.2843,-186.7081 435.8314,-192.7088 435.9815,-195.9151 429.4121,-201.788 357.2814,-266.2713 257.803,-325.448 213.9735,-350.2633"/>
<polygon fill="#000000" fill-opacity="0.200000" stroke="#000000" stroke-width="2" stroke-opacity="0.200000" points="212.858,-348.4814 208.6617,-353.2565 214.9199,-352.1405 212.858,-348.4814"/>
</g>
<!-- src/opponent_move.ts&#45;&gt;src/kiar_ark.ts -->
<g id="edge39" class="edge">
<title>src/opponent_move.ts-&gt;src/kiar_ark.ts</title>
<path fill="none" stroke="#000000" stroke-width="2" stroke-opacity="0.200000" d="M431.3749,-157.9679C408.2628,-155.6177 379.8069,-151.8654 354.781,-146.0757 250.695,-121.9958 132.1465,-75.8474 79.0997,-54.1577"/>
<polygon fill="#000000" fill-opacity="0.200000" stroke="#000000" stroke-width="2" stroke-opacity="0.200000" points="79.611,-52.0976 73.2629,-51.7616 78.0159,-55.9829 79.611,-52.0976"/>
</g>
<!-- src/opponent_move.ts&#45;&gt;src/score_display.ts -->
<g id="edge41" class="edge">
<title>src/opponent_move.ts-&gt;src/score_display.ts</title>
<path fill="none" stroke="#000000" stroke-width="2" stroke-opacity="0.200000" d="M431.2905,-165.8902C404.171,-168.4295 369.0064,-171.5464 337.7457,-173.7624 313.0889,-175.5103 285.5762,-177.014 263.0189,-178.1297"/>
<polygon fill="#000000" fill-opacity="0.200000" stroke="#000000" stroke-width="2" stroke-opacity="0.200000" points="262.6847,-176.0434 256.7944,-178.4339 262.8898,-180.2384 262.6847,-176.0434"/>
</g>
<!-- src/opponent_move.ts&#45;&gt;src/capture_info.ts -->
<g id="edge34" class="edge">
<title>src/opponent_move.ts-&gt;src/capture_info.ts</title>
<path fill="none" stroke="#000000" stroke-width="2" stroke-opacity="0.200000" d="M488.7399,-152.1313C520.6269,-127.5825 606.84,-61.2096 644.1143,-32.5133"/>
<polygon fill="#000000" fill-opacity="0.200000" stroke="#000000" stroke-width="2" stroke-opacity="0.200000" points="645.7732,-33.8865 649.2464,-28.5622 643.211,-30.5584 645.7732,-33.8865"/>
</g>
<!-- src/opponent_move.ts&#45;&gt;src/serialize.ts -->
<g id="edge42" class="edge">
<title>src/opponent_move.ts-&gt;src/serialize.ts</title>
<path fill="none" stroke="#000000" stroke-width="2" stroke-opacity="0.200000" d="M475.2023,-151.8756C471.6152,-127.1572 462.0383,-61.1639 457.6307,-30.7911"/>
<polygon fill="#000000" fill-opacity="0.200000" stroke="#000000" stroke-width="2" stroke-opacity="0.200000" points="459.6641,-30.1805 456.7241,-24.5443 455.5077,-30.7837 459.6641,-30.1805"/>
</g>
<!-- src/opponent_move.ts&#45;&gt;src/main_entry.ts -->
<g id="edge40" class="edge">
<title>src/opponent_move.ts-&gt;src/main_entry.ts</title>
<path fill="none" stroke="#000000" stroke-width="2" stroke-opacity="0.666667" d="M447.6876,-170.8609C440.7327,-173.1177 433.231,-175.552 426.0378,-177.8861"/>
<polygon fill="#000000" fill-opacity="0.666667" stroke="#000000" stroke-width="2" stroke-opacity="0.666667" points="425.1457,-175.9677 420.0868,-179.8172 426.442,-179.9627 425.1457,-175.9677"/>
</g>
<!-- src/opponent_move.ts&#45;&gt;src/to_digits.ts -->
<g id="edge43" class="edge">
<title>src/opponent_move.ts-&gt;src/to_digits.ts</title>
<path fill="none" stroke="#000000" stroke-width="2" stroke-opacity="0.200000" d="M431.4857,-164.2983C407.8545,-166.4492 378.5861,-170.1806 353.004,-176.588 237.4631,-205.5268 107.3527,-264.4693 54.1592,-289.7769"/>
<polygon fill="#000000" fill-opacity="0.200000" stroke="#000000" stroke-width="2" stroke-opacity="0.200000" points="53.164,-287.9249 48.6553,-292.4062 54.9745,-291.7147 53.164,-287.9249"/>
</g>
</g>
</svg>