<?xml version="1.0" encoding="UTF-8" standalone="no"?>
<!DOCTYPE svg PUBLIC "-//W3C//DTD SVG 1.1//EN" "http://www.w3.org/Graphics/SVG/1.1/DTD/svg11.dtd">
<!-- Generated by graphviz version 2.40.1 (20161225.0304)
 -->
<!-- Title: dependency&#45;cruiser output Pages: 1 -->
<svg width="254pt" height="184pt" viewBox="0.00 0.00 253.78 184.44" xmlns="http://www.w3.org/2000/svg" xmlns:xlink="http://www.w3.org/1999/xlink">
<g id="graph0" class="graph" transform="scale(1 1) rotate(0) translate(4 180.4449)">
<title>dependency-cruiser output</title>
<polygon fill="#ffffff" stroke="transparent" points="-4,4 -4,-180.4449 249.7788,-180.4449 249.7788,4 -4,4"/>
<!-- src/both_sides.ts -->
<g id="node1" class="node">
<title>src/both_sides.ts</title>
<path fill="#ddfeff" stroke="#000000" d="M67.4491,-167.33C67.4491,-167.33 10.8125,-167.33 10.8125,-167.33 7.7121,-167.33 4.6118,-164.2297 4.6118,-161.1293 4.6118,-161.1293 4.6118,-154.9286 4.6118,-154.9286 4.6118,-151.8283 7.7121,-148.7279 10.8125,-148.7279 10.8125,-148.7279 67.4491,-148.7279 67.4491,-148.7279 70.5494,-148.7279 73.6498,-151.8283 73.6498,-154.9286 73.6498,-154.9286 73.6498,-161.1293 73.6498,-161.1293 73.6498,-164.2297 70.5494,-167.33 67.4491,-167.33"/>
<text text-anchor="middle" x="39.1308" y="-155.329" font-family="Helvetica,sans-Serif" font-size="9.00" fill="#000000">both_sides.ts</text>
</g>
<!-- src/draw_erase_animate.ts -->
<g id="node2" class="node">
<title>src/draw_erase_animate.ts</title>
<path fill="#ddfeff" stroke="#000000" d="M239.3391,-137.8054C239.3391,-137.8054 142.6986,-137.8054 142.6986,-137.8054 139.5982,-137.8054 136.4979,-134.7051 136.4979,-131.6047 136.4979,-131.6047 136.4979,-125.404 136.4979,-125.404 136.4979,-122.3037 139.5982,-119.2033 142.6986,-119.2033 142.6986,-119.2033 239.3391,-119.2033 239.3391,-119.2033 242.4394,-119.2033 245.5398,-122.3037 245.5398,-125.404 245.5398,-125.404 245.5398,-131.6047 245.5398,-131.6047 245.5398,-134.7051 242.4394,-137.8054 239.3391,-137.8054"/>
<text text-anchor="middle" x="191.0188" y="-125.8044" font-family="Helvetica,sans-Serif" font-size="9.00" fill="#000000">draw_erase_animate.ts</text>
</g>
<!-- src/both_sides.ts&#45;&gt;src/draw_erase_animate.ts -->
<g id="edge1" class="edge">
<title>src/both_sides.ts-&gt;src/draw_erase_animate.ts</title>
<path fill="none" stroke="#666666" stroke-width="2" d="M73.977,-151.2554C92.6301,-147.6296 116.0168,-143.0836 136.9715,-139.0103"/>
<polygon fill="#666666" stroke="#666666" stroke-width="2" points="137.61,-141.0256 143.099,-137.8192 136.8085,-136.9028 137.61,-141.0256"/>
</g>
<!-- src/game_state.ts -->
<g id="node3" class="node">
<title>src/game_state.ts</title>
<path fill="#ddfeff" stroke="#000000" d="M201.8033,-31.7006C201.8033,-31.7006 142.1633,-31.7006 142.1633,-31.7006 139.063,-31.7006 135.9626,-28.6003 135.9626,-25.4999 135.9626,-25.4999 135.9626,-19.2992 135.9626,-19.2992 135.9626,-16.1989 139.063,-13.0985 142.1633,-13.0985 142.1633,-13.0985 201.8033,-13.0985 201.8033,-13.0985 204.9036,-13.0985 208.004,-16.1989 208.004,-19.2992 208.004,-19.2992 208.004,-25.4999 208.004,-25.4999 208.004,-28.6003 204.9036,-31.7006 201.8033,-31.7006"/>
<text text-anchor="middle" x="171.9833" y="-19.6996" font-family="Helvetica,sans-Serif" font-size="9.00" fill="#000000">game_state.ts</text>
</g>
<!-- src/both_sides.ts&#45;&gt;src/game_state.ts -->
<g id="edge2" class="edge">
<title>src/both_sides.ts-&gt;src/game_state.ts</title>
<path fill="none" stroke="#666666" stroke-width="2" d="M62.3344,-148.6934C92.6901,-136.0306 143.4629,-113.1559 155.6886,-97.1414 168.8043,-79.961 171.8294,-54.417 172.293,-38.0873"/>
<polygon fill="#666666" stroke="#666666" stroke-width="2" points="174.3966,-37.725 172.3568,-31.7042 170.1968,-37.6829 174.3966,-37.725"/>
</g>
<!-- src/score_display.ts -->
<g id="node4" class="node">
<title>src/score_display.ts</title>
<path fill="#ddfeff" stroke="#000000" d="M163.2645,-176.3459C163.2645,-176.3459 95.6407,-176.3459 95.6407,-176.3459 92.5404,-176.3459 89.44,-173.2456 89.44,-170.1452 89.44,-170.1452 89.44,-163.9445 89.44,-163.9445 89.44,-160.8442 92.5404,-157.7438 95.6407,-157.7438 95.6407,-157.7438 163.2645,-157.7438 163.2645,-157.7438 166.3648,-157.7438 169.4652,-160.8442 169.4652,-163.9445 169.4652,-163.9445 169.4652,-170.1452 169.4652,-170.1452 169.4652,-173.2456 166.3648,-176.3459 163.2645,-176.3459"/>
<text text-anchor="middle" x="129.4526" y="-164.3449" font-family="Helvetica,sans-Serif" font-size="9.00" fill="#000000">score_display.ts</text>
</g>
<!-- src/both_sides.ts&#45;&gt;src/score_display.ts -->
<g id="edge3" class="edge">
<title>src/both_sides.ts-&gt;src/score_display.ts</title>
<path fill="none" stroke="#666666" stroke-width="2" d="M73.7933,-161.489C76.8061,-161.7897 79.885,-162.0971 82.9722,-162.4052"/>
<polygon fill="#666666" stroke="#666666" stroke-width="2" points="83.123,-164.5306 89.3019,-163.037 83.5402,-160.3514 83.123,-164.5306"/>
</g>
<!-- src/draw_erase_animate.ts&#45;&gt;src/game_state.ts -->
<g id="edge4" class="edge">
<title>src/draw_erase_animate.ts-&gt;src/game_state.ts</title>
<path fill="none" stroke="#666666" stroke-width="2" d="M189.3296,-119.0883C186.0501,-100.8083 178.7919,-60.3511 174.7818,-37.9986"/>
<polygon fill="#666666" stroke="#666666" stroke-width="2" points="176.8227,-37.482 173.6961,-31.9471 172.6887,-38.2237 176.8227,-37.482"/>
</g>
<!-- src/opponent_move.ts -->
<g id="node5" class="node">
<title>src/opponent_move.ts</title>
<path fill="#ddfeff" stroke="#000000" d="M146.3031,-93.8424C146.3031,-93.8424 68.6437,-93.8424 68.6437,-93.8424 65.5434,-93.8424 62.443,-90.7421 62.443,-87.6417 62.443,-87.6417 62.443,-81.441 62.443,-81.441 62.443,-78.3406 65.5434,-75.2403 68.6437,-75.2403 68.6437,-75.2403 146.3031,-75.2403 146.3031,-75.2403 149.4035,-75.2403 152.5038,-78.3406 152.5038,-81.441 152.5038,-81.441 152.5038,-87.6417 152.5038,-87.6417 152.5038,-90.7421 149.4035,-93.8424 146.3031,-93.8424"/>
<text text-anchor="middle" x="107.4734" y="-81.8414" font-family="Helvetica,sans-Serif" font-size="9.00" fill="#000000">opponent_move.ts</text>
</g>
<!-- src/game_state.ts&#45;&gt;src/opponent_move.ts -->
<g id="edge5" class="edge">
<title>src/game_state.ts-&gt;src/opponent_move.ts</title>
<path fill="none" stroke="#0000ff" stroke-width="2" d="M157.6037,-36.2514C146.9894,-46.476 132.6007,-60.3365 121.961,-70.5856"/>
<polygon fill="#0000ff" stroke="#0000ff" stroke-width="2" points="159.3213,-37.5126 162.1856,-31.8376 156.4075,-34.4878 159.3213,-37.5126"/>
<polygon fill="#0000ff" stroke="#0000ff" stroke-width="2" points="120.2276,-69.3395 117.3633,-75.0145 123.1414,-72.3644 120.2276,-69.3395"/>
</g>
<!-- src/score_display.ts&#45;&gt;src/draw_erase_animate.ts -->
<g id="edge18" class="edge">
<title>src/score_display.ts-&gt;src/draw_erase_animate.ts</title>
<path fill="none" stroke="#666666" stroke-width="2" d="M144.3561,-157.7153C152.2542,-152.7711 162.073,-146.6245 170.6632,-141.247"/>
<polygon fill="#666666" stroke="#666666" stroke-width="2" points="171.8535,-142.9795 175.8249,-138.0158 169.6249,-139.4195 171.8535,-142.9795"/>
</g>
<!-- src/opponent_move.ts&#45;&gt;src/both_sides.ts -->
<g id="edge14" class="edge">
<title>src/opponent_move.ts-&gt;src/both_sides.ts</title>
<path fill="none" stroke="#00ff00" stroke-width="2" d="M94.5001,-98.4913C82.3472,-111.5592 64.2814,-130.9849 52.1225,-144.0592"/>
<polygon fill="#00ff00" stroke="#00ff00" stroke-width="2" points="96.2695,-99.6724 98.8178,-93.8486 93.1939,-96.8122 96.2695,-99.6724"/>
<polygon fill="#00ff00" stroke="#00ff00" stroke-width="2" points="50.4803,-142.7413 47.932,-148.5652 53.5559,-145.6016 50.4803,-142.7413"/>
</g>
<!-- src/opponent_move.ts&#45;&gt;src/draw_erase_animate.ts -->
<g id="edge15" class="edge">
<title>src/opponent_move.ts-&gt;src/draw_erase_animate.ts</title>
<path fill="none" stroke="#666666" stroke-width="2" d="M125.1912,-93.8648C137.5969,-100.3929 154.2964,-109.1804 167.7711,-116.271"/>
<polygon fill="#666666" stroke="#666666" stroke-width="2" points="167.0389,-118.2587 173.3265,-119.1944 168.9947,-114.5419 167.0389,-118.2587"/>
</g>
<!-- src/opponent_move.ts&#45;&gt;src/score_display.ts -->
<g id="edge17" class="edge">
<title>src/opponent_move.ts-&gt;src/score_display.ts</title>
<path fill="none" stroke="#666666" stroke-width="2" d="M109.9947,-94.0056C113.7376,-108.0552 120.8057,-134.587 125.3143,-151.511"/>
<polygon fill="#666666" stroke="#666666" stroke-width="2" points="123.3869,-152.4339 126.9607,-157.6911 127.4453,-151.3527 123.3869,-152.4339"/>
</g>
<!-- src/main_entry.ts -->
<g id="node7" class="node">
<title>src/main_entry.ts</title>
<path fill="#ddfeff" stroke="#000000" d="M85.4682,-18.7011C85.4682,-18.7011 27.8534,-18.7011 27.8534,-18.7011 24.7531,-18.7011 21.6527,-15.6007 21.6527,-12.5004 21.6527,-12.5004 21.6527,-6.2996 21.6527,-6.2996 21.6527,-3.1993 24.7531,-.0989 27.8534,-.0989 27.8534,-.0989 85.4682,-.0989 85.4682,-.0989 88.5686,-.0989 91.6689,-3.1993 91.6689,-6.2996 91.6689,-6.2996 91.6689,-12.5004 91.6689,-12.5004 91.6689,-15.6007 88.5686,-18.7011 85.4682,-18.7011"/>
<text text-anchor="middle" x="56.6608" y="-6.7" font-family="Helvetica,sans-Serif" font-size="9.00" fill="#000000">main_entry.ts</text>
</g>
<!-- src/opponent_move.ts&#45;&gt;src/main_entry.ts -->
<g id="edge16" class="edge">
<title>src/opponent_move.ts-&gt;src/main_entry.ts</title>
<path fill="none" stroke="#666666" stroke-width="2" d="M101.038,-75.0246C92.3805,-62.2221 76.895,-39.3222 66.6991,-24.2446"/>
<polygon fill="#666666" stroke="#666666" stroke-width="2" points="68.3052,-22.8707 63.2045,-19.0768 64.826,-25.2234 68.3052,-22.8707"/>
</g>
<!-- src/main.ts -->
<g id="node6" class="node">
<title>src/main.ts</title>
<path fill="#ddfeff" stroke="#000000" d="M47.7993,-85.227C47.7993,-85.227 6.2007,-85.227 6.2007,-85.227 3.1004,-85.227 0,-82.1267 0,-79.0263 0,-79.0263 0,-72.8256 0,-72.8256 0,-69.7253 3.1004,-66.6249 6.2007,-66.6249 6.2007,-66.6249 47.7993,-66.6249 47.7993,-66.6249 50.8996,-66.6249 54,-69.7253 54,-72.8256 54,-72.8256 54,-79.0263 54,-79.0263 54,-82.1267 50.8996,-85.227 47.7993,-85.227"/>
<text text-anchor="middle" x="27" y="-73.226" font-family="Helvetica,sans-Serif" font-size="9.00" fill="#000000">main.ts</text>
</g>
<!-- src/main.ts&#45;&gt;src/both_sides.ts -->
<g id="edge6" class="edge">
<title>src/main.ts-&gt;src/both_sides.ts</title>
<path fill="none" stroke="#ff0000" stroke-width="2" d="M29.3036,-91.5173C31.4679,-106.1657 34.6882,-127.9608 36.8463,-142.567"/>
<polygon fill="#ff0000" stroke="#ff0000" stroke-width="2" points="31.3461,-90.9728 28.3916,-85.3442 27.1912,-91.5868 31.3461,-90.9728"/>
<polygon fill="#ff0000" stroke="#ff0000" stroke-width="2" points="34.801,-143.092 37.7555,-148.7205 38.9558,-142.478 34.801,-143.092"/>
</g>
<!-- src/main.ts&#45;&gt;src/draw_erase_animate.ts -->
<g id="edge7" class="edge">
<title>src/main.ts-&gt;src/draw_erase_animate.ts</title>
<path fill="none" stroke="#666666" stroke-width="2" d="M38.9862,-85.2548C44.8275,-89.4132 52.1201,-94.0583 59.2582,-97.1414 81.6502,-106.8129 107.529,-113.796 130.3924,-118.6814"/>
<polygon fill="#666666" stroke="#666666" stroke-width="2" points="130.1428,-120.7744 136.4448,-119.9413 130.9987,-116.6626 130.1428,-120.7744"/>
</g>
<!-- src/main.ts&#45;&gt;src/game_state.ts -->
<g id="edge8" class="edge">
<title>src/main.ts-&gt;src/game_state.ts</title>
<path fill="none" stroke="#666666" stroke-width="2" d="M52.2542,-66.6024C76.843,-57.5244 114.2747,-43.705 140.7286,-33.9385"/>
<polygon fill="#666666" stroke="#666666" stroke-width="2" points="141.6307,-35.8441 146.5321,-31.7959 140.1761,-31.904 141.6307,-35.8441"/>
</g>
<!-- src/main.ts&#45;&gt;src/score_display.ts -->
<g id="edge11" class="edge">
<title>src/main.ts-&gt;src/score_display.ts</title>
<path fill="none" stroke="#666666" stroke-width="2" d="M37.5783,-85.3341C55.7536,-101.4987 92.9822,-134.609 114.043,-153.3399"/>
<polygon fill="#666666" stroke="#666666" stroke-width="2" points="112.8993,-155.1332 118.7783,-157.5514 115.6905,-151.9948 112.8993,-155.1332"/>
</g>
<!-- src/main.ts&#45;&gt;src/opponent_move.ts -->
<g id="edge10" class="edge">
<title>src/main.ts-&gt;src/opponent_move.ts</title>
<path fill="none" stroke="#666666" stroke-width="2" d="M54.2446,-78.8427C54.9058,-78.9135 55.5722,-78.9849 56.243,-79.0567"/>
<polygon fill="#666666" stroke="#666666" stroke-width="2" points="56.1878,-81.1627 62.3773,-79.7134 56.635,-76.9866 56.1878,-81.1627"/>
</g>
<!-- src/main.ts&#45;&gt;src/main_entry.ts -->
<g id="edge9" class="edge">
<title>src/main.ts-&gt;src/main_entry.ts</title>
<path fill="none" stroke="#666666" stroke-width="2" d="M31.2497,-66.3944C36.1393,-55.4275 44.2309,-37.279 49.9684,-24.4102"/>
<polygon fill="#666666" stroke="#666666" stroke-width="2" points="51.8937,-25.249 52.419,-18.9139 48.0577,-23.5387 51.8937,-25.249"/>
</g>
<!-- src/main_entry.ts&#45;&gt;src/draw_erase_animate.ts -->
<g id="edge12" class="edge">
<title>src/main_entry.ts-&gt;src/draw_erase_animate.ts</title>
<path fill="none" stroke="#666666" stroke-width="2" d="M77.1165,-18.8624C98.5559,-29.516 132.3104,-48.4465 155.6886,-71.9414 167.7599,-84.0728 177.6699,-101.0522 183.8901,-113.2367"/>
<polygon fill="#666666" stroke="#666666" stroke-width="2" points="182.0959,-114.3459 186.6406,-118.7908 185.8597,-112.482 182.0959,-114.3459"/>
</g>
<!-- src/main_entry.ts&#45;&gt;src/game_state.ts -->
<g id="edge13" class="edge">
<title>src/main_entry.ts-&gt;src/game_state.ts</title>
<path fill="none" stroke="#666666" stroke-width="2" d="M91.888,-13.3709C103.842,-14.7184 117.3201,-16.2377 129.7626,-17.6403"/>
<polygon fill="#666666" stroke="#666666" stroke-width="2" points="129.5789,-19.7328 135.7764,-18.3182 130.0494,-15.5593 129.5789,-19.7328"/>
</g>
</g>
</svg>