<?xml version="1.0" encoding="UTF-8" standalone="no"?>
<svg
   version="1.1"
   id="svg2"
   xml:space="preserve"
   width="167.97749"
   height="164.59853"
   viewBox="0 0 167.97749 164.59854"
   sodipodi:docname="IA_is_down=true_x-faikleone=true.svg"
   inkscape:version="1.2 (dc2aedaf03, 2022-05-15)"
   xmlns:inkscape="http://www.inkscape.org/namespaces/inkscape"
   xmlns:sodipodi="http://sodipodi.sourceforge.net/DTD/sodipodi-0.dtd"
   xmlns="http://www.w3.org/2000/svg"
   xmlns:svg="http://www.w3.org/2000/svg"
   xmlns:rdf="http://www.w3.org/1999/02/22-rdf-syntax-ns#"
   xmlns:cc="http://creativecommons.org/ns#"
   xmlns:dc="http://purl.org/dc/elements/1.1/">
  <metadata
   id="metadata8">
    <rdf:RDF>
      <cc:Work
   rdf:about="">
        <dc:format>image/svg+xml</dc:format>
        <dc:type
   rdf:resource="http://purl.org/dc/dcmitype/StillImage" />
        <dc:title />
      </cc:Work>
    </rdf:RDF>
  </metadata>
  <defs
   id="defs6">
    <rect
   x="285.27426"
   y="209.39764"
   width="12.91025"
   height="109.01989"
   id="rect939" />
    <clipPath
   clipPathUnits="userSpaceOnUse"
   id="clipPath116">
      <path
   d="M 0,0 H 596 V 842 H 0 Z"
   id="path114" />
    </clipPath>
    <clipPath
   clipPathUnits="userSpaceOnUse"
   id="clipPath194">
      <path
   d="M 0,0 H 596 V 842 H 0 Z"
   id="path192" />
    </clipPath>
    <clipPath
   clipPathUnits="userSpaceOnUse"
   id="clipPath238">
      <path
   d="M 0,0 H 596 V 842 H 0 Z"
   id="path236" />
    </clipPath>
    <clipPath
   clipPathUnits="userSpaceOnUse"
   id="clipPath312">
      <path
   d="M 315.641,208.656 H 417.223 V 310.133 H 315.641 Z"
   id="path310" />
    </clipPath>
    <clipPath
   clipPathUnits="userSpaceOnUse"
   id="clipPath320">
      <path
   d="M 0,0 H 596 V 842 H 0 Z"
   id="path318" />
    </clipPath>
    <clipPath
   clipPathUnits="userSpaceOnUse"
   id="clipPath324">
      <path
   d="M 315.641,202.539 H 426.649 V 310.133 H 315.641 Z"
   id="path322" />
    </clipPath>
    <mask
   maskUnits="userSpaceOnUse"
   x="0"
   y="0"
   width="1"
   height="1"
   id="mask326">
    </mask>
    <rect
   x="285.27426"
   y="209.39764"
   width="144.16446"
   height="41.06177"
   id="rect962" />
  </defs>
  <sodipodi:namedview
   pagecolor="#ffffff"
   bordercolor="#666666"
   borderopacity="1"
   objecttolerance="10"
   gridtolerance="10"
   guidetolerance="10"
   inkscape:pageopacity="0"
   inkscape:pageshadow="2"
   inkscape:window-width="1920"
   inkscape:window-height="1001"
   id="namedview4"
   showgrid="false"
   inkscape:zoom="4.1827232"
   inkscape:cx="83.558004"
   inkscape:cy="85.231554"
   inkscape:window-x="-9"
   inkscape:window-y="-9"
   inkscape:window-maximized="1"
   inkscape:current-layer="g10"
   fit-margin-top="0"
   fit-margin-left="0"
   fit-margin-right="0"
   fit-margin-bottom="0"
   inkscape:document-rotation="0"
   inkscape:showpageshadow="2"
   inkscape:pagecheckerboard="0"
   inkscape:deskcolor="#d1d1d1" />
  <g
   id="g10"
   inkscape:groupmode="layer"
   inkscape:label="cet2kaik_iak1ak1 (8)"
   transform="matrix(1.3333333,0,0,1.3333333,-402.16433,-263.65673)">
    
    <g
   id="g346"
   transform="scale(1,0.932393)"
   style="fill:#787878;fill-opacity:1;stroke:#787878;stroke-opacity:1">
      <path
   d="m 413.23,213.061 0.45,1.219 -0.172,0.017 c 0,0 -2.813,5.597 -5.449,6.954 l -0.176,-0.247 c 0,0 2.89,-2.128 5.062,-7.822 0.086,-0.058 0.285,-0.121 0.285,-0.121 z"
   style="fill:#787878;fill-opacity:1;fill-rule:nonzero;stroke:#787878;stroke-width:0.28942;stroke-linecap:butt;stroke-linejoin:miter;stroke-miterlimit:9.33333;stroke-dasharray:none;stroke-opacity:1"
   id="path348" />
    </g>
    <g
   id="g350"
   transform="scale(1,0.932393)"
   style="fill:#787878;fill-opacity:1;stroke:#787878;stroke-opacity:1">
      <path
   d="m 408.969,215.755 4.207,3.489 0.398,-0.846 -4.394,-2.895 z"
   style="fill:#787878;fill-opacity:1;fill-rule:nonzero;stroke:#787878;stroke-width:0.28942;stroke-linecap:butt;stroke-linejoin:miter;stroke-miterlimit:9.33333;stroke-dasharray:none;stroke-opacity:1"
   id="path352" />
    </g>
    <g
   id="g354"
   style="fill:#787878;fill-opacity:1;stroke:#787878;stroke-opacity:1">
      <path
   d="m 397.207,200.008 0.668,0.515 1.668,-0.285 c 0,0 0.273,1.977 -1.609,4.528 -0.137,0.011 -0.34,0.011 -0.34,0.011 l -0.121,0.157 0.855,0.582 c 0,0 0.656,-0.602 3.024,-1.133 0.117,0.187 0.902,1.34 0.902,1.34 l 0.121,-0.051 0.121,-0.91 -2.066,-2.074 -0.223,0.273 c 0,0 0.809,0.875 0.855,0.992 0.051,0.121 -2.621,0.688 -2.621,0.688 0,0 1.797,-2.403 1.922,-3.895 -0.109,-0.187 -0.343,-0.582 -0.343,-0.582 l 2.492,-0.273 0.14,-0.121 -0.824,-0.551 c 0,0 -1.406,0.679 -4.551,0.629 -0.027,0.054 -0.082,0.156 -0.082,0.156 z"
   style="fill:#787878;fill-opacity:1;fill-rule:nonzero;stroke:#787878;stroke-width:0.279467;stroke-linecap:butt;stroke-linejoin:miter;stroke-miterlimit:9.33333;stroke-dasharray:none;stroke-opacity:1"
   id="path356" />
    </g>
    <g
   id="g358"
   style="fill:#787878;fill-opacity:1;stroke:#787878;stroke-opacity:1">
      <path
   d="m 376.812,198.262 0.317,-0.203 0.648,0.664 -0.578,1.281 2.289,-0.426 -0.05,-0.226 0.121,-0.082 0.882,0.89 c 0,0 -0.222,0.145 -0.468,0.547 -0.332,0.547 -0.778,1.488 -1.356,2.516 0.692,0.511 1.164,0.965 1.164,0.965 l -0.273,0.96 -1.242,-1.449 c 0,0 -1.454,2.606 -3.493,3.192 -0.062,-0.106 -0.144,-0.243 -0.144,-0.243 0,0 1.871,-0.757 3.207,-3.402 -0.652,-0.613 -1.375,-1.363 -1.375,-1.363 l 0.199,-0.238 1.445,1.191 c 0,0 1.286,-2.297 1.286,-2.539 0,-0.238 -2.395,0.391 -2.395,0.391 v -0.102 c 0,0 -0.617,1.59 -1.816,2.152 -0.075,0.032 -0.168,-0.14 -0.168,-0.14 0,0 2.086,-1.516 1.808,-4.336 z"
   style="fill:#787878;fill-opacity:1;fill-rule:nonzero;stroke:#787878;stroke-width:0.279467;stroke-linecap:butt;stroke-linejoin:miter;stroke-miterlimit:9.33333;stroke-dasharray:none;stroke-opacity:1"
   id="path360" />
    </g>
    <g
   id="g362"
   style="fill:#787878;fill-opacity:1;stroke:#787878;stroke-opacity:1">
      <path
   d="m 368.156,198.746 -0.144,0.195 c 0.148,3.164 -1.938,6.243 -1.938,6.243 l -1.953,0.23 -0.137,0.133 0.688,0.656 c 0.64,-0.215 3.355,-1.051 4.723,-1.391 l -0.2,-0.203 c 0,0 -1.297,0.305 -2.636,0.508 1.699,-1.754 2.414,-5.488 2.414,-5.488 z m -3.867,1.438 -0.184,0.125 c 0,0 0.915,1.429 1.485,3.031 0.047,-0.031 0.078,-0.051 0.117,-0.078 0.203,-0.524 0.309,-0.899 0.309,-0.899 z"
   style="fill:#787878;fill-opacity:1;fill-rule:nonzero;stroke:#787878;stroke-width:0.279467;stroke-linecap:square;stroke-linejoin:miter;stroke-miterlimit:9.33333;stroke-dasharray:none;stroke-opacity:1"
   id="path364" />
    </g>
    <g
   id="g366"
   style="fill:#787878;fill-opacity:1;stroke:#787878;stroke-opacity:1">
      <path
   d="m 356.566,198.145 c 0,0 -0.179,0.121 -0.261,0.265 0.441,0.606 0.34,7.113 0.285,7.235 -0.051,0.121 -1.227,-0.747 -1.227,-0.747 l -0.261,0.145 1.515,1.766 c 0,0 0.379,-0.469 0.574,-0.829 -0.031,-5.218 0.258,-6.964 0.258,-6.964 z m -3.093,1.007 -0.246,0.203 c 0,0 0.644,0.407 0.5,3.407 -0.036,0.105 -0.332,0.379 -0.332,0.379 l 0.867,0.664 c 0,0 0.09,-0.078 0.144,-0.141 0,-0.121 0.051,-3.535 0.051,-3.535 z"
   style="fill:#787878;fill-opacity:1;fill-rule:nonzero;stroke:#787878;stroke-width:0.279467;stroke-linecap:butt;stroke-linejoin:miter;stroke-miterlimit:9.33333;stroke-dasharray:none;stroke-opacity:1"
   id="path368" />
    </g>
    <g
   id="g370"
   style="fill:#787878;fill-opacity:1;stroke:#787878;stroke-opacity:1">
      <path
   d="m 342.594,198.824 0.304,-0.215 0.602,0.922 -0.848,1.477 c 1.336,-0.176 2.078,-0.543 3.305,-1.035 l 0.203,-0.219 0.856,0.59 c 0,0 -0.977,4.711 -2.411,5.5 -0.55,-1.41 -0.359,-0.992 -0.824,-2.692 0.067,-0.047 0.207,-0.047 0.305,-0.07 l 0.844,1.539 c 0,0 0.906,-0.887 1.136,-3.801 -1.535,0.305 -1.843,0.461 -1.843,0.461 l 0.3,0.403 c 0,0 -1.597,3.511 -3.535,4.66 -0.082,-0.117 -0.199,-0.27 -0.199,-0.27 0,0 2.574,-1.402 2.805,-4.656 -1.032,0.164 -1.438,0.301 -1.438,0.301 l -0.484,-0.457 0.086,-0.157 0.5,-0.043 c 0,0 0.672,-1.246 0.336,-2.238 z"
   style="fill:#787878;fill-opacity:1;fill-rule:nonzero;stroke:#787878;stroke-width:0.279467;stroke-linecap:butt;stroke-linejoin:miter;stroke-miterlimit:9.33333;stroke-dasharray:none;stroke-opacity:1"
   id="path372" />
    </g>
    <g
   id="g374"
   style="fill:#787878;fill-opacity:1;stroke:#787878;stroke-opacity:1">
      <path
   d="m 330.754,200.047 0.445,0.461 3.336,-0.414 -0.082,2.039 -0.113,-0.129 c 0,0 -2.094,0.582 -3.32,0.621 -0.043,0.004 -0.082,0.113 -0.082,0.113 l 0.457,0.446 3,-0.43 -0.051,2.055 -3.782,0.3 -0.074,0.098 0.75,0.605 c 0,0 0.59,-0.285 3.071,-0.542 0.105,0.292 0.269,0.492 0.269,0.492 l 0.219,-0.102 0.394,-6.043 -0.671,-0.476 -0.082,0.109 0.05,0.191 c 0,0 -2.168,0.508 -3.683,0.461 -0.047,0 -0.051,0.145 -0.051,0.145 z"
   style="fill:#787878;fill-opacity:1;fill-rule:nonzero;stroke:#787878;stroke-width:0.279467;stroke-linecap:square;stroke-linejoin:miter;stroke-miterlimit:9.33333;stroke-dasharray:none;stroke-opacity:1"
   id="path376" />
    </g>
    <g
   id="g378"
   style="fill:#787878;fill-opacity:1;stroke:#787878;stroke-opacity:1">
      <path
   d="m 323.371,198.578 c 0,0 -0.203,0.055 -0.285,0.11 -0.027,0.078 -0.063,0.156 -0.094,0.234 -2.086,0.461 -3.613,0.953 -4.16,0.953 0,0 -0.144,0.129 -0.176,0.148 l 0.961,0.485 3.094,-0.938 c -0.391,0.864 -0.801,1.629 -1.207,2.301 l -0.586,-0.457 -0.16,0.289 c 0,0 0.18,0.707 0.226,0.996 -1.531,2.571 -2.949,3.446 -2.949,3.446 l 0.172,0.23 c 1.016,-0.645 1.91,-1.574 2.762,-2.621 0.09,0.547 0.551,2.988 3.41,1.961 -0.438,-2.004 -0.551,-2.82 -0.551,-2.82 l -0.226,0.175 c 0,0 0.093,1.996 0.05,2.114 -0.047,0.117 -2.023,0.707 -2.093,-2.196 0.25,-0.328 0.476,-0.652 0.687,-0.965 0.633,-0.878 1.289,-1.961 1.496,-2.3 l 0.082,-0.012 -0.027,-0.082 c 0,0 0,-0.016 0,-0.016 0,0.004 0,0.004 -0.031,0.008 z"
   style="fill:#787878;fill-opacity:1;fill-rule:nonzero;stroke:#787878;stroke-width:0.264757;stroke-linecap:square;stroke-linejoin:miter;stroke-miterlimit:9.33333;stroke-dasharray:none;stroke-opacity:1"
   id="path380" />
    </g>
    <g
   id="g382"
   style="fill:#787878;fill-opacity:1;stroke:#787878;stroke-opacity:1">
      <path
   d="m 421.816,233.828 -0.207,0.238 c 0,0 0.805,4.543 -1.269,5.485 -0.09,0.039 0.121,0.168 0.121,0.168 0,0 1.867,-0.168 2.101,-4.696 0.094,0.09 0.157,0.161 0.157,0.161 l 1.16,-0.27 c 0,0 -0.059,1.559 0.168,3.293 0.051,0.379 0.922,1.785 3.094,1.008 -0.539,-1.235 -0.664,-2.395 -0.664,-2.395 l -0.282,-0.019 c 0,0 0.227,1.64 0.082,1.879 -0.082,0.136 -1.203,0.117 -1.492,-0.426 -0.398,-0.742 -0.308,-3.438 -0.082,-3.715 l -0.726,-0.59 -0.223,0.309 -1.242,0.258 z"
   style="fill:#787878;fill-opacity:1;fill-rule:nonzero;stroke:#787878;stroke-width:0.264757;stroke-linecap:butt;stroke-linejoin:miter;stroke-miterlimit:4;stroke-dasharray:none;stroke-opacity:1"
   id="path384" />
    </g>
    <g
   id="g386"
   style="fill:#787878;fill-opacity:1;stroke:#787878;stroke-opacity:1">
      <path
   d="m 421.133,246.449 0.547,0.406 3.914,-1.125 c 0,0 -0.735,1.711 -1.805,3.344 -0.461,-0.418 -0.75,-0.566 -0.75,-0.566 l -0.203,0.187 c 0,0 2.09,2.211 2,2.325 -0.09,0.109 0.305,-0.786 0.316,-0.821 0,-0.035 -1.097,-0.883 -1.097,-0.883 -0.051,-0.019 0.976,-1.464 2.336,-3.625 -0.145,-0.386 -0.313,-0.765 -0.313,-0.765 0,0 -0.504,0.277 -0.664,0.293 -0.297,0.027 -3.32,0.984 -4.226,1.097 z"
   style="fill:#787878;fill-opacity:1;fill-rule:nonzero;stroke:#787878;stroke-width:0.411848;stroke-linecap:butt;stroke-linejoin:miter;stroke-miterlimit:4;stroke-dasharray:none;stroke-opacity:1"
   id="path388" />
    </g>
    <g
   id="g390"
   style="fill:#787878;fill-opacity:1;stroke:#787878;stroke-opacity:1">
      <path
   d="m 425.672,255.379 c 0,0 -1.195,0.48 -1.547,0.605 l -0.113,-0.129 -0.098,0.192 c -0.441,0.121 -1.609,0.348 -2.008,0.383 -0.035,0.078 -0.082,0.125 -0.082,0.125 l 0.453,0.422 1.703,-0.399 0.028,0.086 v 1.484 c -0.801,0.196 -2.68,0.61 -3.172,0.653 0,0.015 -0.117,0.137 -0.117,0.137 l 0.441,0.32 2.848,-0.586 0.031,2.887 -0.047,0.07 -1.144,-1.031 -0.196,0.164 1.407,1.847 c 0,0 0.23,-0.332 0.371,-0.793 0,-1.425 0.027,-2.476 0.054,-3.246 l 2.786,-0.621 0.093,-0.14 -0.617,-0.422 c 0,0 -1.473,0.406 -2.246,0.633 0.055,-1.2 0.105,-1.461 0.105,-1.461 l -0.089,-0.106 1.652,-0.387 0.07,-0.113 z"
   style="fill:#787878;fill-opacity:1;fill-rule:nonzero;stroke:#787878;stroke-width:0.353007;stroke-linecap:butt;stroke-linejoin:miter;stroke-miterlimit:4;stroke-dasharray:none;stroke-opacity:1"
   id="path392" />
    </g>
    <g
   id="g394"
   style="fill:#787878;fill-opacity:1;stroke:#787878;stroke-opacity:1">
      <path
   d="m 422.371,267.281 c 0.121,0.035 0.688,0.297 0.688,0.297 l -0.032,3.563 2.192,-0.61 -0.078,-3.773 0.089,-0.074 0.629,0.605 c 0,0 -0.289,0.734 -0.175,6.535 -0.047,0.043 -0.086,0.082 -0.086,0.082 l -0.461,-0.804 c 0,0 0.172,-0.368 0.09,-2.18 -0.797,0.34 -2.856,1.047 -2.856,1.047 l -0.711,-0.461 0.078,-0.094 0.918,-0.156 c 0,0 -0.051,-3.18 -0.344,-3.82 -0.031,-0.051 0.051,-0.157 0.051,-0.157 z"
   style="fill:#787878;fill-opacity:1;fill-rule:nonzero;stroke:#787878;stroke-width:0.411848;stroke-linecap:butt;stroke-linejoin:miter;stroke-miterlimit:4;stroke-dasharray:none;stroke-opacity:1"
   id="path396" />
    </g>
    <g
   id="g398"
   style="fill:#787878;fill-opacity:1;stroke:#787878;stroke-opacity:1">
      <path
   d="m 425.41,289.355 c 0,0 -0.336,0.274 -0.609,0.329 -0.25,0.05 -3.215,0.488 -3.215,0.488 l -0.059,0.113 0.453,0.52 2.942,-0.567 c 0,0 -0.121,0.758 -0.938,1.801 -1.168,0.277 -1.968,0.406 -2.539,0.504 l -0.054,0.156 0.523,0.461 3.453,-0.73 c 0,0 -0.562,1.531 -1.629,2.508 -0.445,-0.473 -0.91,-0.852 -0.91,-0.852 l -0.199,0.223 c 0,0 1.617,2.191 1.746,2.558 0.047,-0.191 0.301,-0.89 0.309,-0.922 0,-0.039 -0.688,-0.73 -0.688,-0.73 -0.055,-0.027 1.258,-1.055 2.137,-2.84 -0.141,-0.445 -0.301,-0.887 -0.301,-0.887 0,0 -0.484,0.332 -0.641,0.352 -0.062,0.012 -0.296,0.047 -0.601,0.098 0.285,-0.352 0.644,-0.895 1.09,-1.743 z m -1.035,7.512 c 0,0.043 0,0.059 0,0.035 z"
   style="fill:#787878;fill-opacity:1;fill-rule:nonzero;stroke:#787878;stroke-width:0.279467;stroke-linecap:butt;stroke-linejoin:miter;stroke-miterlimit:4;stroke-dasharray:none;stroke-opacity:1"
   id="path400" />
    </g>
    <g
   id="g402"
   style="fill:#787878;fill-opacity:1;stroke:#787878;stroke-opacity:1">
      <path
   d="m 425.297,277.996 c 0,0 -0.356,0.316 -0.649,0.383 -0.265,0.059 -3.293,0.609 -3.293,0.609 l -0.066,0.129 0.594,0.485 3.004,-0.7 c 0,0 -0.586,1.024 -1.614,2.012 l -0.617,0.113 -0.511,-0.73 -0.172,0.258 c 0,0 0.449,3.16 -1.145,4.191 0.051,0.098 0.106,0.184 0.106,0.184 0,0 1.382,-0.321 1.742,-3.41 0.078,0.097 0.133,0.171 0.133,0.171 l 1.621,-0.5 c 0,0 -0.039,0.329 0.152,2.223 0.039,0.41 0.504,1.461 2.102,1.008 -0.442,-1.348 -0.551,-2.61 -0.551,-2.61 l -0.231,-0.019 c 0,0 0.18,1.785 0.078,2.047 -0.07,0.148 -0.539,0.215 -0.781,-0.375 -0.328,-0.809 -0.25,-2.129 -0.054,-2.434 l -0.602,-0.64 -0.191,0.336 -0.301,0.054 c 0.433,-0.433 1.137,-1.082 1.543,-1.804 z"
   style="fill:#787878;fill-opacity:1;fill-rule:nonzero;stroke:#787878;stroke-width:0.279467;stroke-linecap:butt;stroke-linejoin:miter;stroke-miterlimit:4;stroke-dasharray:none;stroke-opacity:1"
   id="path404" />
    </g>
    <g
   id="g406"
   style="fill:#787878;fill-opacity:1;stroke:#787878;stroke-opacity:1">
      <path
   d="m 420.984,212.008 0.469,0.441 4.336,-1.015 c 0,0 -1.098,4.316 -2.961,5.73 0,0 0.094,0.176 0.145,0.176 0.047,0 2.519,-2.113 3.601,-5.942 l -0.281,-0.71 c 0,0 -0.348,0.23 -0.629,0.277 -0.258,0.043 -4.617,0.949 -4.617,0.949 z"
   style="fill:#787878;fill-opacity:1;fill-rule:nonzero;stroke:#787878;stroke-width:0.411848;stroke-linecap:butt;stroke-linejoin:miter;stroke-miterlimit:4;stroke-dasharray:none;stroke-opacity:1"
   id="path408" />
    </g>
    <g
   id="g410"
   style="fill:#787878;fill-opacity:1;stroke:#787878;stroke-opacity:1">
      <path
   d="m 423.32,222.281 0.321,-0.152 0.523,0.883 c 0,0 -1.824,3.496 -2.539,4.672 0.523,0.05 3.539,-1.012 3.539,-1.012 0,0 -1.09,-1.328 -1.176,-1.305 -0.09,0.028 0.254,-0.199 0.254,-0.199 l 2.406,2.184 -0.203,1.128 -0.976,-1.418 -3.934,1.461 -1,-0.55 0.113,-0.125 0.356,-0.051 c 0,0 1.789,-2.203 2.316,-5.516 z"
   style="fill:#787878;fill-opacity:1;fill-rule:nonzero;stroke:#787878;stroke-width:0.264757;stroke-linecap:butt;stroke-linejoin:miter;stroke-miterlimit:4;stroke-dasharray:none;stroke-opacity:1"
   id="path412" />
    </g>
    <g
   id="g414"
   style="fill:#787878;fill-opacity:1;stroke:#787878;stroke-opacity:1">
      <path
   d="m 421.449,304.465 0.461,0.43 3.402,-0.668 c 0,0 -1.078,2.757 -2.917,4.144 0,0 0.097,0.176 0.144,0.176 0.051,0 2.207,-1.469 3.551,-4.356 l -0.278,-0.699 c 0,0 -0.343,0.227 -0.621,0.274 -0.253,0.043 -3.683,0.605 -3.683,0.605 z"
   style="fill:#787878;fill-opacity:1;fill-rule:nonzero;stroke:#787878;stroke-width:0.279467;stroke-linecap:butt;stroke-linejoin:miter;stroke-miterlimit:4;stroke-dasharray:none;stroke-opacity:1"
   id="path416" />
    </g>
    <g
   id="g418"
   style="fill:#787878;fill-opacity:1;stroke:#787878;stroke-opacity:1">
      <path
   d="m 422.27,301.027 -0.18,0.227 c 0,0 0.215,2.058 -1.61,2.988 -0.082,0.039 0.11,0.153 0.11,0.153 0,0 1.871,-0.997 2.101,-2.457 0.079,0.078 0.137,0.14 0.137,0.14 l 1.633,-0.492 c 0,0 0.047,0.402 0.047,1.027 0,0.356 0.582,1.387 2.433,0.594 -0.488,-0.48 -0.707,-1.273 -0.707,-1.273 l -0.125,0.05 c 0,0 0.141,0.68 0.102,0.743 -0.07,0.132 -1.203,0.347 -1.203,-0.215 0,-0.918 -0.031,-0.957 0.172,-1.227 l -0.618,-0.527 -0.199,0.297 -1.703,0.324 z"
   style="fill:#787878;fill-opacity:1;fill-rule:nonzero;stroke:#787878;stroke-width:0.279467;stroke-linecap:butt;stroke-linejoin:miter;stroke-miterlimit:4;stroke-dasharray:none;stroke-opacity:1"
   id="path420" />
    </g>
    <g
   id="g422"
   style="fill:#787878;fill-opacity:1;stroke:#787878;stroke-opacity:1">
      <path
   d="m 385.824,199.133 0.758,0.609 3.973,-0.945 c 0,0 -1.043,1.676 -1.633,2.137 -0.164,-0.391 -0.43,-0.789 -0.43,-0.789 l -0.301,0.332 c 0,0 1.262,3.343 0.602,5.355 -0.609,-0.34 -1.559,-1.375 -1.559,-1.375 l -0.226,0.254 1.887,2.344 c 0,0 1.738,-1.641 0.125,-5.817 1.668,-1.011 2.566,-2.722 2.566,-2.722 l -0.68,-0.637 -0.301,0.152 0.079,0.281 -4.731,0.719 z"
   style="fill:#787878;fill-opacity:1;fill-rule:nonzero;stroke:#787878;stroke-width:0.225946;stroke-linecap:butt;stroke-linejoin:miter;stroke-miterlimit:4;stroke-dasharray:none;stroke-opacity:1"
   id="path424" />
    </g>
    
  </g>
</svg>
